<svg width="109" height="34" viewBox="0 0 109 34" fill="none" xmlns="http://www.w3.org/2000/svg">
<mask id="mask0_3_2063" style="mask-type:luminance" maskUnits="userSpaceOnUse" x="0" y="0" width="109" height="34">
<path d="M16.963 0C7.595 0 0 7.611 0 16.999C0 26.389 7.595 34 16.963 34H91.537C100.847 34 108.406 26.483 108.5 17.174V16.824C108.406 7.517 100.847 0 91.537 0H16.963Z" fill="white"/>
</mask>
<g mask="url(#mask0_3_2063)">
<path d="M16.8597 21.5005V11.6095H18.9509V19.7763H23.1912V21.5005H16.8597ZM27.9182 21.6454C27.1551 21.6454 26.4983 21.4908 25.9477 21.1817C25.4004 20.8694 24.9786 20.4283 24.6824 19.8584C24.3862 19.2853 24.2381 18.6076 24.2381 17.8252C24.2381 17.0621 24.3862 16.3924 24.6824 15.8161C24.9786 15.2397 25.3955 14.7906 25.9332 14.4686C26.4741 14.1466 27.1084 13.9857 27.8361 13.9857C28.3255 13.9857 28.7811 14.0645 29.2029 14.2223C29.6279 14.3769 29.9981 14.6103 30.3137 14.9226C30.6324 15.2349 30.8803 15.6277 31.0574 16.101C31.2345 16.5711 31.323 17.1217 31.323 17.7527V18.3178H25.0591V17.0428H29.3864C29.3864 16.7466 29.322 16.4842 29.1932 16.2556C29.0644 16.027 28.8857 15.8483 28.6571 15.7195C28.4317 15.5875 28.1693 15.5215 27.8699 15.5215C27.5576 15.5215 27.2807 15.5939 27.0392 15.7388C26.801 15.8805 26.6142 16.072 26.479 16.3135C26.3438 16.5518 26.2745 16.8174 26.2713 17.1104V18.3226C26.2713 18.6897 26.3389 19.0068 26.4741 19.2741C26.6126 19.5413 26.8074 19.7474 27.0585 19.8922C27.3097 20.0371 27.6075 20.1096 27.952 20.1096C28.1806 20.1096 28.3899 20.0774 28.5798 20.013C28.7698 19.9486 28.9324 19.852 29.0676 19.7232C29.2029 19.5944 29.3059 19.4366 29.3767 19.2499L31.2796 19.3755C31.183 19.8327 30.985 20.2319 30.6855 20.5732C30.3893 20.9113 30.0062 21.1753 29.5361 21.3653C29.0692 21.552 28.5299 21.6454 27.9182 21.6454ZM34.781 21.6405C34.3077 21.6405 33.8859 21.5584 33.5157 21.3942C33.1454 21.2268 32.8524 20.9805 32.6367 20.6553C32.4242 20.3269 32.3179 19.918 32.3179 19.4286C32.3179 19.0165 32.3936 18.6704 32.5449 18.3902C32.6963 18.1101 32.9023 17.8847 33.1631 17.7141C33.4239 17.5435 33.7201 17.4147 34.0518 17.3277C34.3866 17.2408 34.7376 17.1796 35.1046 17.1442C35.536 17.0991 35.8838 17.0573 36.1478 17.0186C36.4118 16.9768 36.6034 16.9156 36.7225 16.8351C36.8416 16.7546 36.9012 16.6355 36.9012 16.4777V16.4487C36.9012 16.1429 36.8046 15.9062 36.6114 15.7388C36.4215 15.5714 36.151 15.4877 35.8001 15.4877C35.4298 15.4877 35.1352 15.5698 34.9163 15.734C34.6973 15.895 34.5524 16.0978 34.4816 16.3425L32.5787 16.188C32.6753 15.7372 32.8653 15.3476 33.1486 15.0192C33.432 14.6876 33.7974 14.4332 34.2449 14.2561C34.6957 14.0758 35.2173 13.9857 35.8097 13.9857C36.2218 13.9857 36.6163 14.034 36.993 14.1306C37.3729 14.2271 37.7094 14.3769 38.0024 14.5797C38.2986 14.7825 38.532 15.0433 38.7026 15.3621C38.8733 15.6776 38.9586 16.0559 38.9586 16.497V21.5005H37.0075V20.4718H36.9495C36.8304 20.7036 36.671 20.9081 36.4714 21.0851C36.2718 21.259 36.0319 21.3958 35.7518 21.4957C35.4717 21.5923 35.1481 21.6405 34.781 21.6405ZM35.3702 20.2206C35.6729 20.2206 35.9401 20.1611 36.1719 20.042C36.4038 19.9196 36.5857 19.7554 36.7177 19.5493C36.8497 19.3433 36.9157 19.1098 36.9157 18.849V18.0618C36.8513 18.1037 36.7628 18.1423 36.6501 18.1777C36.5406 18.2099 36.4166 18.2405 36.2782 18.2695C36.1397 18.2953 36.0013 18.3194 35.8629 18.3419C35.7244 18.3613 35.5988 18.379 35.4861 18.3951C35.2447 18.4305 35.0338 18.4868 34.8535 18.5641C34.6732 18.6414 34.5331 18.746 34.4333 18.878C34.3335 19.0068 34.2836 19.1678 34.2836 19.361C34.2836 19.6411 34.385 19.8552 34.5878 20.0033C34.7939 20.1482 35.0547 20.2206 35.3702 20.2206ZM40.5548 21.5005V14.0823H42.5494V15.3766H42.6267C42.7619 14.9162 42.9889 14.5684 43.3076 14.3334C43.6264 14.0951 43.9934 13.976 44.4088 13.976C44.5118 13.976 44.6229 13.9824 44.742 13.9953C44.8612 14.0082 44.9658 14.0259 45.056 14.0484V15.874C44.9594 15.8451 44.8257 15.8193 44.6551 15.7968C44.4845 15.7742 44.3283 15.7629 44.1866 15.7629C43.884 15.7629 43.6135 15.829 43.3753 15.961C43.1402 16.0898 42.9535 16.2701 42.815 16.5019C42.6798 16.7337 42.6122 17.0009 42.6122 17.3036V21.5005H40.5548ZM48.1771 17.2118V21.5005H46.1197V14.0823H48.0805V15.3911H48.1674C48.3316 14.9596 48.6069 14.6183 48.9933 14.3672C49.3796 14.1128 49.8481 13.9857 50.3987 13.9857C50.9138 13.9857 51.363 14.0984 51.7461 14.3237C52.1293 14.5491 52.4271 14.8711 52.6396 15.2896C52.8521 15.705 52.9584 16.2008 52.9584 16.7772V21.5005H50.901V17.1442C50.9042 16.6902 50.7883 16.3361 50.5532 16.0817C50.3182 15.8241 49.9946 15.6953 49.5825 15.6953C49.3056 15.6953 49.0609 15.7549 48.8484 15.874C48.6391 15.9932 48.4749 16.167 48.3558 16.3956C48.2399 16.621 48.1803 16.8931 48.1771 17.2118ZM57.7276 21.5005V14.0823H59.6884V15.3911H59.7753C59.9298 14.9564 60.1874 14.6135 60.548 14.3624C60.9086 14.1112 61.3401 13.9857 61.8424 13.9857C62.3511 13.9857 62.7841 14.1128 63.1415 14.3672C63.4989 14.6183 63.7372 14.9596 63.8563 15.3911H63.9336C64.0849 14.9661 64.3586 14.6264 64.7546 14.372C65.1538 14.1145 65.6255 13.9857 66.1697 13.9857C66.8619 13.9857 67.4237 14.2062 67.8552 14.6473C68.2898 15.0852 68.5072 15.7066 68.5072 16.5115V21.5005H66.4546V16.9172C66.4546 16.5051 66.3451 16.196 66.1262 15.9899C65.9073 15.7839 65.6336 15.6808 65.3052 15.6808C64.9317 15.6808 64.6403 15.8 64.431 16.0382C64.2217 16.2733 64.1171 16.584 64.1171 16.9703V21.5005H62.1225V16.8738C62.1225 16.5099 62.0178 16.2201 61.8086 16.0044C61.6025 15.7887 61.3304 15.6808 60.9924 15.6808C60.7638 15.6808 60.5577 15.7388 60.3742 15.8547C60.1939 15.9674 60.0506 16.1268 59.9443 16.3328C59.8381 16.5357 59.785 16.7739 59.785 17.0476V21.5005H57.7276ZM73.4841 21.6454C72.7339 21.6454 72.0851 21.486 71.5377 21.1672C70.9936 20.8453 70.5734 20.3977 70.2772 19.8246C69.981 19.2483 69.8329 18.5802 69.8329 17.8203C69.8329 17.0541 69.981 16.3844 70.2772 15.8112C70.5734 15.2349 70.9936 14.7874 71.5377 14.4686C72.0851 14.1466 72.7339 13.9857 73.4841 13.9857C74.2343 13.9857 74.8814 14.1466 75.4256 14.4686C75.9729 14.7874 76.3947 15.2349 76.6909 15.8112C76.9871 16.3844 77.1352 17.0541 77.1352 17.8203C77.1352 18.5802 76.9871 19.2483 76.6909 19.8246C76.3947 20.3977 75.9729 20.8453 75.4256 21.1672C74.8814 21.486 74.2343 21.6454 73.4841 21.6454ZM73.4937 20.0516C73.835 20.0516 74.12 19.955 74.3486 19.7618C74.5772 19.5654 74.7494 19.2982 74.8653 18.9601C74.9845 18.6221 75.044 18.2373 75.044 17.8059C75.044 17.3744 74.9845 16.9897 74.8653 16.6516C74.7494 16.3135 74.5772 16.0463 74.3486 15.8499C74.12 15.6535 73.835 15.5553 73.4937 15.5553C73.1492 15.5553 72.8594 15.6535 72.6244 15.8499C72.3926 16.0463 72.2171 16.3135 72.098 16.6516C71.9821 16.9897 71.9241 17.3744 71.9241 17.8059C71.9241 18.2373 71.9821 18.6221 72.098 18.9601C72.2171 19.2982 72.3926 19.5654 72.6244 19.7618C72.8594 19.955 73.1492 20.0516 73.4937 20.0516ZM78.473 21.5005V14.0823H80.4676V15.3766H80.5449C80.6801 14.9162 80.9071 14.5684 81.2259 14.3334C81.5446 14.0951 81.9117 13.976 82.327 13.976C82.4301 13.976 82.5411 13.9824 82.6603 13.9953C82.7794 14.0082 82.884 14.0259 82.9742 14.0484V15.874C82.8776 15.8451 82.744 15.8193 82.5733 15.7968C82.4027 15.7742 82.2465 15.7629 82.1049 15.7629C81.8022 15.7629 81.5318 15.829 81.2935 15.961C81.0585 16.0898 80.8717 16.2701 80.7333 16.5019C80.598 16.7337 80.5304 17.0009 80.5304 17.3036V21.5005H78.473ZM87.0733 21.6454C86.3102 21.6454 85.6534 21.4908 85.1028 21.1817C84.5555 20.8694 84.1337 20.4283 83.8375 19.8584C83.5413 19.2853 83.3931 18.6076 83.3931 17.8252C83.3931 17.0621 83.5413 16.3924 83.8375 15.8161C84.1337 15.2397 84.5506 14.7906 85.0883 14.4686C85.6292 14.1466 86.2635 13.9857 86.9912 13.9857C87.4806 13.9857 87.9362 14.0645 88.358 14.2223C88.783 14.3769 89.1532 14.6103 89.4688 14.9226C89.7875 15.2349 90.0354 15.6277 90.2125 16.101C90.3896 16.5711 90.4781 17.1217 90.4781 17.7527V18.3178H84.2142V17.0428H88.5415C88.5415 16.7466 88.4771 16.4842 88.3483 16.2556C88.2195 16.027 88.0408 15.8483 87.8122 15.7195C87.5868 15.5875 87.3244 15.5215 87.025 15.5215C86.7127 15.5215 86.4358 15.5939 86.1943 15.7388C85.956 15.8805 85.7693 16.072 85.6341 16.3135C85.4988 16.5518 85.4296 16.8174 85.4264 17.1104V18.3226C85.4264 18.6897 85.494 19.0068 85.6292 19.2741C85.7677 19.5413 85.9625 19.7474 86.2136 19.8922C86.4648 20.0371 86.7626 20.1096 87.1071 20.1096C87.3357 20.1096 87.545 20.0774 87.7349 20.013C87.9249 19.9486 88.0875 19.852 88.2227 19.7232C88.358 19.5944 88.461 19.4366 88.5318 19.2499L90.4347 19.3755C90.3381 19.8327 90.1401 20.2319 89.8406 20.5732C89.5444 20.9113 89.1613 21.1753 88.6912 21.3653C88.2243 21.552 87.685 21.6454 87.0733 21.6454Z" fill="#F2F2F2"/>
</g>
</svg>
