<svg width="15" height="15" viewBox="0 0 15 15" fill="none" xmlns="http://www.w3.org/2000/svg">
<path fill-rule="evenodd" clip-rule="evenodd" d="M12.188 0H2.813C1.26 0 0 1.259 0 2.813V12.188C0 13.741 1.26 15 2.813 15H12.188C13.741 15 15.001 13.741 15.001 12.188V2.813C15.001 1.259 13.741 0 12.188 0ZM11.807 8.078H10.404V13.273H8.059V8.078H7.149V6.328H8.059V5.212C8.059 3.752 8.667 2.884 10.388 2.884H12.133V4.626H11.118C10.447 4.626 10.404 4.877 10.404 5.343L10.402 6.326H11.997L11.805 8.076L11.807 8.078Z" fill="#AFAFAF"/>
</svg>
