<svg width="237" height="45" viewBox="0 0 237 45" fill="none" xmlns="http://www.w3.org/2000/svg">
<path d="M234.166 14.2905H234.5L235.584 15.9435L236.668 14.2905H236.993V17.0725H236.677V14.8505L235.602 16.4575H235.557L234.482 14.8505V17.0725H234.166V14.2905ZM232.305 14.5975H231.393V14.2905H233.534V14.5975H232.622V17.0725H232.305V14.5975Z" fill="#F4F4F2"/>
<path d="M221.099 21.888C223.709 21.888 225.649 20.55 225.649 18.319V18.275C225.649 16.156 224.021 14.862 221.166 14.862H215.835V21.888H221.099ZM214.675 13.791H221.233C223.174 13.791 224.668 14.371 225.627 15.33C226.363 16.066 226.81 17.093 226.81 18.23V18.275C226.81 20.885 224.846 22.379 222.237 22.736L227.389 29.406H225.917L220.943 22.937H215.835V29.406H214.675V13.791Z" fill="#F4F4F2"/>
<path d="M197.053 13.791H208.162V14.862H198.213V20.996H207.158V22.067H198.213V28.335H208.273V29.406H197.053V13.791Z" fill="#F4F4F2"/>
<path d="M184.361 14.862H178.918V13.791H190.964V14.862H185.521V29.406H184.361V14.862Z" fill="#F4F4F2"/>
<path d="M167.878 21.888C170.488 21.888 172.429 20.55 172.429 18.319V18.275C172.429 16.156 170.8 14.862 167.945 14.862H162.614V21.888H167.878ZM161.454 13.791H168.012C169.953 13.791 171.447 14.371 172.406 15.33C173.142 16.066 173.588 17.093 173.588 18.23V18.275C173.588 20.885 171.625 22.379 169.016 22.736L174.168 29.406H172.696L167.722 22.937H162.614V29.406H161.454V13.791Z" fill="#F4F4F2"/>
<path d="M151.728 23.9852L147.624 14.9512L143.497 23.9852H151.728ZM147.088 13.6792H148.204L155.475 29.4052H154.204L152.219 25.0332H143.006L141.021 29.4052H139.816L147.088 13.6792Z" fill="#F4F4F2"/>
<path d="M121.325 21.6429V21.5989C121.325 17.1819 124.626 13.5229 129.132 13.5229C131.898 13.5229 133.594 14.5269 135.2 16.0219L134.374 16.8699C133.014 15.5539 131.452 14.5719 129.11 14.5719C125.363 14.5719 122.53 17.6279 122.53 21.5539V21.5989C122.53 25.5239 125.407 28.6249 129.132 28.6249C131.385 28.6249 132.924 27.7769 134.508 26.1939L135.289 26.9519C133.616 28.5579 131.854 29.6729 129.088 29.6729C124.604 29.6729 121.325 26.1259 121.325 21.6429Z" fill="#F4F4F2"/>
<path d="M107.592 23.06H110.72V21.811H107.592V23.06Z" fill="#B6A269"/>
<path d="M107.577 23.062H106.328V26.19H107.577V23.062Z" fill="#B6A269"/>
<path d="M107.577 18.6812H106.328V21.8092H107.577V18.6812Z" fill="#B6A269"/>
<path d="M103.199 23.06H106.327V21.811H103.199V23.06Z" fill="#B6A269"/>
<path d="M62.6471 40.2076C65.7001 38.9636 68.4391 37.3316 71.1161 35.2436L66.3231 33.5416C64.3241 32.8326 62.3891 32.2416 60.3241 31.7296C55.7201 30.6216 47.1671 30.4086 44.1501 34.7216C43.0791 36.2526 43.2221 38.1676 44.5131 39.5156C48.4721 43.6456 57.8011 42.2676 62.6471 40.2076ZM79.8321 25.3786C82.2641 23.3476 84.4121 21.0686 86.3181 18.5396C86.7711 17.9376 87.9431 16.3256 87.2721 15.7586C86.6711 15.2506 85.0791 16.2286 84.4421 16.6576C81.9481 18.3366 79.7181 20.2936 77.7861 22.5966C77.0131 23.5176 75.2401 25.9356 75.8981 27.0886C76.4261 28.0136 79.2601 25.8556 79.8321 25.3786ZM93.8051 31.1976V31.8986C93.3491 32.7556 92.7471 33.4866 91.8901 34.0986C86.2591 38.1176 79.5801 37.7216 73.1351 35.8506C67.9231 39.7156 61.7111 42.3176 55.2021 42.8086C54.9641 42.7906 54.6861 42.8196 54.5811 42.9156H51.9831C49.1761 42.6116 45.8071 42.0846 43.7091 39.8176C42.3051 38.3006 42.1671 36.1156 43.3371 34.4076C44.7661 32.3226 47.4131 31.2396 49.8551 30.7676C55.1561 29.7406 59.8471 30.6686 64.9001 32.3646L71.8041 34.6816C74.9981 32.0796 77.8121 29.1806 80.4031 25.8986C79.3271 26.5696 78.3941 27.3626 77.2371 27.8466C75.8751 28.4156 74.2811 27.8396 73.8481 26.4216C73.5431 25.4216 73.8681 24.4696 74.2571 23.5316C72.6121 24.9696 70.4231 26.9736 68.3631 27.7646C67.4951 28.0976 66.3961 28.0036 65.7261 27.3426C64.3641 25.9966 66.5961 23.1626 67.5771 22.1696L71.3261 18.3786C71.8821 17.8156 73.7731 16.0946 73.1721 15.4166C72.6241 14.7996 70.7061 15.8276 70.0661 16.2506C67.0361 18.2556 63.2571 22.0506 60.8141 24.8036C60.0301 25.6876 59.5821 26.7446 58.9141 27.7456L56.2141 27.7366C56.6851 26.7136 57.1571 26.0246 57.7041 25.1026C56.1691 26.1916 54.2551 27.9696 52.3741 27.9486C51.2751 27.9366 50.4561 27.1556 50.4261 26.0746C50.3371 22.9636 56.2491 17.2796 58.4461 15.0426L61.1491 15.0836C59.7381 16.5446 50.8561 25.4436 52.5861 26.9486C53.9461 28.1316 60.5951 21.4716 61.7041 20.2636L66.5481 14.9866L69.2591 15.0216C68.1001 16.1946 67.0691 17.1996 66.0501 18.4266C67.8151 17.0666 70.7961 14.3496 73.1021 14.5366C73.7601 14.5896 74.3681 14.9136 74.6311 15.3356C75.5631 16.8326 73.8381 19.0006 72.7271 20.1456L68.8321 24.1586C68.3631 24.6416 66.8551 26.3016 67.3661 26.9126C68.7141 28.5206 76.2031 20.6646 77.3621 19.4656C78.9291 17.8456 80.7001 16.5536 82.6991 15.5556C83.9211 14.9456 86.9091 13.8426 87.8341 15.0956C88.1551 15.5306 88.2031 16.0356 88.2801 16.6446L89.7151 15.0926L92.0901 15.1376C88.2321 20.0116 84.3471 24.6436 80.1861 29.1846C78.1891 31.3636 76.1911 33.3676 73.8881 35.3116C79.0051 36.7816 85.0021 37.3926 89.6961 34.5356C91.6171 33.0636 90.8661 32.5446 91.5441 31.0246C91.7831 30.4876 92.3011 30.2456 92.8651 30.3176C93.2811 30.3706 93.5851 30.7716 93.8051 31.1976Z" fill="#F4F4F2"/>
<path d="M63.9034 11.4766C63.9224 12.3626 63.3384 12.9896 62.5644 13.0006C61.8174 13.0126 61.2894 12.3356 61.2794 11.5396C61.2704 10.7736 61.7404 10.1026 62.4434 10.0526C63.2294 9.99657 63.8844 10.5746 63.9034 11.4766Z" fill="#F4F4F2"/>
<path d="M60.5002 34.563C59.8922 33.257 57.2023 33.056 55.8843 33.131C51.4963 33.38 47.2692 34.831 43.5783 37.373C44.4363 38.816 45.8203 39.791 47.4533 40.234C54.9333 42.266 61.7242 37.189 60.5002 34.563ZM41.1952 16.579C41.1332 15.31 40.2622 14.693 39.1792 14.71C38.5062 14.685 37.7192 14.867 37.3882 15.503C37.1592 15.943 37.6092 16.365 38.0352 16.508C39.0392 16.844 40.1342 16.775 41.1952 16.579ZM64.2282 2.209C64.4262 1.904 64.5953 1.584 64.5312 1.336C64.4812 1.136 64.1472 0.931 63.8872 0.793C60.5452 0.418 57.0483 1.759 54.1413 3.31C56.9093 3.346 61.8422 3.479 64.2282 2.209ZM63.3353 0C63.9692 0.116 64.7892 0.308 65.1602 0.855C65.6482 1.576 65.1752 2.465 64.4672 2.859C63.4752 3.41 62.3423 3.655 61.1763 3.776C58.3722 4.067 55.6642 4.094 52.7902 4.071C50.5642 5.375 48.4523 6.72 46.3913 8.313L39.0942 13.953C40.7593 14.043 41.8662 14.855 42.2772 16.421C46.7872 15.462 52.1423 12.8 56.3182 10.646L65.3522 5.985C68.1062 4.564 70.8232 3.32 73.7132 2.218C76.1373 1.293 79.6963 0.265 82.2552 0.719L82.2422 1.436C80.3702 1.187 78.6532 1.508 76.8692 2.137C74.3152 3.037 71.9352 4.156 69.5293 5.432L60.4452 10.248C55.1462 13.057 48.4792 16.273 42.5042 17.196C42.6442 18.671 42.6742 20.052 42.5632 21.509L42.0923 27.708C41.9093 30.105 41.9022 34.243 43.0562 36.451C46.6132 33.854 50.7472 32.263 55.1452 32.006C56.7542 31.912 58.2902 32.054 59.6842 32.693C61.2352 33.405 61.7842 35.036 61.0002 36.538C58.1882 41.922 46.9142 43.498 43.0042 37.882C40.7122 39.626 38.9782 42.014 38.3812 44.81C38.2352 44.926 37.6952 44.876 37.7292 44.673C38.2422 41.632 40.0013 39.006 42.4043 37.038C40.6063 33.945 40.1692 28.691 40.5422 25.224L41.1672 19.414C41.2422 18.716 41.2803 18.027 41.2863 17.341C39.8193 17.457 37.0922 17.723 36.5832 15.881L28.9422 21.672C26.6092 23.439 24.2253 24.949 21.6852 26.405C19.5142 27.649 17.3572 28.691 14.9932 29.5C11.3542 30.745 6.73425 31.368 3.32725 29.272C0.808249 27.723 -0.525751 24.792 0.194249 21.926C0.525249 20.609 1.56725 19.611 2.87825 19.524C3.71125 19.469 4.43225 19.917 4.60625 20.623C4.77225 21.295 4.50325 22.09 3.80225 22.42L1.87425 23.325C1.15525 23.664 0.881249 24.414 1.11625 25.165C1.61025 26.735 2.75625 27.976 4.28025 28.698C6.82825 29.906 9.69825 29.917 12.3622 28.977C14.4452 28.242 16.3122 27.288 18.2072 26.138C21.3002 24.262 24.1733 22.235 27.0842 20.065L39.0583 11.141C42.5332 8.55 46.0443 6.299 49.9012 4.041L42.7702 3.827C38.3442 3.695 34.0452 3.62 29.6283 3.784C22.9482 4.034 11.2092 5.199 6.77925 10.756C4.47925 13.641 5.24125 17.758 8.46125 19.568C9.52525 20.166 10.6622 20.54 11.9132 20.682C21.7652 21.796 29.6022 15.343 33.4312 6.77C33.6032 6.689 33.9072 6.679 34.1402 6.731C31.2972 15.317 24.7132 21.486 15.4082 22.051C13.4962 22.167 11.6962 22.139 9.89025 21.486C8.03425 20.815 6.47225 19.621 5.53825 17.897C4.07325 15.195 4.50325 12.081 6.57425 9.825C11.2582 4.723 21.7143 3.479 28.3123 3.146C30.1483 3.054 31.8922 2.953 33.7422 2.983L43.0293 3.137L51.3042 3.353C54.9132 1.537 57.9603 0.427 61.8493 0H63.3353Z" fill="#F4F4F2"/>
</svg>
