<svg width="109" height="34" viewBox="0 0 109 34" fill="none" xmlns="http://www.w3.org/2000/svg">
<mask id="mask0_3_2146" style="mask-type:luminance" maskUnits="userSpaceOnUse" x="0" y="0" width="109" height="34">
<path d="M16.963 0C7.595 0 0 7.611 0 16.999C0 26.332 7.504 33.908 16.795 33.999H91.705C100.996 33.908 108.5 26.332 108.5 16.999C108.5 7.611 100.905 0 91.537 0H16.963Z" fill="white"/>
</mask>
<g mask="url(#mask0_3_2146)">
<path d="M16.8597 21.4995V11.6085H18.9509V19.7754H23.1912V21.4995H16.8597ZM27.9182 21.6444C27.1551 21.6444 26.4983 21.4899 25.9477 21.1808C25.4004 20.8684 24.9786 20.4273 24.6824 19.8575C24.3862 19.2843 24.2381 18.6066 24.2381 17.8242C24.2381 17.0611 24.3862 16.3914 24.6824 15.8151C24.9786 15.2388 25.3955 14.7896 25.9332 14.4676C26.4741 14.1457 27.1084 13.9847 27.8361 13.9847C28.3255 13.9847 28.7811 14.0636 29.2029 14.2213C29.6279 14.3759 29.9981 14.6093 30.3137 14.9216C30.6324 15.2339 30.8803 15.6267 31.0574 16.1C31.2345 16.5701 31.323 17.1207 31.323 17.7518V18.3168H25.0591V17.0418H29.3864C29.3864 16.7456 29.322 16.4832 29.1932 16.2546C29.0644 16.026 28.8857 15.8473 28.6571 15.7185C28.4317 15.5865 28.1693 15.5205 27.8699 15.5205C27.5576 15.5205 27.2807 15.5929 27.0392 15.7378C26.801 15.8795 26.6142 16.0711 26.479 16.3125C26.3438 16.5508 26.2745 16.8164 26.2713 17.1094V18.3216C26.2713 18.6887 26.3389 19.0058 26.4741 19.2731C26.6126 19.5403 26.8074 19.7464 27.0585 19.8913C27.3097 20.0361 27.6075 20.1086 27.952 20.1086C28.1806 20.1086 28.3899 20.0764 28.5798 20.012C28.7698 19.9476 28.9324 19.851 29.0676 19.7222C29.2029 19.5934 29.3059 19.4357 29.3767 19.2489L31.2796 19.3745C31.183 19.8317 30.985 20.2309 30.6855 20.5722C30.3893 20.9103 30.0062 21.1743 29.5361 21.3643C29.0692 21.551 28.5299 21.6444 27.9182 21.6444ZM34.781 21.6396C34.3077 21.6396 33.8859 21.5575 33.5157 21.3933C33.1454 21.2258 32.8524 20.9795 32.6367 20.6543C32.4242 20.3259 32.3179 19.917 32.3179 19.4276C32.3179 19.0155 32.3936 18.6694 32.5449 18.3893C32.6963 18.1091 32.9023 17.8838 33.1631 17.7131C33.4239 17.5425 33.7201 17.4137 34.0518 17.3268C34.3866 17.2398 34.7376 17.1786 35.1046 17.1432C35.536 17.0982 35.8838 17.0563 36.1478 17.0177C36.4118 16.9758 36.6034 16.9146 36.7225 16.8341C36.8416 16.7536 36.9012 16.6345 36.9012 16.4767V16.4478C36.9012 16.1419 36.8046 15.9052 36.6114 15.7378C36.4215 15.5704 36.151 15.4867 35.8001 15.4867C35.4298 15.4867 35.1352 15.5688 34.9163 15.733C34.6973 15.894 34.5524 16.0968 34.4816 16.3415L32.5787 16.187C32.6753 15.7362 32.8653 15.3466 33.1486 15.0182C33.432 14.6866 33.7974 14.4322 34.2449 14.2551C34.6957 14.0748 35.2173 13.9847 35.8097 13.9847C36.2218 13.9847 36.6163 14.033 36.993 14.1296C37.3729 14.2262 37.7094 14.3759 38.0024 14.5787C38.2986 14.7816 38.532 15.0424 38.7026 15.3611C38.8733 15.6766 38.9586 16.055 38.9586 16.4961V21.4995H37.0075V20.4708H36.9495C36.8304 20.7026 36.671 20.9071 36.4714 21.0842C36.2718 21.258 36.0319 21.3949 35.7518 21.4947C35.4717 21.5913 35.1481 21.6396 34.781 21.6396ZM35.3702 20.2197C35.6729 20.2197 35.9401 20.1601 36.1719 20.041C36.4038 19.9186 36.5857 19.7544 36.7177 19.5484C36.8497 19.3423 36.9157 19.1089 36.9157 18.8481V18.0609C36.8513 18.1027 36.7628 18.1413 36.6501 18.1768C36.5406 18.209 36.4166 18.2395 36.2782 18.2685C36.1397 18.2943 36.0013 18.3184 35.8629 18.341C35.7244 18.3603 35.5988 18.378 35.4861 18.3941C35.2447 18.4295 35.0338 18.4859 34.8535 18.5631C34.6732 18.6404 34.5331 18.745 34.4333 18.8771C34.3335 19.0058 34.2836 19.1668 34.2836 19.36C34.2836 19.6401 34.385 19.8542 34.5878 20.0023C34.7939 20.1472 35.0547 20.2197 35.3702 20.2197ZM40.5548 21.4995V14.0813H42.5494V15.3756H42.6267C42.7619 14.9152 42.9889 14.5675 43.3076 14.3324C43.6264 14.0942 43.9934 13.975 44.4088 13.975C44.5118 13.975 44.6229 13.9815 44.742 13.9943C44.8612 14.0072 44.9658 14.0249 45.056 14.0475V15.8731C44.9594 15.8441 44.8257 15.8183 44.6551 15.7958C44.4845 15.7732 44.3283 15.762 44.1866 15.762C43.884 15.762 43.6135 15.828 43.3753 15.96C43.1402 16.0888 42.9535 16.2691 42.815 16.5009C42.6798 16.7327 42.6122 17 42.6122 17.3026V21.4995H40.5548ZM48.1771 17.2108V21.4995H46.1197V14.0813H48.0805V15.3901H48.1674C48.3316 14.9587 48.6069 14.6174 48.9933 14.3662C49.3796 14.1119 49.8481 13.9847 50.3987 13.9847C50.9138 13.9847 51.363 14.0974 51.7461 14.3228C52.1293 14.5481 52.4271 14.8701 52.6396 15.2887C52.8521 15.704 52.9584 16.1999 52.9584 16.7762V21.4995H50.901V17.1432C50.9042 16.6893 50.7883 16.3351 50.5532 16.0807C50.3182 15.8231 49.9946 15.6944 49.5825 15.6944C49.3056 15.6944 49.0609 15.7539 48.8484 15.8731C48.6391 15.9922 48.4749 16.166 48.3558 16.3946C48.2399 16.62 48.1803 16.8921 48.1771 17.2108ZM57.7276 21.4995V14.0813H59.6884V15.3901H59.7753C59.9298 14.9554 60.1874 14.6125 60.548 14.3614C60.9086 14.1103 61.3401 13.9847 61.8424 13.9847C62.3511 13.9847 62.7841 14.1119 63.1415 14.3662C63.4989 14.6174 63.7372 14.9587 63.8563 15.3901H63.9336C64.0849 14.9651 64.3586 14.6254 64.7546 14.3711C65.1538 14.1135 65.6255 13.9847 66.1697 13.9847C66.8619 13.9847 67.4237 14.2052 67.8552 14.6463C68.2898 15.0842 68.5072 15.7056 68.5072 16.5106V21.4995H66.4546V16.9162C66.4546 16.5041 66.3451 16.195 66.1262 15.989C65.9073 15.7829 65.6336 15.6799 65.3052 15.6799C64.9317 15.6799 64.6403 15.799 64.431 16.0373C64.2217 16.2723 64.1171 16.583 64.1171 16.9694V21.4995H62.1225V16.8728C62.1225 16.5089 62.0178 16.2192 61.8086 16.0035C61.6025 15.7877 61.3304 15.6799 60.9924 15.6799C60.7638 15.6799 60.5577 15.7378 60.3742 15.8537C60.1939 15.9664 60.0506 16.1258 59.9443 16.3319C59.8381 16.5347 59.785 16.773 59.785 17.0466V21.4995H57.7276ZM73.4841 21.6444C72.7339 21.6444 72.0851 21.485 71.5377 21.1663C70.9936 20.8443 70.5734 20.3968 70.2772 19.8236C69.981 19.2473 69.8329 18.5792 69.8329 17.8194C69.8329 17.0531 69.981 16.3834 70.2772 15.8103C70.5734 15.2339 70.9936 14.7864 71.5377 14.4676C72.0851 14.1457 72.7339 13.9847 73.4841 13.9847C74.2343 13.9847 74.8814 14.1457 75.4256 14.4676C75.9729 14.7864 76.3947 15.2339 76.6909 15.8103C76.9871 16.3834 77.1352 17.0531 77.1352 17.8194C77.1352 18.5792 76.9871 19.2473 76.6909 19.8236C76.3947 20.3968 75.9729 20.8443 75.4256 21.1663C74.8814 21.485 74.2343 21.6444 73.4841 21.6444ZM73.4937 20.0506C73.835 20.0506 74.12 19.954 74.3486 19.7609C74.5772 19.5645 74.7494 19.2972 74.8653 18.9592C74.9845 18.6211 75.044 18.2363 75.044 17.8049C75.044 17.3734 74.9845 16.9887 74.8653 16.6506C74.7494 16.3125 74.5772 16.0453 74.3486 15.8489C74.12 15.6525 73.835 15.5543 73.4937 15.5543C73.1492 15.5543 72.8594 15.6525 72.6244 15.8489C72.3926 16.0453 72.2171 16.3125 72.098 16.6506C71.9821 16.9887 71.9241 17.3734 71.9241 17.8049C71.9241 18.2363 71.9821 18.6211 72.098 18.9592C72.2171 19.2972 72.3926 19.5645 72.6244 19.7609C72.8594 19.954 73.1492 20.0506 73.4937 20.0506ZM78.473 21.4995V14.0813H80.4676V15.3756H80.5449C80.6801 14.9152 80.9071 14.5675 81.2259 14.3324C81.5446 14.0942 81.9117 13.975 82.327 13.975C82.4301 13.975 82.5411 13.9815 82.6603 13.9943C82.7794 14.0072 82.884 14.0249 82.9742 14.0475V15.8731C82.8776 15.8441 82.744 15.8183 82.5733 15.7958C82.4027 15.7732 82.2465 15.762 82.1049 15.762C81.8022 15.762 81.5318 15.828 81.2935 15.96C81.0585 16.0888 80.8717 16.2691 80.7333 16.5009C80.598 16.7327 80.5304 17 80.5304 17.3026V21.4995H78.473ZM87.0733 21.6444C86.3102 21.6444 85.6534 21.4899 85.1028 21.1808C84.5555 20.8684 84.1337 20.4273 83.8375 19.8575C83.5413 19.2843 83.3931 18.6066 83.3931 17.8242C83.3931 17.0611 83.5413 16.3914 83.8375 15.8151C84.1337 15.2388 84.5506 14.7896 85.0883 14.4676C85.6292 14.1457 86.2635 13.9847 86.9912 13.9847C87.4806 13.9847 87.9362 14.0636 88.358 14.2213C88.783 14.3759 89.1532 14.6093 89.4688 14.9216C89.7875 15.2339 90.0354 15.6267 90.2125 16.1C90.3896 16.5701 90.4781 17.1207 90.4781 17.7518V18.3168H84.2142V17.0418H88.5415C88.5415 16.7456 88.4771 16.4832 88.3483 16.2546C88.2195 16.026 88.0408 15.8473 87.8122 15.7185C87.5868 15.5865 87.3244 15.5205 87.025 15.5205C86.7127 15.5205 86.4358 15.5929 86.1943 15.7378C85.956 15.8795 85.7693 16.0711 85.6341 16.3125C85.4988 16.5508 85.4296 16.8164 85.4264 17.1094V18.3216C85.4264 18.6887 85.494 19.0058 85.6292 19.2731C85.7677 19.5403 85.9625 19.7464 86.2136 19.8913C86.4648 20.0361 86.7626 20.1086 87.1071 20.1086C87.3357 20.1086 87.545 20.0764 87.7349 20.012C87.9249 19.9476 88.0875 19.851 88.2227 19.7222C88.358 19.5934 88.461 19.4357 88.5318 19.2489L90.4347 19.3745C90.3381 19.8317 90.1401 20.2309 89.8406 20.5722C89.5444 20.9103 89.1613 21.1743 88.6912 21.3643C88.2243 21.551 87.685 21.6444 87.0733 21.6444Z" fill="#F2F2F2"/>
</g>
</svg>
