<svg width="109" height="34" viewBox="0 0 109 34" fill="none" xmlns="http://www.w3.org/2000/svg">
<mask id="mask0_3_2355" style="mask-type:luminance" maskUnits="userSpaceOnUse" x="0" y="0" width="109" height="34">
<path d="M16.964 0C7.595 0 0 7.611 0 17C0 26.389 7.595 34 16.964 34H91.537C100.905 34 108.5 26.389 108.5 17C108.5 7.611 100.905 0 91.537 0H16.964Z" fill="white"/>
</mask>
<g mask="url(#mask0_3_2355)">
<path d="M16.8597 21.5V11.609H18.9509V19.7758H23.1912V21.5H16.8597ZM27.9182 21.6449C27.1551 21.6449 26.4983 21.4903 25.9477 21.1812C25.4004 20.8689 24.9786 20.4278 24.6824 19.8579C24.3862 19.2848 24.2381 18.6071 24.2381 17.8247C24.2381 17.0616 24.3862 16.3919 24.6824 15.8156C24.9786 15.2393 25.3955 14.7901 25.9332 14.4681C26.4741 14.1462 27.1084 13.9852 27.8361 13.9852C28.3255 13.9852 28.7811 14.0641 29.2029 14.2218C29.6279 14.3764 29.9981 14.6098 30.3137 14.9221C30.6324 15.2344 30.8803 15.6272 31.0574 16.1005C31.2345 16.5706 31.323 17.1212 31.323 17.7522V18.3173H25.0591V17.0423H29.3864C29.3864 16.7461 29.322 16.4837 29.1932 16.2551C29.0644 16.0265 28.8857 15.8478 28.6571 15.719C28.4317 15.587 28.1693 15.521 27.8699 15.521C27.5576 15.521 27.2807 15.5934 27.0392 15.7383C26.801 15.88 26.6142 16.0716 26.479 16.313C26.3438 16.5513 26.2745 16.8169 26.2713 17.1099V18.3221C26.2713 18.6892 26.3389 19.0063 26.4741 19.2736C26.6126 19.5408 26.8074 19.7469 27.0585 19.8918C27.3097 20.0366 27.6075 20.1091 27.952 20.1091C28.1806 20.1091 28.3899 20.0769 28.5798 20.0125C28.7698 19.9481 28.9324 19.8515 29.0676 19.7227C29.2029 19.5939 29.3059 19.4362 29.3767 19.2494L31.2796 19.375C31.183 19.8322 30.985 20.2314 30.6855 20.5727C30.3893 20.9108 30.0062 21.1748 29.5361 21.3648C29.0692 21.5515 28.5299 21.6449 27.9182 21.6449ZM34.781 21.6401C34.3077 21.6401 33.8859 21.558 33.5157 21.3937C33.1454 21.2263 32.8524 20.98 32.6367 20.6548C32.4242 20.3264 32.3179 19.9175 32.3179 19.4281C32.3179 19.016 32.3936 18.6699 32.5449 18.3898C32.6963 18.1096 32.9023 17.8843 33.1631 17.7136C33.4239 17.543 33.7201 17.4142 34.0518 17.3272C34.3866 17.2403 34.7376 17.1791 35.1046 17.1437C35.536 17.0986 35.8838 17.0568 36.1478 17.0182C36.4118 16.9763 36.6034 16.9151 36.7225 16.8346C36.8416 16.7541 36.9012 16.635 36.9012 16.4772V16.4483C36.9012 16.1424 36.8046 15.9057 36.6114 15.7383C36.4215 15.5709 36.151 15.4872 35.8001 15.4872C35.4298 15.4872 35.1352 15.5693 34.9163 15.7335C34.6973 15.8945 34.5524 16.0973 34.4816 16.342L32.5787 16.1875C32.6753 15.7367 32.8653 15.3471 33.1486 15.0187C33.432 14.6871 33.7974 14.4327 34.2449 14.2556C34.6957 14.0753 35.2173 13.9852 35.8097 13.9852C36.2218 13.9852 36.6163 14.0335 36.993 14.1301C37.3729 14.2267 37.7094 14.3764 38.0024 14.5792C38.2986 14.7821 38.532 15.0429 38.7026 15.3616C38.8733 15.6771 38.9586 16.0555 38.9586 16.4966V21.5H37.0075V20.4713H36.9495C36.8304 20.7031 36.671 20.9076 36.4714 21.0847C36.2718 21.2585 36.0319 21.3954 35.7518 21.4952C35.4717 21.5918 35.1481 21.6401 34.781 21.6401ZM35.3702 20.2202C35.6729 20.2202 35.9401 20.1606 36.1719 20.0415C36.4038 19.9191 36.5857 19.7549 36.7177 19.5489C36.8497 19.3428 36.9157 19.1094 36.9157 18.8486V18.0613C36.8513 18.1032 36.7628 18.1418 36.6501 18.1772C36.5406 18.2094 36.4166 18.24 36.2782 18.269C36.1397 18.2948 36.0013 18.3189 35.8629 18.3415C35.7244 18.3608 35.5988 18.3785 35.4861 18.3946C35.2447 18.43 35.0338 18.4863 34.8535 18.5636C34.6732 18.6409 34.5331 18.7455 34.4333 18.8775C34.3335 19.0063 34.2836 19.1673 34.2836 19.3605C34.2836 19.6406 34.385 19.8547 34.5878 20.0028C34.7939 20.1477 35.0547 20.2202 35.3702 20.2202ZM40.5548 21.5V14.0818H42.5494V15.3761H42.6267C42.7619 14.9157 42.9889 14.5679 43.3076 14.3329C43.6264 14.0946 43.9934 13.9755 44.4088 13.9755C44.5118 13.9755 44.6229 13.982 44.742 13.9948C44.8612 14.0077 44.9658 14.0254 45.056 14.048V15.8735C44.9594 15.8446 44.8257 15.8188 44.6551 15.7963C44.4845 15.7737 44.3283 15.7625 44.1866 15.7625C43.884 15.7625 43.6135 15.8285 43.3753 15.9605C43.1402 16.0893 42.9535 16.2696 42.815 16.5014C42.6798 16.7332 42.6122 17.0004 42.6122 17.3031V21.5H40.5548ZM48.1771 17.2113V21.5H46.1197V14.0818H48.0805V15.3906H48.1674C48.3316 14.9591 48.6069 14.6178 48.9933 14.3667C49.3796 14.1124 49.8481 13.9852 50.3987 13.9852C50.9138 13.9852 51.363 14.0979 51.7461 14.3232C52.1293 14.5486 52.4271 14.8706 52.6396 15.2892C52.8521 15.7045 52.9584 16.2003 52.9584 16.7767V21.5H50.901V17.1437C50.9042 16.6897 50.7883 16.3356 50.5532 16.0812C50.3182 15.8236 49.9946 15.6948 49.5825 15.6948C49.3056 15.6948 49.0609 15.7544 48.8484 15.8735C48.6391 15.9927 48.4749 16.1665 48.3558 16.3951C48.2399 16.6205 48.1803 16.8926 48.1771 17.2113ZM57.7276 21.5V14.0818H59.6884V15.3906H59.7753C59.9298 14.9559 60.1874 14.613 60.548 14.3619C60.9086 14.1107 61.3401 13.9852 61.8424 13.9852C62.3511 13.9852 62.7841 14.1124 63.1415 14.3667C63.4989 14.6178 63.7372 14.9591 63.8563 15.3906H63.9336C64.0849 14.9656 64.3586 14.6259 64.7546 14.3715C65.1538 14.114 65.6255 13.9852 66.1697 13.9852C66.8619 13.9852 67.4237 14.2057 67.8552 14.6468C68.2898 15.0847 68.5072 15.7061 68.5072 16.511V21.5H66.4546V16.9167C66.4546 16.5046 66.3451 16.1955 66.1262 15.9895C65.9073 15.7834 65.6336 15.6804 65.3052 15.6804C64.9317 15.6804 64.6403 15.7995 64.431 16.0377C64.2217 16.2728 64.1171 16.5835 64.1171 16.9699V21.5H62.1225V16.8733C62.1225 16.5094 62.0178 16.2197 61.8086 16.0039C61.6025 15.7882 61.3304 15.6804 60.9924 15.6804C60.7638 15.6804 60.5577 15.7383 60.3742 15.8542C60.1939 15.9669 60.0506 16.1263 59.9443 16.3324C59.8381 16.5352 59.785 16.7735 59.785 17.0471V21.5H57.7276ZM73.4841 21.6449C72.7339 21.6449 72.0851 21.4855 71.5377 21.1668C70.9936 20.8448 70.5734 20.3972 70.2772 19.8241C69.981 19.2478 69.8329 18.5797 69.8329 17.8199C69.8329 17.0536 69.981 16.3839 70.2772 15.8108C70.5734 15.2344 70.9936 14.7869 71.5377 14.4681C72.0851 14.1462 72.7339 13.9852 73.4841 13.9852C74.2343 13.9852 74.8814 14.1462 75.4256 14.4681C75.9729 14.7869 76.3947 15.2344 76.6909 15.8108C76.9871 16.3839 77.1352 17.0536 77.1352 17.8199C77.1352 18.5797 76.9871 19.2478 76.6909 19.8241C76.3947 20.3972 75.9729 20.8448 75.4256 21.1668C74.8814 21.4855 74.2343 21.6449 73.4841 21.6449ZM73.4937 20.0511C73.835 20.0511 74.12 19.9545 74.3486 19.7614C74.5772 19.5649 74.7494 19.2977 74.8653 18.9596C74.9845 18.6216 75.044 18.2368 75.044 17.8054C75.044 17.3739 74.9845 16.9892 74.8653 16.6511C74.7494 16.313 74.5772 16.0458 74.3486 15.8494C74.12 15.653 73.835 15.5548 73.4937 15.5548C73.1492 15.5548 72.8594 15.653 72.6244 15.8494C72.3926 16.0458 72.2171 16.313 72.098 16.6511C71.9821 16.9892 71.9241 17.3739 71.9241 17.8054C71.9241 18.2368 71.9821 18.6216 72.098 18.9596C72.2171 19.2977 72.3926 19.5649 72.6244 19.7614C72.8594 19.9545 73.1492 20.0511 73.4937 20.0511ZM78.473 21.5V14.0818H80.4676V15.3761H80.5449C80.6801 14.9157 80.9071 14.5679 81.2259 14.3329C81.5446 14.0946 81.9117 13.9755 82.327 13.9755C82.4301 13.9755 82.5411 13.982 82.6603 13.9948C82.7794 14.0077 82.884 14.0254 82.9742 14.048V15.8735C82.8776 15.8446 82.744 15.8188 82.5733 15.7963C82.4027 15.7737 82.2465 15.7625 82.1049 15.7625C81.8022 15.7625 81.5318 15.8285 81.2935 15.9605C81.0585 16.0893 80.8717 16.2696 80.7333 16.5014C80.598 16.7332 80.5304 17.0004 80.5304 17.3031V21.5H78.473ZM87.0733 21.6449C86.3102 21.6449 85.6534 21.4903 85.1028 21.1812C84.5555 20.8689 84.1337 20.4278 83.8375 19.8579C83.5413 19.2848 83.3931 18.6071 83.3931 17.8247C83.3931 17.0616 83.5413 16.3919 83.8375 15.8156C84.1337 15.2393 84.5506 14.7901 85.0883 14.4681C85.6292 14.1462 86.2635 13.9852 86.9912 13.9852C87.4806 13.9852 87.9362 14.0641 88.358 14.2218C88.783 14.3764 89.1532 14.6098 89.4688 14.9221C89.7875 15.2344 90.0354 15.6272 90.2125 16.1005C90.3896 16.5706 90.4781 17.1212 90.4781 17.7522V18.3173H84.2142V17.0423H88.5415C88.5415 16.7461 88.4771 16.4837 88.3483 16.2551C88.2195 16.0265 88.0408 15.8478 87.8122 15.719C87.5868 15.587 87.3244 15.521 87.025 15.521C86.7127 15.521 86.4358 15.5934 86.1943 15.7383C85.956 15.88 85.7693 16.0716 85.6341 16.313C85.4988 16.5513 85.4296 16.8169 85.4264 17.1099V18.3221C85.4264 18.6892 85.494 19.0063 85.6292 19.2736C85.7677 19.5408 85.9625 19.7469 86.2136 19.8918C86.4648 20.0366 86.7626 20.1091 87.1071 20.1091C87.3357 20.1091 87.545 20.0769 87.7349 20.0125C87.9249 19.9481 88.0875 19.8515 88.2227 19.7227C88.358 19.5939 88.461 19.4362 88.5318 19.2494L90.4347 19.375C90.3381 19.8322 90.1401 20.2314 89.8406 20.5727C89.5444 20.9108 89.1613 21.1748 88.6912 21.3648C88.2243 21.5515 87.685 21.6449 87.0733 21.6449Z" fill="#F2F2F2"/>
</g>
</svg>
