<svg width="237" height="45" viewBox="0 0 237 45" fill="none" xmlns="http://www.w3.org/2000/svg">
<path d="M107.577 18.6822H106.328V21.8102H107.577V18.6822Z" fill="#B6A269"/>
<path d="M107.577 23.0622H106.328V26.1902H107.577V23.0622Z" fill="#B6A269"/>
<path d="M103.199 23.0602H106.327V21.8112H103.199V23.0602Z" fill="#B6A269"/>
<path d="M107.592 23.0602H110.72V21.8112H107.592V23.0602Z" fill="#B6A269"/>
<path d="M121.325 21.6436V21.5986C121.325 17.1826 124.626 13.5236 129.132 13.5236C131.898 13.5236 133.594 14.5276 135.2 16.0216L134.374 16.8706C133.014 15.5536 131.452 14.5726 129.11 14.5726C125.363 14.5726 122.53 17.6286 122.53 21.5546V21.5986C122.53 25.5246 125.407 28.6256 129.132 28.6256C131.385 28.6256 132.924 27.7776 134.508 26.1936L135.289 26.9526C133.616 28.5586 131.854 29.6736 129.088 29.6736C124.604 29.6736 121.325 26.1266 121.325 21.6436Z" fill="#F4F4F2"/>
<path d="M151.728 23.9859L147.624 14.9519L143.497 23.9859H151.728ZM147.088 13.6799H148.204L155.475 29.4059H154.204L152.219 25.0339H143.006L141.021 29.4059H139.816L147.088 13.6799Z" fill="#F4F4F2"/>
<path d="M167.877 21.8887C170.487 21.8887 172.428 20.5507 172.428 18.3197V18.2747C172.428 16.1567 170.799 14.8627 167.944 14.8627H162.613V21.8887H167.877ZM161.453 13.7917H168.011C169.952 13.7917 171.446 14.3717 172.405 15.3307C173.141 16.0667 173.587 17.0937 173.587 18.2307V18.2747C173.587 20.8857 171.624 22.3797 169.015 22.7367L174.167 29.4067H172.695L167.721 22.9377H162.613V29.4067H161.453V13.7917Z" fill="#F4F4F2"/>
<path d="M184.361 14.8623H178.918V13.7913H190.964V14.8623H185.521V29.4063H184.361V14.8623Z" fill="#F4F4F2"/>
<path d="M197.053 13.7915H208.162V14.8625H198.213V20.9965H207.158V22.0675H198.213V28.3355H208.273V29.4065H197.053V13.7915Z" fill="#F4F4F2"/>
<path d="M221.099 21.8887C223.709 21.8887 225.649 20.5507 225.649 18.3197V18.2747C225.649 16.1567 224.021 14.8627 221.166 14.8627H215.835V21.8887H221.099ZM214.675 13.7917H221.233C223.174 13.7917 224.668 14.3717 225.627 15.3307C226.363 16.0667 226.81 17.0937 226.81 18.2307V18.2747C226.81 20.8857 224.846 22.3797 222.237 22.7367L227.389 29.4067H225.917L220.943 22.9377H215.835V29.4067H214.675V13.7917Z" fill="#F4F4F2"/>
<path d="M234.166 14.291H234.5L235.584 15.943L236.668 14.291H236.993V17.073H236.677V14.851L235.602 16.458H235.557L234.482 14.851V17.073H234.166V14.291ZM232.305 14.598H231.393V14.291H233.534V14.598H232.622V17.073H232.305V14.598Z" fill="#F4F4F2"/>
<path d="M62.6471 40.208C65.7001 38.964 68.4391 37.331 71.1161 35.244L66.3231 33.542C64.3241 32.833 62.3891 32.242 60.3241 31.73C55.7201 30.622 47.1671 30.409 44.1501 34.722C43.0791 36.253 43.2221 38.168 44.5131 39.516C48.4721 43.646 57.8011 42.268 62.6471 40.208ZM79.8321 25.379C82.2641 23.348 84.4121 21.069 86.3181 18.54C86.7711 17.938 87.9431 16.325 87.2721 15.759C86.6711 15.251 85.0791 16.229 84.4421 16.658C81.9481 18.336 79.7181 20.294 77.7861 22.597C77.0131 23.518 75.2401 25.936 75.8981 27.089C76.4261 28.014 79.2601 25.856 79.8321 25.379ZM93.8051 31.198V31.899C93.3491 32.756 92.7471 33.487 91.8901 34.099C86.2591 38.118 79.5801 37.722 73.1351 35.851C67.9231 39.716 61.7111 42.318 55.2021 42.809C54.9641 42.791 54.6861 42.82 54.5811 42.916H51.9831C49.1761 42.612 45.8071 42.085 43.7091 39.818C42.3051 38.301 42.1671 36.116 43.3371 34.408C44.7661 32.323 47.4131 31.24 49.8551 30.767C55.1561 29.741 59.8471 30.668 64.9001 32.365L71.8041 34.682C74.9981 32.079 77.8121 29.181 80.4031 25.899C79.3271 26.57 78.3941 27.363 77.2371 27.847C75.8751 28.416 74.2811 27.84 73.8481 26.422C73.5431 25.422 73.8681 24.469 74.2571 23.532C72.6121 24.97 70.4231 26.974 68.3631 27.765C67.4951 28.098 66.3961 28.004 65.7261 27.343C64.3641 25.997 66.5961 23.162 67.5771 22.169L71.3261 18.379C71.8821 17.816 73.7731 16.095 73.1721 15.417C72.6241 14.8 70.7061 15.828 70.0661 16.251C67.0361 18.256 63.2571 22.05 60.8141 24.803C60.0301 25.687 59.5821 26.744 58.9141 27.746L56.2141 27.737C56.6851 26.714 57.1571 26.025 57.7041 25.103C56.1691 26.192 54.2551 27.969 52.3741 27.949C51.2751 27.937 50.4561 27.156 50.4261 26.075C50.3371 22.964 56.2491 17.28 58.4461 15.043L61.1491 15.084C59.7381 16.545 50.8561 25.444 52.5861 26.949C53.9461 28.132 60.5951 21.472 61.7041 20.264L66.5481 14.987L69.2591 15.022C68.1001 16.195 67.0691 17.199 66.0501 18.427C67.8151 17.067 70.7961 14.35 73.1021 14.537C73.7601 14.59 74.3681 14.914 74.6311 15.336C75.5631 16.833 73.8381 19.001 72.7271 20.146L68.8321 24.159C68.3631 24.642 66.8551 26.302 67.3661 26.913C68.7141 28.521 76.2031 20.664 77.3621 19.466C78.9291 17.846 80.7001 16.554 82.6991 15.556C83.9211 14.946 86.9091 13.842 87.8341 15.096C88.1551 15.531 88.2031 16.036 88.2801 16.645L89.7151 15.093L92.0901 15.138C88.2321 20.012 84.3471 24.644 80.1861 29.185C78.1891 31.364 76.1911 33.368 73.8881 35.312C79.0051 36.782 85.0021 37.393 89.6961 34.536C91.6171 33.064 90.8661 32.545 91.5441 31.025C91.7831 30.488 92.3011 30.246 92.8651 30.318C93.2811 30.371 93.5851 30.772 93.8051 31.198Z" fill="#F4F4F2"/>
<path d="M63.9034 11.4771C63.9224 12.3631 63.3384 12.9901 62.5644 13.0011C61.8174 13.0131 61.2894 12.3361 61.2794 11.5401C61.2704 10.7731 61.7404 10.1021 62.4434 10.0531C63.2294 9.99706 63.8844 10.5741 63.9034 11.4771Z" fill="#F4F4F2"/>
<path d="M60.5002 34.563C59.8922 33.258 57.2023 33.056 55.8843 33.131C51.4963 33.38 47.2692 34.831 43.5783 37.373C44.4363 38.817 45.8203 39.791 47.4533 40.234C54.9333 42.267 61.7242 37.19 60.5002 34.563ZM41.1952 16.579C41.1332 15.31 40.2622 14.694 39.1792 14.711C38.5062 14.685 37.7192 14.867 37.3882 15.503C37.1592 15.943 37.6092 16.366 38.0352 16.508C39.0392 16.845 40.1342 16.775 41.1952 16.579ZM64.2282 2.209C64.4262 1.905 64.5953 1.584 64.5312 1.336C64.4812 1.137 64.1472 0.932 63.8872 0.794C60.5452 0.418 57.0483 1.759 54.1413 3.31C56.9093 3.346 61.8422 3.48 64.2282 2.209ZM63.3353 0C63.9692 0.116 64.7892 0.309 65.1602 0.855C65.6482 1.577 65.1752 2.465 64.4672 2.859C63.4752 3.411 62.3423 3.656 61.1763 3.777C58.3722 4.067 55.6642 4.094 52.7902 4.071C50.5642 5.375 48.4523 6.721 46.3913 8.314L39.0942 13.954C40.7593 14.043 41.8662 14.855 42.2772 16.421C46.7872 15.462 52.1423 12.8 56.3182 10.646L65.3522 5.985C68.1062 4.564 70.8232 3.32 73.7132 2.218C76.1373 1.294 79.6963 0.265 82.2552 0.719L82.2422 1.436C80.3702 1.187 78.6532 1.508 76.8692 2.138C74.3152 3.038 71.9352 4.157 69.5293 5.433L60.4452 10.248C55.1462 13.058 48.4792 16.273 42.5042 17.197C42.6442 18.671 42.6742 20.052 42.5632 21.51L42.0923 27.709C41.9093 30.106 41.9022 34.244 43.0562 36.451C46.6132 33.854 50.7472 32.264 55.1452 32.006C56.7542 31.912 58.2902 32.055 59.6842 32.694C61.2352 33.405 61.7842 35.036 61.0002 36.538C58.1882 41.923 46.9142 43.498 43.0042 37.882C40.7122 39.626 38.9782 42.015 38.3812 44.811C38.2352 44.927 37.6952 44.876 37.7292 44.674C38.2422 41.633 40.0013 39.006 42.4043 37.039C40.6063 33.946 40.1692 28.692 40.5422 25.224L41.1672 19.415C41.2422 18.717 41.2803 18.027 41.2863 17.341C39.8193 17.457 37.0922 17.723 36.5832 15.882L28.9422 21.672C26.6092 23.44 24.2253 24.95 21.6852 26.405C19.5142 27.65 17.3572 28.692 14.9932 29.501C11.3542 30.745 6.73425 31.368 3.32725 29.272C0.808249 27.723 -0.525751 24.792 0.194249 21.926C0.525249 20.61 1.56725 19.612 2.87825 19.524C3.71125 19.469 4.43225 19.917 4.60625 20.623C4.77225 21.295 4.50325 22.091 3.80225 22.42L1.87425 23.326C1.15525 23.664 0.881249 24.415 1.11625 25.165C1.61025 26.735 2.75625 27.977 4.28025 28.699C6.82825 29.906 9.69825 29.918 12.3622 28.978C14.4452 28.242 16.3122 27.289 18.2072 26.139C21.3002 24.263 24.1733 22.235 27.0842 20.066L39.0583 11.141C42.5332 8.551 46.0443 6.299 49.9012 4.041L42.7702 3.828C38.3442 3.695 34.0452 3.62 29.6283 3.785C22.9482 4.034 11.2092 5.2 6.77925 10.756C4.47925 13.641 5.24125 17.758 8.46125 19.568C9.52525 20.166 10.6622 20.541 11.9132 20.682C21.7652 21.797 29.6022 15.343 33.4312 6.77C33.6032 6.689 33.9072 6.679 34.1402 6.732C31.2972 15.318 24.7132 21.487 15.4082 22.051C13.4962 22.167 11.6962 22.139 9.89025 21.486C8.03425 20.816 6.47225 19.621 5.53825 17.898C4.07325 15.195 4.50325 12.082 6.57425 9.826C11.2582 4.723 21.7143 3.48 28.3123 3.147C30.1483 3.055 31.8922 2.953 33.7422 2.983L43.0293 3.138L51.3042 3.354C54.9132 1.538 57.9603 0.427 61.8493 0H63.3353Z" fill="#F4F4F2"/>
</svg>
