<svg width="11" height="7" viewBox="0 0 11 7" fill="none" xmlns="http://www.w3.org/2000/svg">
<path fill-rule="evenodd" clip-rule="evenodd" d="M0 3.375C0 3.271 0.036 3.183 0.11 3.11C0.183 3.037 0.271 3 0.375 3H9.22L6.859 0.641C6.786 0.567 6.75 0.479 6.75 0.375C6.75 0.271 6.786 0.183 6.859 0.109C6.933 0.036 7.021 0 7.125 0C7.229 0 7.317 0.036 7.391 0.109L10.391 3.109C10.464 3.183 10.501 3.271 10.501 3.375C10.501 3.479 10.464 3.567 10.391 3.641L7.391 6.641C7.317 6.714 7.229 6.75 7.125 6.75C7.021 6.75 6.933 6.713 6.86 6.64C6.786 6.567 6.75 6.479 6.75 6.375C6.75 6.271 6.786 6.183 6.859 6.109L9.22 3.75H0.375C0.271 3.75 0.183 3.713 0.11 3.64C0.036 3.567 0 3.479 0 3.375Z" fill="#F2F2F2"/>
</svg>
