<svg width="109" height="34" viewBox="0 0 109 34" fill="none" xmlns="http://www.w3.org/2000/svg">
<mask id="mask0_3_2345" style="mask-type:luminance" maskUnits="userSpaceOnUse" x="0" y="0" width="109" height="34">
<path d="M16.963 0C7.594 0 0 7.611 0 16.999C0 26.389 7.594 34 16.963 34H91.535C100.903 34 108.499 26.389 108.499 16.999C108.499 7.611 100.903 0 91.535 0H16.963Z" fill="white"/>
</mask>
<g mask="url(#mask0_3_2345)">
<path d="M16.8587 21.5005V11.6095H18.9499V19.7763H23.1903V21.5005H16.8587ZM27.9172 21.6454C27.1541 21.6454 26.4973 21.4908 25.9467 21.1817C25.3994 20.8694 24.9776 20.4283 24.6814 19.8584C24.3852 19.2853 24.2371 18.6076 24.2371 17.8252C24.2371 17.0621 24.3852 16.3924 24.6814 15.8161C24.9776 15.2397 25.3946 14.7906 25.9323 14.4686C26.4732 14.1466 27.1075 13.9857 27.8351 13.9857C28.3245 13.9857 28.7801 14.0645 29.2019 14.2223C29.6269 14.3769 29.9972 14.6103 30.3127 14.9226C30.6314 15.2349 30.8794 15.6277 31.0564 16.101C31.2335 16.5711 31.3221 17.1217 31.3221 17.7527V18.3178H25.0581V17.0428H29.3854C29.3854 16.7466 29.321 16.4842 29.1922 16.2556C29.0634 16.027 28.8847 15.8483 28.6561 15.7195C28.4308 15.5875 28.1684 15.5215 27.8689 15.5215C27.5566 15.5215 27.2797 15.5939 27.0382 15.7388C26.8 15.8805 26.6132 16.072 26.478 16.3135C26.3428 16.5518 26.2735 16.8174 26.2703 17.1104V18.3226C26.2703 18.6897 26.3379 19.0068 26.4732 19.2741C26.6116 19.5413 26.8064 19.7474 27.0576 19.8922C27.3087 20.0371 27.6065 20.1096 27.951 20.1096C28.1796 20.1096 28.3889 20.0774 28.5789 20.013C28.7688 19.9486 28.9314 19.852 29.0667 19.7232C29.2019 19.5944 29.3049 19.4366 29.3757 19.2499L31.2786 19.3755C31.182 19.8327 30.984 20.2319 30.6846 20.5732C30.3884 20.9113 30.0052 21.1753 29.5351 21.3653C29.0683 21.552 28.529 21.6454 27.9172 21.6454ZM34.78 21.6405C34.3067 21.6405 33.885 21.5584 33.5147 21.3942C33.1444 21.2268 32.8514 20.9805 32.6357 20.6553C32.4232 20.3269 32.317 19.918 32.317 19.4286C32.317 19.0165 32.3926 18.6704 32.544 18.3902C32.6953 18.1101 32.9013 17.8847 33.1621 17.7141C33.4229 17.5435 33.7192 17.4147 34.0508 17.3277C34.3856 17.2408 34.7366 17.1796 35.1036 17.1442C35.5351 17.0991 35.8828 17.0573 36.1468 17.0186C36.4108 16.9768 36.6024 16.9156 36.7215 16.8351C36.8407 16.7546 36.9002 16.6355 36.9002 16.4777V16.4487C36.9002 16.1429 36.8036 15.9062 36.6105 15.7388C36.4205 15.5714 36.15 15.4877 35.7991 15.4877C35.4288 15.4877 35.1342 15.5698 34.9153 15.734C34.6963 15.895 34.5514 16.0978 34.4806 16.3425L32.5778 16.188C32.6744 15.7372 32.8643 15.3476 33.1477 15.0192C33.431 14.6876 33.7964 14.4332 34.244 14.2561C34.6947 14.0758 35.2163 13.9857 35.8087 13.9857C36.2209 13.9857 36.6153 14.034 36.992 14.1306C37.3719 14.2271 37.7084 14.3769 38.0014 14.5797C38.2976 14.7825 38.531 15.0433 38.7017 15.3621C38.8723 15.6776 38.9576 16.0559 38.9576 16.497V21.5005H37.0065V20.4718H36.9485C36.8294 20.7036 36.67 20.9081 36.4704 21.0851C36.2708 21.259 36.0309 21.3958 35.7508 21.4957C35.4707 21.5923 35.1471 21.6405 34.78 21.6405ZM35.3693 20.2206C35.6719 20.2206 35.9391 20.1611 36.171 20.042C36.4028 19.9196 36.5847 19.7554 36.7167 19.5493C36.8487 19.3433 36.9147 19.1098 36.9147 18.849V18.0618C36.8503 18.1037 36.7618 18.1423 36.6491 18.1777C36.5396 18.2099 36.4157 18.2405 36.2772 18.2695C36.1388 18.2953 36.0003 18.3194 35.8619 18.3419C35.7234 18.3613 35.5979 18.379 35.4852 18.3951C35.2437 18.4305 35.0328 18.4868 34.8525 18.5641C34.6722 18.6414 34.5321 18.746 34.4323 18.878C34.3325 19.0068 34.2826 19.1678 34.2826 19.361C34.2826 19.6411 34.384 19.8552 34.5869 20.0033C34.7929 20.1482 35.0537 20.2206 35.3693 20.2206ZM40.5538 21.5005V14.0823H42.5484V15.3766H42.6257C42.7609 14.9162 42.9879 14.5684 43.3067 14.3334C43.6254 14.0951 43.9925 13.976 44.4078 13.976C44.5108 13.976 44.6219 13.9824 44.7411 13.9953C44.8602 14.0082 44.9648 14.0259 45.055 14.0484V15.874C44.9584 15.8451 44.8248 15.8193 44.6541 15.7968C44.4835 15.7742 44.3273 15.7629 44.1857 15.7629C43.883 15.7629 43.6125 15.829 43.3743 15.961C43.1392 16.0898 42.9525 16.2701 42.8141 16.5019C42.6788 16.7337 42.6112 17.0009 42.6112 17.3036V21.5005H40.5538ZM48.1761 17.2118V21.5005H46.1187V14.0823H48.0795V15.3911H48.1664C48.3306 14.9596 48.6059 14.6183 48.9923 14.3672C49.3787 14.1128 49.8471 13.9857 50.3977 13.9857C50.9129 13.9857 51.362 14.0984 51.7452 14.3237C52.1283 14.5491 52.4261 14.8711 52.6386 15.2896C52.8511 15.705 52.9574 16.2008 52.9574 16.7772V21.5005H50.9V17.1442C50.9032 16.6902 50.7873 16.3361 50.5522 16.0817C50.3172 15.8241 49.9936 15.6953 49.5815 15.6953C49.3046 15.6953 49.0599 15.7549 48.8474 15.874C48.6381 15.9932 48.4739 16.167 48.3548 16.3956C48.2389 16.621 48.1793 16.8931 48.1761 17.2118ZM57.7266 21.5005V14.0823H59.6874V15.3911H59.7743C59.9289 14.9564 60.1864 14.6135 60.5471 14.3624C60.9077 14.1112 61.3391 13.9857 61.8414 13.9857C62.3501 13.9857 62.7832 14.1128 63.1405 14.3672C63.4979 14.6183 63.7362 14.9596 63.8553 15.3911H63.9326C64.0839 14.9661 64.3576 14.6264 64.7536 14.372C65.1529 14.1145 65.6246 13.9857 66.1687 13.9857C66.8609 13.9857 67.4228 14.2062 67.8542 14.6473C68.2889 15.0852 68.5062 15.7066 68.5062 16.5115V21.5005H66.4536V16.9172C66.4536 16.5051 66.3442 16.196 66.1252 15.9899C65.9063 15.7839 65.6326 15.6808 65.3042 15.6808C64.9307 15.6808 64.6393 15.8 64.43 16.0382C64.2208 16.2733 64.1161 16.584 64.1161 16.9703V21.5005H62.1215V16.8738C62.1215 16.5099 62.0169 16.2201 61.8076 16.0044C61.6015 15.7887 61.3295 15.6808 60.9914 15.6808C60.7628 15.6808 60.5567 15.7388 60.3732 15.8547C60.1929 15.9674 60.0496 16.1268 59.9434 16.3328C59.8371 16.5357 59.784 16.7739 59.784 17.0476V21.5005H57.7266ZM73.4831 21.6454C72.7329 21.6454 72.0841 21.486 71.5368 21.1672C70.9926 20.8453 70.5725 20.3977 70.2762 19.8246C69.98 19.2483 69.8319 18.5802 69.8319 17.8203C69.8319 17.0541 69.98 16.3844 70.2762 15.8112C70.5725 15.2349 70.9926 14.7874 71.5368 14.4686C72.0841 14.1466 72.7329 13.9857 73.4831 13.9857C74.2333 13.9857 74.8804 14.1466 75.4246 14.4686C75.9719 14.7874 76.3937 15.2349 76.6899 15.8112C76.9861 16.3844 77.1342 17.0541 77.1342 17.8203C77.1342 18.5802 76.9861 19.2483 76.6899 19.8246C76.3937 20.3977 75.9719 20.8453 75.4246 21.1672C74.8804 21.486 74.2333 21.6454 73.4831 21.6454ZM73.4927 20.0516C73.834 20.0516 74.119 19.955 74.3476 19.7618C74.5762 19.5654 74.7484 19.2982 74.8643 18.9601C74.9835 18.6221 75.043 18.2373 75.043 17.8059C75.043 17.3744 74.9835 16.9897 74.8643 16.6516C74.7484 16.3135 74.5762 16.0463 74.3476 15.8499C74.119 15.6535 73.834 15.5553 73.4927 15.5553C73.1482 15.5553 72.8585 15.6535 72.6234 15.8499C72.3916 16.0463 72.2161 16.3135 72.097 16.6516C71.9811 16.9897 71.9231 17.3744 71.9231 17.8059C71.9231 18.2373 71.9811 18.6221 72.097 18.9601C72.2161 19.2982 72.3916 19.5654 72.6234 19.7618C72.8585 19.955 73.1482 20.0516 73.4927 20.0516ZM78.472 21.5005V14.0823H80.4667V15.3766H80.5439C80.6792 14.9162 80.9061 14.5684 81.2249 14.3334C81.5437 14.0951 81.9107 13.976 82.326 13.976C82.4291 13.976 82.5402 13.9824 82.6593 13.9953C82.7784 14.0082 82.8831 14.0259 82.9732 14.0484V15.874C82.8766 15.8451 82.743 15.8193 82.5724 15.7968C82.4017 15.7742 82.2456 15.7629 82.1039 15.7629C81.8012 15.7629 81.5308 15.829 81.2925 15.961C81.0575 16.0898 80.8707 16.2701 80.7323 16.5019C80.5971 16.7337 80.5294 17.0009 80.5294 17.3036V21.5005H78.472ZM87.0723 21.6454C86.3092 21.6454 85.6524 21.4908 85.1018 21.1817C84.5545 20.8694 84.1327 20.4283 83.8365 19.8584C83.5403 19.2853 83.3922 18.6076 83.3922 17.8252C83.3922 17.0621 83.5403 16.3924 83.8365 15.8161C84.1327 15.2397 84.5497 14.7906 85.0874 14.4686C85.6283 14.1466 86.2625 13.9857 86.9902 13.9857C87.4796 13.9857 87.9352 14.0645 88.357 14.2223C88.782 14.3769 89.1522 14.6103 89.4678 14.9226C89.7865 15.2349 90.0345 15.6277 90.2115 16.101C90.3886 16.5711 90.4772 17.1217 90.4772 17.7527V18.3178H84.2132V17.0428H88.5405C88.5405 16.7466 88.4761 16.4842 88.3473 16.2556C88.2185 16.027 88.0398 15.8483 87.8112 15.7195C87.5859 15.5875 87.3234 15.5215 87.024 15.5215C86.7117 15.5215 86.4348 15.5939 86.1933 15.7388C85.9551 15.8805 85.7683 16.072 85.6331 16.3135C85.4979 16.5518 85.4286 16.8174 85.4254 17.1104V18.3226C85.4254 18.6897 85.493 19.0068 85.6283 19.2741C85.7667 19.5413 85.9615 19.7474 86.2126 19.8922C86.4638 20.0371 86.7616 20.1096 87.1061 20.1096C87.3347 20.1096 87.544 20.0774 87.734 20.013C87.9239 19.9486 88.0865 19.852 88.2217 19.7232C88.357 19.5944 88.46 19.4366 88.5308 19.2499L90.4337 19.3755C90.3371 19.8327 90.1391 20.2319 89.8397 20.5732C89.5434 20.9113 89.1603 21.1753 88.6902 21.3653C88.2234 21.552 87.6841 21.6454 87.0723 21.6454Z" fill="#F2F2F2"/>
</g>
</svg>
