<svg width="12" height="15" viewBox="0 0 12 15" fill="none" xmlns="http://www.w3.org/2000/svg">
<path d="M7.36 5.6H3.44V14.44H1.74V5.6H0V4.1H1.74V2.56C1.74 1.72 1.983 1.083 2.47 0.65C2.957 0.217 3.667 0 4.6 0C4.76 0 4.943 0.014 5.15 0.04C5.357 0.067 5.54 0.107 5.7 0.16V1.64C5.553 1.587 5.393 1.55 5.22 1.53C5.047 1.51 4.887 1.5 4.74 1.5C4.327 1.5 4.007 1.58 3.78 1.74C3.553 1.9 3.44 2.207 3.44 2.66V4.1H7.36V2.56C7.36 1.72 7.603 1.083 8.09 0.65C8.577 0.217 9.287 0 10.22 0C10.38 0 10.563 0.014 10.77 0.04C10.977 0.067 11.16 0.107 11.32 0.16V1.64C11.173 1.587 11.013 1.55 10.84 1.53C10.667 1.51 10.507 1.5 10.36 1.5C9.947 1.5 9.627 1.58 9.4 1.74C9.173 1.9 9.06 2.207 9.06 2.66V4.1H11.06V5.6H9.06V14.44H7.36V5.6Z" fill="#191919"/>
</svg>
