<svg width="1459" height="5349" viewBox="0 0 1459 5349" fill="none" xmlns="http://www.w3.org/2000/svg">
<g clip-path="url(#clip0_3_2372)">
<path d="M-26.5352 5100.57H1531.53V5334.61H-26.5352V5100.57Z" fill="#0E0E0E"/>
<path d="M-0.0561523 5307.29H1505.06V5349.3H-0.0561523V5307.29Z" fill="#212121"/>
<path d="M835.669 14.2902H836.003L837.087 15.9432L838.171 14.2902H838.496V17.0722H838.18V14.8502L837.105 16.4582H837.06L835.985 14.8502V17.0722H835.669V14.2902ZM833.808 14.5972H832.896V14.2902H835.037V14.5972H834.125V17.0722H833.808V14.5972Z" fill="#F4F4F2"/>
<path d="M822.602 21.8884C825.212 21.8884 827.152 20.5504 827.152 18.3194V18.2744C827.152 16.1564 825.524 14.8624 822.669 14.8624H817.338V21.8884H822.602ZM816.178 13.7914H822.736C824.677 13.7914 826.171 14.3714 827.13 15.3304C827.866 16.0664 828.313 17.0924 828.313 18.2304V18.2744C828.313 20.8844 826.349 22.3794 823.74 22.7364L828.892 29.4064H827.42L822.446 22.9364H817.338V29.4064H816.178V13.7914Z" fill="#F4F4F2"/>
<path d="M798.557 13.7912H809.666V14.8622H799.717V20.9962H808.662V22.0672H799.717V28.3352H809.777V29.4062H798.557V13.7912Z" fill="#F4F4F2"/>
<path d="M785.865 14.862H780.422V13.791H792.468V14.862H787.025V29.406H785.865V14.862Z" fill="#F4F4F2"/>
<path d="M769.381 21.8884C771.991 21.8884 773.932 20.5504 773.932 18.3194V18.2744C773.932 16.1564 772.303 14.8624 769.448 14.8624H764.117V21.8884H769.381ZM762.957 13.7914H769.515C771.456 13.7914 772.95 14.3714 773.909 15.3304C774.645 16.0664 775.091 17.0924 775.091 18.2304V18.2744C775.091 20.8844 773.128 22.3794 770.519 22.7364L775.671 29.4064H774.199L769.225 22.9364H764.117V29.4064H762.957V13.7914Z" fill="#F4F4F2"/>
<path d="M753.232 23.985L749.128 14.951L745.001 23.985H753.232ZM748.592 13.679H749.708L756.979 29.406H755.708L753.723 25.034H744.51L742.525 29.406H741.32L748.592 13.679Z" fill="#F4F4F2"/>
<path d="M722.829 21.6432V21.5982C722.829 17.1822 726.13 13.5232 730.636 13.5232C733.402 13.5232 735.098 14.5272 736.704 16.0212L735.878 16.8692C734.518 15.5532 732.956 14.5722 730.614 14.5722C726.867 14.5722 724.034 17.6282 724.034 21.5542V21.5982C724.034 25.5242 726.911 28.6252 730.636 28.6252C732.889 28.6252 734.428 27.7772 736.012 26.1932L736.793 26.9522C735.12 28.5582 733.358 29.6732 730.592 29.6732C726.108 29.6732 722.829 26.1262 722.829 21.6432Z" fill="#F4F4F2"/>
<path d="M709.096 23.06H712.224V21.811H709.096V23.06Z" fill="#B6A269"/>
<path d="M709.081 23.062H707.832V26.19H709.081V23.062Z" fill="#B6A269"/>
<path d="M704.703 23.06H707.831V21.811H704.703V23.06Z" fill="#B6A269"/>
<path d="M709.081 18.681H707.832V21.809H709.081V18.681Z" fill="#B6A269"/>
<path d="M664.151 40.2078C667.204 38.9638 669.943 37.3308 672.62 35.2438L667.827 33.5418C665.828 32.8328 663.893 32.2418 661.828 31.7298C657.224 30.6218 648.671 30.4088 645.654 34.7218C644.583 36.2528 644.726 38.1678 646.017 39.5158C649.976 43.6458 659.305 42.2668 664.151 40.2078ZM681.336 25.3788C683.768 23.3468 685.916 21.0688 687.822 18.5398C688.275 17.9378 689.447 16.3248 688.776 15.7588C688.175 15.2508 686.583 16.2288 685.946 16.6578C683.452 18.3358 681.222 20.2938 679.29 22.5968C678.517 23.5178 676.744 25.9358 677.402 27.0888C677.93 28.0128 680.764 25.8558 681.336 25.3788ZM695.309 31.1978V31.8988C694.853 32.7558 694.251 33.4868 693.394 34.0988C687.763 38.1178 681.084 37.7208 674.639 35.8508C669.427 39.7158 663.215 42.3178 656.706 42.8088C656.468 42.7908 656.19 42.8198 656.085 42.9158H653.487C650.68 42.6118 647.311 42.0848 645.213 39.8178C643.809 38.3008 643.671 36.1158 644.841 34.4078C646.27 32.3228 648.917 31.2398 651.359 30.7668C656.66 29.7408 661.351 30.6678 666.404 32.3648L673.308 34.6818C676.502 32.0788 679.316 29.1808 681.907 25.8988C680.831 26.5698 679.898 27.3628 678.741 27.8468C677.379 28.4158 675.785 27.8388 675.352 26.4218C675.047 25.4218 675.372 24.4688 675.761 23.5318C674.116 24.9698 671.927 26.9738 669.867 27.7648C668.999 28.0978 667.9 28.0038 667.23 27.3428C665.868 25.9968 668.1 23.1618 669.081 22.1688L672.83 18.3788C673.386 17.8158 675.277 16.0938 674.676 15.4168C674.128 14.7988 672.21 15.8278 671.57 16.2508C668.54 18.2558 664.761 22.0498 662.318 24.8028C661.534 25.6868 661.086 26.7438 660.418 27.7458L657.718 27.7368C658.189 26.7138 658.661 26.0248 659.208 25.1028C657.673 26.1918 655.759 27.9688 653.878 27.9488C652.779 27.9368 651.96 27.1558 651.93 26.0748C651.841 22.9638 657.753 17.2798 659.95 15.0428L662.653 15.0838C661.242 16.5448 652.36 25.4428 654.09 26.9488C655.45 28.1318 662.099 21.4718 663.208 20.2628L668.052 14.9868L670.763 15.0218C669.604 16.1948 668.573 17.1988 667.554 18.4268C669.319 17.0668 672.3 14.3498 674.606 14.5368C675.264 14.5898 675.872 14.9128 676.135 15.3358C677.067 16.8328 675.342 19.0008 674.231 20.1458L670.336 24.1588C669.867 24.6418 668.359 26.3018 668.87 26.9128C670.218 28.5198 677.707 20.6638 678.866 19.4658C680.433 17.8458 682.204 16.5538 684.203 15.5558C685.425 14.9458 688.413 13.8418 689.338 15.0958C689.659 15.5308 689.707 16.0358 689.784 16.6438L691.219 15.0928L693.594 15.1378C689.736 20.0118 685.851 24.6438 681.69 29.1848C679.693 31.3638 677.695 33.3678 675.392 35.3118C680.509 36.7818 686.506 37.3928 691.2 34.5358C693.121 33.0638 692.37 32.5448 693.048 31.0238C693.287 30.4878 693.805 30.2458 694.369 30.3178C694.785 30.3708 695.089 30.7718 695.309 31.1978Z" fill="#F4F4F2"/>
<path d="M665.407 11.4763C665.426 12.3623 664.842 12.9893 664.068 13.0013C663.321 13.0123 662.793 12.3353 662.783 11.5393C662.774 10.7733 663.244 10.1023 663.947 10.0523C664.733 9.99625 665.388 10.5743 665.407 11.4763Z" fill="#F4F4F2"/>
<path d="M662.004 34.5627C661.396 33.2577 658.706 33.0557 657.388 33.1307C653 33.3797 648.773 34.8307 645.082 37.3727C645.94 38.8157 647.324 39.7907 648.957 40.2337C656.437 42.2667 663.228 37.1887 662.004 34.5627ZM642.699 16.5787C642.637 15.3097 641.766 14.6937 640.683 14.7107C640.01 14.6847 639.223 14.8667 638.892 15.5027C638.663 15.9427 639.113 16.3657 639.539 16.5077C640.543 16.8447 641.638 16.7747 642.699 16.5787ZM665.732 2.20869C665.93 1.90469 666.099 1.58369 666.035 1.33569C665.985 1.13669 665.651 0.931687 665.391 0.793687C662.049 0.417687 658.552 1.75869 655.645 3.30969C658.413 3.34569 663.346 3.47969 665.732 2.20869ZM664.839 -0.000312805C665.473 0.115687 666.293 0.307687 666.664 0.854687C667.152 1.57569 666.679 2.46469 665.971 2.85869C664.979 3.41069 663.846 3.65569 662.68 3.77569C659.876 4.06669 657.168 4.09369 654.294 4.07069C652.068 5.37469 649.956 6.71969 647.895 8.31369L640.598 13.9527C642.263 14.0427 643.37 14.8547 643.781 16.4207C648.291 15.4617 653.646 12.7997 657.822 10.6457L666.856 5.98469C669.61 4.56369 672.327 3.31969 675.217 2.21769C677.641 1.29369 681.2 0.264687 683.759 0.718687L683.746 1.43569C681.874 1.18669 680.157 1.50769 678.373 2.13669C675.819 3.03769 673.439 4.15669 671.033 5.43269L661.949 10.2477C656.65 13.0577 649.983 16.2727 644.008 17.1967C644.148 18.6707 644.178 20.0517 644.067 21.5097L643.596 27.7087C643.413 30.1057 643.406 34.2437 644.56 36.4507C648.117 33.8537 652.251 32.2627 656.649 32.0057C658.258 31.9117 659.794 32.0547 661.188 32.6937C662.739 33.4047 663.288 35.0357 662.504 36.5377C659.692 41.9227 648.418 43.4977 644.508 37.8817C642.216 39.6257 640.482 42.0147 639.885 44.8107C639.739 44.9267 639.199 44.8757 639.233 44.6737C639.746 41.6327 641.505 39.0057 643.908 37.0387C642.11 33.9457 641.673 28.6907 642.046 25.2237L642.671 19.4147C642.746 18.7167 642.784 18.0267 642.79 17.3407C641.323 17.4567 638.596 17.7227 638.087 15.8817L630.446 21.6717C628.113 23.4397 625.729 24.9497 623.189 26.4047C621.018 27.6497 618.861 28.6917 616.497 29.5007C612.858 30.7447 608.238 31.3677 604.831 29.2717C602.312 27.7227 600.978 24.7917 601.698 21.9257C602.029 20.6097 603.071 19.6117 604.382 19.5237C605.215 19.4687 605.936 19.9167 606.11 20.6227C606.276 21.2947 606.007 22.0907 605.306 22.4197L603.378 23.3257C602.659 23.6637 602.385 24.4137 602.62 25.1647C603.114 26.7347 604.26 27.9767 605.784 28.6987C608.332 29.9057 611.202 29.9167 613.866 28.9777C615.949 28.2417 617.816 27.2887 619.711 26.1387C622.804 24.2627 625.677 22.2347 628.588 20.0647L640.562 11.1407C644.037 8.55069 647.548 6.29869 651.405 4.04069L644.274 3.82769C639.848 3.69469 635.549 3.61969 631.132 3.78469C624.452 4.03369 612.713 5.19969 608.283 10.7557C605.983 13.6407 606.745 17.7577 609.965 19.5677C611.029 20.1657 612.166 20.5407 613.417 20.6817C623.269 21.7967 631.106 15.3427 634.935 6.76969C635.107 6.68869 635.411 6.67869 635.644 6.73169C632.801 15.3177 626.217 21.4867 616.912 22.0507C615 22.1667 613.2 22.1387 611.394 21.4857C609.538 20.8157 607.976 19.6207 607.042 17.8977C605.577 15.1947 606.007 12.0817 608.078 9.82469C612.762 4.72269 623.218 3.47969 629.816 3.14669C631.652 3.05369 633.396 2.95269 635.246 2.98269L644.533 3.13769L652.808 3.35369C656.417 1.53769 659.464 0.426687 663.353 -0.000312805H664.839Z" fill="#F4F4F2"/>
</g>
<defs>
<clipPath id="clip0_3_2372">
<rect width="1459" height="5348.42" fill="white"/>
</clipPath>
</defs>
</svg>
