<svg width="139" height="36" viewBox="0 0 139 36" fill="none" xmlns="http://www.w3.org/2000/svg">
<g clip-path="url(#clip0_3_516)">
<path fill-rule="evenodd" clip-rule="evenodd" d="M144.5 17.999C144.5 27.94 136.439 35.999 126.494 35.999H18.006C8.061 35.999 0 27.94 0 17.999C0 8.05802 8.061 -0.000976562 18.006 -0.000976562H126.494C136.439 -0.000976562 144.5 8.05802 144.5 17.999ZM143.5 17.999C143.5 27.388 135.886 34.999 126.494 34.999H18.006C8.614 34.999 1 27.388 1 17.999C1 8.61002 8.614 0.999023 18.006 0.999023H126.494C135.886 0.999023 143.5 8.61002 143.5 17.999Z" fill="white"/>
</g>
<defs>
<clipPath id="clip0_3_516">
<rect width="138.5" height="36" fill="white"/>
</clipPath>
</defs>
</svg>
