<svg width="109" height="34" viewBox="0 0 109 34" fill="none" xmlns="http://www.w3.org/2000/svg">
<mask id="mask0_3_2188" style="mask-type:luminance" maskUnits="userSpaceOnUse" x="0" y="0" width="109" height="34">
<path d="M16.963 0C7.651 0 0.091 7.52 0 16.83V17.167C0.09 26.424 7.56 33.909 16.795 33.999H91.705C100.995 33.908 108.5 26.332 108.5 16.999C108.5 7.611 100.905 0 91.537 0H16.963Z" fill="white"/>
</mask>
<g mask="url(#mask0_3_2188)">
<path d="M16.6722 21.4995V11.6085H18.7634V19.7754H23.0037V21.4995H16.6722ZM27.7307 21.6444C26.9676 21.6444 26.3108 21.4899 25.7602 21.1808C25.2129 20.8684 24.7911 20.4273 24.4949 19.8575C24.1987 19.2843 24.0506 18.6066 24.0506 17.8242C24.0506 17.0611 24.1987 16.3914 24.4949 15.8151C24.7911 15.2388 25.208 14.7896 25.7457 14.4676C26.2866 14.1457 26.9209 13.9847 27.6486 13.9847C28.138 13.9847 28.5936 14.0636 29.0154 14.2213C29.4404 14.3759 29.8106 14.6093 30.1262 14.9216C30.4449 15.2339 30.6928 15.6267 30.8699 16.1C31.047 16.5701 31.1355 17.1207 31.1355 17.7518V18.3168H24.8716V17.0418H29.1989C29.1989 16.7456 29.1345 16.4832 29.0057 16.2546C28.8769 16.026 28.6982 15.8473 28.4696 15.7185C28.2442 15.5865 27.9818 15.5205 27.6824 15.5205C27.3701 15.5205 27.0932 15.5929 26.8517 15.7378C26.6135 15.8795 26.4267 16.0711 26.2915 16.3125C26.1563 16.5508 26.087 16.8164 26.0838 17.1094V18.3216C26.0838 18.6887 26.1514 19.0058 26.2866 19.2731C26.4251 19.5403 26.6199 19.7464 26.871 19.8913C27.1222 20.0361 27.42 20.1086 27.7645 20.1086C27.9931 20.1086 28.2024 20.0764 28.3923 20.012C28.5823 19.9476 28.7449 19.851 28.8801 19.7222C29.0154 19.5934 29.1184 19.4357 29.1892 19.2489L31.0921 19.3745C30.9955 19.8317 30.7975 20.2309 30.498 20.5722C30.2018 20.9103 29.8187 21.1743 29.3486 21.3643C28.8817 21.551 28.3424 21.6444 27.7307 21.6444ZM34.5935 21.6396C34.1202 21.6396 33.6984 21.5575 33.3282 21.3933C32.9579 21.2258 32.6649 20.9795 32.4492 20.6543C32.2367 20.3259 32.1304 19.917 32.1304 19.4276C32.1304 19.0155 32.2061 18.6694 32.3574 18.3893C32.5088 18.1091 32.7148 17.8838 32.9756 17.7131C33.2364 17.5425 33.5326 17.4137 33.8643 17.3268C34.1991 17.2398 34.5501 17.1786 34.9171 17.1432C35.3485 17.0982 35.6963 17.0563 35.9603 17.0177C36.2243 16.9758 36.4159 16.9146 36.535 16.8341C36.6541 16.7536 36.7137 16.6345 36.7137 16.4767V16.4478C36.7137 16.1419 36.6171 15.9052 36.4239 15.7378C36.234 15.5704 35.9635 15.4867 35.6126 15.4867C35.2423 15.4867 34.9477 15.5688 34.7288 15.733C34.5098 15.894 34.3649 16.0968 34.2941 16.3415L32.3912 16.187C32.4878 15.7362 32.6778 15.3466 32.9611 15.0182C33.2445 14.6866 33.6099 14.4322 34.0574 14.2551C34.5082 14.0748 35.0298 13.9847 35.6222 13.9847C36.0343 13.9847 36.4288 14.033 36.8055 14.1296C37.1854 14.2262 37.5219 14.3759 37.8149 14.5787C38.1111 14.7816 38.3445 15.0424 38.5151 15.3611C38.6858 15.6766 38.7711 16.055 38.7711 16.4961V21.4995H36.82V20.4708H36.762C36.6429 20.7026 36.4835 20.9071 36.2839 21.0842C36.0843 21.258 35.8444 21.3949 35.5643 21.4947C35.2842 21.5913 34.9606 21.6396 34.5935 21.6396ZM35.1827 20.2197C35.4854 20.2197 35.7526 20.1601 35.9844 20.041C36.2163 19.9186 36.3982 19.7544 36.5302 19.5484C36.6622 19.3423 36.7282 19.1089 36.7282 18.8481V18.0609C36.6638 18.1027 36.5753 18.1413 36.4626 18.1768C36.3531 18.209 36.2291 18.2395 36.0907 18.2685C35.9522 18.2943 35.8138 18.3184 35.6754 18.341C35.5369 18.3603 35.4113 18.378 35.2986 18.3941C35.0572 18.4295 34.8463 18.4859 34.666 18.5631C34.4857 18.6404 34.3456 18.745 34.2458 18.8771C34.146 19.0058 34.0961 19.1668 34.0961 19.36C34.0961 19.6401 34.1975 19.8542 34.4003 20.0023C34.6064 20.1472 34.8672 20.2197 35.1827 20.2197ZM40.3673 21.4995V14.0813H42.3619V15.3756H42.4392C42.5744 14.9152 42.8014 14.5675 43.1201 14.3324C43.4389 14.0942 43.8059 13.975 44.2213 13.975C44.3243 13.975 44.4354 13.9815 44.5545 13.9943C44.6737 14.0072 44.7783 14.0249 44.8685 14.0475V15.8731C44.7719 15.8441 44.6382 15.8183 44.4676 15.7958C44.297 15.7732 44.1408 15.762 43.9991 15.762C43.6965 15.762 43.426 15.828 43.1878 15.96C42.9527 16.0888 42.766 16.2691 42.6275 16.5009C42.4923 16.7327 42.4247 17 42.4247 17.3026V21.4995H40.3673ZM47.9896 17.2108V21.4995H45.9322V14.0813H47.893V15.3901H47.9799C48.1441 14.9587 48.4194 14.6174 48.8058 14.3662C49.1921 14.1119 49.6606 13.9847 50.2112 13.9847C50.7263 13.9847 51.1755 14.0974 51.5586 14.3228C51.9418 14.5481 52.2396 14.8701 52.4521 15.2887C52.6646 15.704 52.7709 16.1999 52.7709 16.7762V21.4995H50.7135V17.1432C50.7167 16.6893 50.6008 16.3351 50.3657 16.0807C50.1307 15.8231 49.8071 15.6944 49.395 15.6944C49.1181 15.6944 48.8734 15.7539 48.6609 15.8731C48.4516 15.9922 48.2874 16.166 48.1683 16.3946C48.0524 16.62 47.9928 16.8921 47.9896 17.2108ZM57.5401 21.4995V14.0813H59.5009V15.3901H59.5878C59.7423 14.9554 59.9999 14.6125 60.3605 14.3614C60.7211 14.1103 61.1526 13.9847 61.6549 13.9847C62.1636 13.9847 62.5966 14.1119 62.954 14.3662C63.3114 14.6174 63.5497 14.9587 63.6688 15.3901H63.7461C63.8974 14.9651 64.1711 14.6254 64.5671 14.3711C64.9663 14.1135 65.438 13.9847 65.9822 13.9847C66.6744 13.9847 67.2362 14.2052 67.6677 14.6463C68.1023 15.0842 68.3197 15.7056 68.3197 16.5106V21.4995H66.2671V16.9162C66.2671 16.5041 66.1576 16.195 65.9387 15.989C65.7198 15.7829 65.4461 15.6799 65.1177 15.6799C64.7442 15.6799 64.4528 15.799 64.2435 16.0373C64.0342 16.2723 63.9296 16.583 63.9296 16.9694V21.4995H61.935V16.8728C61.935 16.5089 61.8303 16.2192 61.6211 16.0035C61.415 15.7877 61.1429 15.6799 60.8049 15.6799C60.5763 15.6799 60.3702 15.7378 60.1867 15.8537C60.0064 15.9664 59.8631 16.1258 59.7568 16.3319C59.6506 16.5347 59.5975 16.773 59.5975 17.0466V21.4995H57.5401ZM73.2966 21.6444C72.5464 21.6444 71.8976 21.485 71.3502 21.1663C70.8061 20.8443 70.3859 20.3968 70.0897 19.8236C69.7935 19.2473 69.6454 18.5792 69.6454 17.8194C69.6454 17.0531 69.7935 16.3834 70.0897 15.8103C70.3859 15.2339 70.8061 14.7864 71.3502 14.4676C71.8976 14.1457 72.5464 13.9847 73.2966 13.9847C74.0468 13.9847 74.6939 14.1457 75.2381 14.4676C75.7854 14.7864 76.2072 15.2339 76.5034 15.8103C76.7996 16.3834 76.9477 17.0531 76.9477 17.8194C76.9477 18.5792 76.7996 19.2473 76.5034 19.8236C76.2072 20.3968 75.7854 20.8443 75.2381 21.1663C74.6939 21.485 74.0468 21.6444 73.2966 21.6444ZM73.3062 20.0506C73.6475 20.0506 73.9325 19.954 74.1611 19.7609C74.3897 19.5645 74.5619 19.2972 74.6778 18.9592C74.797 18.6211 74.8565 18.2363 74.8565 17.8049C74.8565 17.3734 74.797 16.9887 74.6778 16.6506C74.5619 16.3125 74.3897 16.0453 74.1611 15.8489C73.9325 15.6525 73.6475 15.5543 73.3062 15.5543C72.9617 15.5543 72.6719 15.6525 72.4369 15.8489C72.2051 16.0453 72.0296 16.3125 71.9105 16.6506C71.7946 16.9887 71.7366 17.3734 71.7366 17.8049C71.7366 18.2363 71.7946 18.6211 71.9105 18.9592C72.0296 19.2972 72.2051 19.5645 72.4369 19.7609C72.6719 19.954 72.9617 20.0506 73.3062 20.0506ZM78.2855 21.4995V14.0813H80.2801V15.3756H80.3574C80.4926 14.9152 80.7196 14.5675 81.0384 14.3324C81.3571 14.0942 81.7242 13.975 82.1395 13.975C82.2426 13.975 82.3536 13.9815 82.4728 13.9943C82.5919 14.0072 82.6965 14.0249 82.7867 14.0475V15.8731C82.6901 15.8441 82.5565 15.8183 82.3858 15.7958C82.2152 15.7732 82.059 15.762 81.9174 15.762C81.6147 15.762 81.3443 15.828 81.106 15.96C80.871 16.0888 80.6842 16.2691 80.5458 16.5009C80.4105 16.7327 80.3429 17 80.3429 17.3026V21.4995H78.2855ZM86.8858 21.6444C86.1227 21.6444 85.4659 21.4899 84.9153 21.1808C84.368 20.8684 83.9462 20.4273 83.65 19.8575C83.3538 19.2843 83.2056 18.6066 83.2056 17.8242C83.2056 17.0611 83.3538 16.3914 83.65 15.8151C83.9462 15.2388 84.3631 14.7896 84.9008 14.4676C85.4417 14.1457 86.076 13.9847 86.8037 13.9847C87.2931 13.9847 87.7487 14.0636 88.1705 14.2213C88.5955 14.3759 88.9657 14.6093 89.2813 14.9216C89.6 15.2339 89.8479 15.6267 90.025 16.1C90.2021 16.5701 90.2906 17.1207 90.2906 17.7518V18.3168H84.0267V17.0418H88.354C88.354 16.7456 88.2896 16.4832 88.1608 16.2546C88.032 16.026 87.8533 15.8473 87.6247 15.7185C87.3993 15.5865 87.1369 15.5205 86.8375 15.5205C86.5252 15.5205 86.2483 15.5929 86.0068 15.7378C85.7685 15.8795 85.5818 16.0711 85.4466 16.3125C85.3113 16.5508 85.2421 16.8164 85.2389 17.1094V18.3216C85.2389 18.6887 85.3065 19.0058 85.4417 19.2731C85.5802 19.5403 85.775 19.7464 86.0261 19.8913C86.2773 20.0361 86.5751 20.1086 86.9196 20.1086C87.1482 20.1086 87.3575 20.0764 87.5474 20.012C87.7374 19.9476 87.9 19.851 88.0352 19.7222C88.1705 19.5934 88.2735 19.4357 88.3443 19.2489L90.2472 19.3745C90.1506 19.8317 89.9526 20.2309 89.6531 20.5722C89.3569 20.9103 88.9738 21.1743 88.5037 21.3643C88.0368 21.551 87.4975 21.6444 86.8858 21.6444Z" fill="#F2F2F2"/>
</g>
</svg>
