<svg width="166" height="36" viewBox="0 0 166 36" fill="none" xmlns="http://www.w3.org/2000/svg">
<mask id="mask0_3_2286" style="mask-type:luminance" maskUnits="userSpaceOnUse" x="0" y="0" width="166" height="37">
<path d="M18 0C8.128 0 0.11 7.949 0 17.795V18.204C0.11 28.052 8.128 36.001 18 36.001H148C157.942 36.001 165.999 27.942 165.999 17.999C165.999 8.059 157.942 0 148 0H18Z" fill="white"/>
</mask>
<g mask="url(#mask0_3_2286)">
<path d="M16.85 22.5005V12.7492H20.6971C21.4367 12.7492 22.0668 12.8905 22.5874 13.173C23.108 13.4523 23.5047 13.8412 23.7777 14.3395C24.0539 14.8347 24.192 15.4061 24.192 16.0536C24.192 16.7012 24.0523 17.2725 23.773 17.7677C23.4936 18.2629 23.0889 18.6486 22.5588 18.9247C22.0319 19.2009 21.3939 19.3389 20.6448 19.3389H18.1927V17.6868H20.3115C20.7082 17.6868 21.0352 17.6185 21.2923 17.482C21.5526 17.3424 21.7462 17.1503 21.8732 16.9059C22.0033 16.6583 22.0684 16.3742 22.0684 16.0536C22.0684 15.7298 22.0033 15.4473 21.8732 15.2061C21.7462 14.9617 21.5526 14.7728 21.2923 14.6395C21.032 14.503 20.7019 14.4348 20.3019 14.4348H18.9116V22.5005H16.85ZM25.493 22.5005V15.187H27.4594V16.4631H27.5356C27.6689 16.0092 27.8927 15.6664 28.207 15.4346C28.5212 15.1997 28.8831 15.0823 29.2926 15.0823C29.3941 15.0823 29.5037 15.0886 29.6211 15.1013C29.7385 15.114 29.8417 15.1315 29.9306 15.1537V16.9535C29.8354 16.9249 29.7036 16.8995 29.5354 16.8773C29.3672 16.8551 29.2132 16.844 29.0735 16.844C28.7752 16.844 28.5085 16.9091 28.2736 17.0392C28.0419 17.1662 27.8578 17.3439 27.7213 17.5725C27.588 17.801 27.5213 18.0645 27.5213 18.3629V22.5005H25.493ZM30.9793 22.5005V15.187H33.0076V22.5005H30.9793ZM31.9982 14.2443C31.6967 14.2443 31.438 14.1443 31.2221 13.9443C31.0094 13.7412 30.9031 13.4984 30.9031 13.2158C30.9031 12.9365 31.0094 12.6969 31.2221 12.4969C31.438 12.2937 31.6967 12.1922 31.9982 12.1922C32.2998 12.1922 32.5569 12.2937 32.7695 12.4969C32.9854 12.6969 33.0933 12.9365 33.0933 13.2158C33.0933 13.4984 32.9854 13.7412 32.7695 13.9443C32.5569 14.1443 32.2998 14.2443 31.9982 14.2443ZM41.4507 15.187L38.8938 22.5005H36.6084L34.0515 15.187H36.1942L37.713 20.4198H37.7892L39.3033 15.187H41.4507ZM44.3777 22.6386C43.9111 22.6386 43.4953 22.5576 43.1303 22.3957C42.7652 22.2307 42.4764 21.9878 42.2637 21.6673C42.0542 21.3435 41.9494 20.9404 41.9494 20.4579C41.9494 20.0516 42.024 19.7103 42.1732 19.4342C42.3224 19.158 42.5256 18.9358 42.7827 18.7676C43.0398 18.5994 43.3318 18.4724 43.6588 18.3867C43.9889 18.301 44.3349 18.2407 44.6967 18.2057C45.1221 18.1613 45.4649 18.12 45.7252 18.082C45.9855 18.0407 46.1743 17.9804 46.2918 17.901C46.4092 17.8217 46.468 17.7042 46.468 17.5487V17.5201C46.468 17.2186 46.3727 16.9853 46.1823 16.8202C45.995 16.6551 45.7284 16.5726 45.3824 16.5726C45.0173 16.5726 44.7269 16.6535 44.511 16.8154C44.2952 16.9741 44.1524 17.1741 44.0825 17.4154L42.2065 17.263C42.3018 16.8186 42.4891 16.4345 42.7684 16.1108C43.0477 15.7838 43.408 15.533 43.8492 15.3585C44.2936 15.1807 44.8078 15.0918 45.3919 15.0918C45.7982 15.0918 46.187 15.1394 46.5584 15.2347C46.933 15.3299 47.2647 15.4775 47.5535 15.6775C47.8456 15.8774 48.0757 16.1346 48.2439 16.4488C48.4122 16.7599 48.4963 17.1329 48.4963 17.5677V22.5005H46.5727V21.4863H46.5156C46.3981 21.7149 46.241 21.9164 46.0442 22.091C45.8474 22.2624 45.6109 22.3973 45.3348 22.4957C45.0586 22.591 44.7396 22.6386 44.3777 22.6386ZM44.9586 21.2387C45.257 21.2387 45.5205 21.18 45.749 21.0626C45.9775 20.9419 46.1569 20.7801 46.287 20.5769C46.4172 20.3738 46.4822 20.1436 46.4822 19.8865V19.1104C46.4188 19.1517 46.3315 19.1898 46.2204 19.2247C46.1124 19.2564 45.9902 19.2866 45.8537 19.3151C45.7173 19.3405 45.5808 19.3643 45.4443 19.3866C45.3078 19.4056 45.184 19.4231 45.0729 19.4389C44.8348 19.4739 44.6269 19.5294 44.4491 19.6056C44.2714 19.6818 44.1333 19.7849 44.0349 19.9151C43.9365 20.042 43.8873 20.2008 43.8873 20.3912C43.8873 20.6674 43.9873 20.8785 44.1873 21.0245C44.3904 21.1673 44.6475 21.2387 44.9586 21.2387ZM53.9599 15.187V16.7107H49.5557V15.187H53.9599ZM50.5556 13.4349H52.5839V20.2531C52.5839 20.4404 52.6125 20.5864 52.6696 20.6912C52.7268 20.7927 52.8061 20.8642 52.9077 20.9054C53.0124 20.9467 53.1331 20.9673 53.2696 20.9673C53.3648 20.9673 53.46 20.9594 53.5552 20.9435C53.6505 20.9245 53.7235 20.9102 53.7743 20.9007L54.0933 22.41C53.9917 22.4418 53.8489 22.4783 53.6647 22.5195C53.4806 22.564 53.2569 22.591 52.9934 22.6005C52.5046 22.6195 52.076 22.5545 51.7078 22.4053C51.3428 22.2561 51.0587 22.0244 50.8555 21.7101C50.6524 21.3959 50.5524 20.9991 50.5556 20.5198V13.4349ZM58.5356 22.6433C57.7833 22.6433 57.1358 22.491 56.593 22.1862C56.0534 21.8783 55.6375 21.4435 55.3455 20.8816C55.0535 20.3166 54.9075 19.6484 54.9075 18.8771C54.9075 18.1248 55.0535 17.4646 55.3455 16.8964C55.6375 16.3282 56.0486 15.8854 56.5787 15.568C57.112 15.2505 57.7373 15.0918 58.4547 15.0918C58.9371 15.0918 59.3863 15.1696 59.8021 15.3251C60.2211 15.4775 60.5862 15.7076 60.8972 16.0155C61.2115 16.3234 61.4559 16.7107 61.6305 17.1773C61.8051 17.6407 61.8924 18.1835 61.8924 18.8057V19.3628H55.7169V18.1058H59.9831C59.9831 17.8137 59.9196 17.555 59.7926 17.3297C59.6656 17.1043 59.4895 16.9281 59.2641 16.8011C59.0419 16.671 58.7832 16.6059 58.488 16.6059C58.1801 16.6059 57.9071 16.6774 57.669 16.8202C57.4341 16.9599 57.25 17.1487 57.1167 17.3868C56.9834 17.6217 56.9152 17.8836 56.912 18.1724V19.3675C56.912 19.7294 56.9786 20.042 57.112 20.3055C57.2485 20.569 57.4405 20.7721 57.6881 20.915C57.9357 21.0578 58.2293 21.1292 58.5689 21.1292C58.7943 21.1292 59.0006 21.0975 59.1879 21.034C59.3752 20.9705 59.5355 20.8753 59.6688 20.7483C59.8021 20.6213 59.9037 20.4658 59.9735 20.2817L61.8495 20.4055C61.7543 20.8562 61.5591 21.2498 61.2639 21.5863C60.9718 21.9196 60.5941 22.1799 60.1307 22.3672C59.6704 22.5513 59.1387 22.6433 58.5356 22.6433ZM66.3192 22.5005V15.187H68.2523V16.4774H68.338C68.4904 16.0489 68.7443 15.7108 69.0999 15.4632C69.4554 15.2156 69.8807 15.0918 70.3759 15.0918C70.8774 15.0918 71.3044 15.2172 71.6567 15.468C72.009 15.7156 72.2439 16.052 72.3614 16.4774H72.4376C72.5868 16.0584 72.8566 15.7235 73.247 15.4727C73.6406 15.2188 74.1056 15.0918 74.6421 15.0918C75.3245 15.0918 75.8784 15.3093 76.3038 15.7441C76.7323 16.1758 76.9466 16.7885 76.9466 17.582V22.5005H74.923V17.982C74.923 17.5757 74.8151 17.2709 74.5992 17.0678C74.3834 16.8646 74.1136 16.7631 73.7898 16.7631C73.4216 16.7631 73.1343 16.8805 72.928 17.1154C72.7217 17.3471 72.6185 17.6534 72.6185 18.0343V22.5005H70.6521V17.9391C70.6521 17.5804 70.5489 17.2947 70.3426 17.0821C70.1394 16.8694 69.8712 16.7631 69.5379 16.7631C69.3125 16.7631 69.1094 16.8202 68.9285 16.9345C68.7507 17.0456 68.6094 17.2027 68.5047 17.4058C68.3999 17.6058 68.3476 17.8407 68.3476 18.1105V22.5005H66.3192ZM81.8817 22.6433C81.1294 22.6433 80.4819 22.491 79.9391 22.1862C79.3995 21.8783 78.9836 21.4435 78.6916 20.8816C78.3996 20.3166 78.2536 19.6484 78.2536 18.8771C78.2536 18.1248 78.3996 17.4646 78.6916 16.8964C78.9836 16.3282 79.3947 15.8854 79.9248 15.568C80.4581 15.2505 81.0834 15.0918 81.8008 15.0918C82.2833 15.0918 82.7324 15.1696 83.1482 15.3251C83.5672 15.4775 83.9323 15.7076 84.2433 16.0155C84.5576 16.3234 84.802 16.7107 84.9766 17.1773C85.1512 17.6407 85.2385 18.1835 85.2385 18.8057V19.3628H79.063V18.1058H83.3292C83.3292 17.8137 83.2657 17.555 83.1387 17.3297C83.0117 17.1043 82.8356 16.9281 82.6102 16.8011C82.388 16.671 82.1293 16.6059 81.8341 16.6059C81.5262 16.6059 81.2532 16.6774 81.0151 16.8202C80.7803 16.9599 80.5961 17.1487 80.4628 17.3868C80.3295 17.6217 80.2613 17.8836 80.2581 18.1724V19.3675C80.2581 19.7294 80.3247 20.042 80.4581 20.3055C80.5946 20.569 80.7866 20.7721 81.0342 20.915C81.2818 21.0578 81.5754 21.1292 81.915 21.1292C82.1404 21.1292 82.3467 21.0975 82.534 21.034C82.7213 20.9705 82.8816 20.8753 83.0149 20.7483C83.1482 20.6213 83.2498 20.4658 83.3196 20.2817L85.1956 20.4055C85.1004 20.8562 84.9052 21.2498 84.61 21.5863C84.3179 21.9196 83.9402 22.1799 83.4768 22.3672C83.0165 22.5513 82.4848 22.6433 81.8817 22.6433ZM86.5621 22.5005V15.187H88.4952V16.4774H88.5809C88.7333 16.0489 88.9872 15.7108 89.3428 15.4632C89.6983 15.2156 90.1236 15.0918 90.6188 15.0918C91.1203 15.0918 91.5473 15.2172 91.8996 15.468C92.2519 15.7156 92.4868 16.052 92.6043 16.4774H92.6805C92.8297 16.0584 93.0995 15.7235 93.4899 15.4727C93.8835 15.2188 94.3485 15.0918 94.885 15.0918C95.5674 15.0918 96.1213 15.3093 96.5467 15.7441C96.9752 16.1758 97.1895 16.7885 97.1895 17.582V22.5005H95.1659V17.982C95.1659 17.5757 95.058 17.2709 94.8421 17.0678C94.6263 16.8646 94.3565 16.7631 94.0327 16.7631C93.6645 16.7631 93.3772 16.8805 93.1709 17.1154C92.9646 17.3471 92.8614 17.6534 92.8614 18.0343V22.5005H90.895V17.9391C90.895 17.5804 90.7918 17.2947 90.5855 17.0821C90.3823 16.8694 90.1141 16.7631 89.7808 16.7631C89.5554 16.7631 89.3523 16.8202 89.1713 16.9345C88.9936 17.0456 88.8523 17.2027 88.7476 17.4058C88.6428 17.6058 88.5905 17.8407 88.5905 18.1105V22.5005H86.5621ZM98.8298 22.5005V12.7492H100.858V16.4155H100.92C101.009 16.2187 101.137 16.0187 101.306 15.8155C101.477 15.6092 101.699 15.4378 101.972 15.3013C102.248 15.1617 102.591 15.0918 103.001 15.0918C103.534 15.0918 104.026 15.2315 104.477 15.5108C104.927 15.787 105.288 16.2044 105.558 16.7631C105.827 17.3185 105.962 18.0153 105.962 18.8533C105.962 19.6691 105.831 20.3579 105.567 20.9197C105.307 21.4784 104.951 21.9021 104.501 22.191C104.053 22.4767 103.551 22.6195 102.996 22.6195C102.602 22.6195 102.267 22.5545 101.991 22.4243C101.718 22.2942 101.495 22.1307 101.32 21.9339C101.145 21.7339 101.012 21.5323 100.92 21.3292H100.83V22.5005H98.8298ZM100.815 18.8438C100.815 19.2786 100.876 19.658 100.996 19.9817C101.117 20.3055 101.291 20.5579 101.52 20.7388C101.748 20.9165 102.026 21.0054 102.353 21.0054C102.683 21.0054 102.963 20.915 103.191 20.734C103.42 20.5499 103.593 20.296 103.71 19.9722C103.831 19.6453 103.891 19.2691 103.891 18.8438C103.891 18.4216 103.832 18.0502 103.715 17.7296C103.597 17.409 103.424 17.1582 103.196 16.9773C102.967 16.7964 102.686 16.7059 102.353 16.7059C102.023 16.7059 101.744 16.7932 101.515 16.9678C101.29 17.1424 101.117 17.39 100.996 17.7106C100.876 18.0312 100.815 18.4089 100.815 18.8438ZM110.649 22.6433C109.896 22.6433 109.249 22.491 108.706 22.1862C108.166 21.8783 107.751 21.4435 107.459 20.8816C107.166 20.3166 107.02 19.6484 107.02 18.8771C107.02 18.1248 107.166 17.4646 107.459 16.8964C107.751 16.3282 108.162 15.8854 108.692 15.568C109.225 15.2505 109.85 15.0918 110.568 15.0918C111.05 15.0918 111.499 15.1696 111.915 15.3251C112.334 15.4775 112.699 15.7076 113.01 16.0155C113.324 16.3234 113.569 16.7107 113.743 17.1773C113.918 17.6407 114.005 18.1835 114.005 18.8057V19.3628H107.83V18.1058H112.096C112.096 17.8137 112.033 17.555 111.906 17.3297C111.779 17.1043 111.602 16.9281 111.377 16.8011C111.155 16.671 110.896 16.6059 110.601 16.6059C110.293 16.6059 110.02 16.6774 109.782 16.8202C109.547 16.9599 109.363 17.1487 109.23 17.3868C109.096 17.6217 109.028 17.8836 109.025 18.1724V19.3675C109.025 19.7294 109.092 20.042 109.225 20.3055C109.361 20.569 109.554 20.7721 109.801 20.915C110.049 21.0578 110.342 21.1292 110.682 21.1292C110.907 21.1292 111.114 21.0975 111.301 21.034C111.488 20.9705 111.649 20.8753 111.782 20.7483C111.915 20.6213 112.017 20.4658 112.087 20.2817L113.963 20.4055C113.867 20.8562 113.672 21.2498 113.377 21.5863C113.085 21.9196 112.707 22.1799 112.244 22.3672C111.783 22.5513 111.252 22.6433 110.649 22.6433ZM115.329 22.5005V15.187H117.295V16.4631H117.372C117.505 16.0092 117.729 15.6664 118.043 15.4346C118.357 15.1997 118.719 15.0823 119.129 15.0823C119.23 15.0823 119.34 15.0886 119.457 15.1013C119.575 15.114 119.678 15.1315 119.767 15.1537V16.9535C119.671 16.9249 119.54 16.8995 119.371 16.8773C119.203 16.8551 119.049 16.844 118.91 16.844C118.611 16.844 118.345 16.9091 118.11 17.0392C117.878 17.1662 117.694 17.3439 117.557 17.5725C117.424 17.801 117.357 18.0645 117.357 18.3629V22.5005H115.329ZM126.9 17.2725L125.043 17.3868C125.012 17.2281 124.943 17.0852 124.839 16.9583C124.734 16.8281 124.596 16.725 124.424 16.6488C124.256 16.5694 124.055 16.5298 123.82 16.5298C123.505 16.5298 123.24 16.5964 123.025 16.7297C122.809 16.8599 122.701 17.0345 122.701 17.2535C122.701 17.4281 122.771 17.5757 122.91 17.6963C123.05 17.8169 123.29 17.9137 123.629 17.9867L124.953 18.2534C125.664 18.3994 126.194 18.6343 126.543 18.958C126.892 19.2818 127.067 19.7072 127.067 20.2341C127.067 20.7134 126.926 21.134 126.643 21.4958C126.364 21.8577 125.98 22.1402 125.491 22.3434C125.005 22.5433 124.445 22.6433 123.81 22.6433C122.842 22.6433 122.071 22.4418 121.496 22.0386C120.925 21.6323 120.59 21.08 120.492 20.3817L122.487 20.2769C122.547 20.5721 122.693 20.7975 122.925 20.953C123.156 21.1054 123.453 21.1816 123.815 21.1816C124.17 21.1816 124.456 21.1133 124.672 20.9769C124.891 20.8372 125.002 20.6578 125.005 20.4388C125.002 20.2547 124.924 20.1039 124.772 19.9865C124.62 19.8659 124.385 19.7738 124.067 19.7103L122.801 19.458C122.087 19.3151 121.555 19.0676 121.206 18.7152C120.86 18.3629 120.687 17.9137 120.687 17.3677C120.687 16.898 120.814 16.4932 121.068 16.1536C121.325 15.814 121.685 15.5521 122.148 15.368C122.615 15.1839 123.161 15.0918 123.786 15.0918C124.71 15.0918 125.437 15.287 125.967 15.6775C126.5 16.0679 126.811 16.5996 126.9 17.2725ZM130.373 18.2724V22.5005H128.344V12.7492H130.315V16.4774H130.401C130.566 16.0457 130.833 15.7076 131.201 15.4632C131.569 15.2156 132.031 15.0918 132.587 15.0918C133.094 15.0918 133.537 15.2029 133.915 15.4251C134.296 15.6441 134.591 15.96 134.801 16.3726C135.013 16.7821 135.118 17.2725 135.115 17.8439V22.5005H133.086V18.2057C133.09 17.755 132.975 17.4043 132.744 17.1535C132.515 16.9027 132.195 16.7773 131.782 16.7773C131.506 16.7773 131.261 16.8361 131.049 16.9535C130.839 17.071 130.674 17.2424 130.553 17.4677C130.436 17.6899 130.376 17.9582 130.373 18.2724ZM136.711 22.5005V15.187H138.739V22.5005H136.711ZM137.73 14.2443C137.428 14.2443 137.17 14.1443 136.954 13.9443C136.741 13.7412 136.635 13.4984 136.635 13.2158C136.635 12.9365 136.741 12.6969 136.954 12.4969C137.17 12.2937 137.428 12.1922 137.73 12.1922C138.032 12.1922 138.289 12.2937 138.501 12.4969C138.717 12.6969 138.825 12.9365 138.825 13.2158C138.825 13.4984 138.717 13.7412 138.501 13.9443C138.289 14.1443 138.032 14.2443 137.73 14.2443ZM140.364 25.243V15.187H142.364V16.4155H142.454C142.543 16.2187 142.672 16.0187 142.84 15.8155C143.012 15.6092 143.234 15.4378 143.507 15.3013C143.783 15.1617 144.126 15.0918 144.535 15.0918C145.068 15.0918 145.56 15.2315 146.011 15.5108C146.462 15.787 146.822 16.2044 147.092 16.7631C147.362 17.3185 147.497 18.0153 147.497 18.8533C147.497 19.6691 147.365 20.3579 147.102 20.9197C146.841 21.4784 146.486 21.9021 146.035 22.191C145.587 22.4767 145.086 22.6195 144.53 22.6195C144.137 22.6195 143.802 22.5545 143.526 22.4243C143.253 22.2942 143.029 22.1307 142.854 21.9339C142.68 21.7339 142.547 21.5323 142.454 21.3292H142.393V25.243H140.364ZM142.35 18.8438C142.35 19.2786 142.41 19.658 142.531 19.9817C142.651 20.3055 142.826 20.5579 143.054 20.7388C143.283 20.9165 143.561 21.0054 143.888 21.0054C144.218 21.0054 144.497 20.915 144.726 20.734C144.954 20.5499 145.127 20.296 145.245 19.9722C145.365 19.6453 145.426 19.2691 145.426 18.8438C145.426 18.4216 145.367 18.0502 145.249 17.7296C145.132 17.409 144.959 17.1582 144.73 16.9773C144.502 16.7964 144.221 16.7059 143.888 16.7059C143.558 16.7059 143.278 16.7932 143.05 16.9678C142.824 17.1424 142.651 17.39 142.531 17.7106C142.41 18.0312 142.35 18.4089 142.35 18.8438Z" fill="#191919"/>
</g>
</svg>
