<svg width="16" height="11" viewBox="0 0 16 11" fill="none" xmlns="http://www.w3.org/2000/svg">
<path fill-rule="evenodd" clip-rule="evenodd" d="M0 5.063C0 4.752 0.252 4.501 0.563 4.501H13.83L10.289 0.961C10.069 0.741 10.069 0.385 10.289 0.165C10.509 -0.055 10.866 -0.055 11.086 0.165L15.586 4.665C15.692 4.77 15.751 4.914 15.751 5.063C15.751 5.212 15.692 5.356 15.586 5.461L11.086 9.961C10.866 10.181 10.509 10.181 10.29 9.961C10.07 9.741 10.07 9.385 10.289 9.165L13.83 5.625H0.563C0.252 5.625 0 5.374 0 5.063Z" fill="#191919"/>
</svg>
