<svg width="139" height="36" viewBox="0 0 139 36" fill="none" xmlns="http://www.w3.org/2000/svg">
<g clip-path="url(#clip0_3_644)">
<path fill-rule="evenodd" clip-rule="evenodd" d="M144.5 17.9966C144.5 27.9376 136.439 35.9966 126.494 35.9966H18.006C8.061 35.9966 0 27.9376 0 17.9966C0 8.05558 8.061 -0.00341797 18.006 -0.00341797H126.494C136.439 -0.00341797 144.5 8.05558 144.5 17.9966ZM143.5 17.9966C143.5 27.3856 135.886 34.9966 126.494 34.9966H18.006C8.614 34.9966 1 27.3856 1 17.9966C1 8.60758 8.614 0.996582 18.006 0.996582H126.494C135.886 0.996582 143.5 8.60758 143.5 17.9966Z" fill="white"/>
</g>
<defs>
<clipPath id="clip0_3_644">
<rect width="138.5" height="36" fill="white"/>
</clipPath>
</defs>
</svg>
