<svg width="13" height="14" viewBox="0 0 13 14" fill="none" xmlns="http://www.w3.org/2000/svg">
<g clip-path="url(#clip0_3_62)">
<path d="M6.255 0.00320759C2.803 0.00320759 0.00500488 2.80121 0.00500488 6.25321C0.00500488 9.01521 1.79901 11.3592 4.28 12.1912C4.23 11.7152 4.186 10.9652 4.336 10.4652L5.086 7.28421C5.086 7.28421 4.886 6.87821 4.886 6.28421C4.886 5.34721 5.405 4.64721 6.04201 4.64721C6.59301 4.64721 6.861 5.05921 6.861 5.55321C6.861 6.12221 6.474 6.97221 6.274 7.77821C6.118 8.44121 6.618 8.97821 7.268 8.97821C8.46101 8.97821 9.38 7.71521 9.38 5.89721C9.38 4.29721 8.26801 3.19721 6.274 3.19721C4.03 3.19721 2.711 4.83421 2.711 6.48421C2.711 7.06521 2.942 7.69021 3.243 8.04121C3.305 8.10921 3.311 8.17821 3.292 8.25321L3.118 9.06621C3.093 9.15921 3.024 9.18421 2.93 9.14021C2.074 8.74721 1.568 7.51521 1.568 6.45921C1.568 4.15921 3.243 2.05321 6.486 2.05321C9.068 2.05321 11.049 3.86621 11.049 5.87221C11.049 8.65321 9.41101 10.8902 7.093 10.8902C6.436 10.8902 5.82401 10.5532 5.63 10.1402L5.211 11.7972C5.068 12.4722 4.624 13.3472 4.361 13.8222C4.968 13.9842 5.605 14.0662 6.255 14.0662C9.707 14.0662 12.505 11.2672 12.505 7.81521C12.998 5.91021 12.565 3.88321 11.335 2.34521C10.105 0.808208 8.22301 -0.0597924 6.255 0.00320759Z" fill="#AFAFAF"/>
</g>
<defs>
<clipPath id="clip0_3_62">
<rect width="12.7" height="13.75" fill="white"/>
</clipPath>
</defs>
</svg>
