<svg width="13" height="14" viewBox="0 0 13 14" fill="none" xmlns="http://www.w3.org/2000/svg">
<g clip-path="url(#clip0_3_526)">
<path d="M6.25488 -0.00167522C2.80288 -0.00167522 0.00488281 2.79632 0.00488281 6.24832C0.00488281 9.01032 1.79888 11.3543 4.27988 12.1863C4.22988 11.7103 4.18588 10.9603 4.33588 10.4603L5.08588 7.27933C5.08588 7.27933 4.88588 6.87332 4.88588 6.27933C4.88588 5.34233 5.40488 4.64232 6.04188 4.64232C6.59288 4.64232 6.86088 5.05432 6.86088 5.54832C6.86088 6.11732 6.47388 6.96733 6.27388 7.77332C6.11788 8.43633 6.61788 8.97332 7.26788 8.97332C8.46088 8.97332 9.37988 7.71032 9.37988 5.89232C9.37988 4.29233 8.26788 3.19232 6.27388 3.19232C4.02988 3.19232 2.71088 4.82932 2.71088 6.47932C2.71088 7.06032 2.94188 7.68532 3.24288 8.03632C3.30488 8.10432 3.31088 8.17332 3.29188 8.24832L3.11788 9.06133C3.09288 9.15433 3.02388 9.17932 2.92988 9.13532C2.07388 8.74232 1.56788 7.51032 1.56788 6.45432C1.56788 4.15432 3.24288 2.04832 6.48588 2.04832C9.06788 2.04832 11.0489 3.86132 11.0489 5.86732C11.0489 8.64832 9.41088 10.8853 7.09288 10.8853C6.43588 10.8853 5.82388 10.5483 5.62988 10.1353L5.21088 11.7923C5.06788 12.4673 4.62388 13.3423 4.36088 13.8173C4.96788 13.9793 5.60488 14.0613 6.25488 14.0613C9.70688 14.0613 12.5049 11.2623 12.5049 7.81032C12.9979 5.90532 12.5649 3.87832 11.3349 2.34032C10.1049 0.803325 8.22288 -0.0646752 6.25488 -0.00167522Z" fill="#AFAFAF"/>
</g>
<defs>
<clipPath id="clip0_3_526">
<rect width="12.7" height="13.75" fill="white"/>
</clipPath>
</defs>
</svg>
