<svg width="13" height="14" viewBox="0 0 13 14" fill="none" xmlns="http://www.w3.org/2000/svg">
<g clip-path="url(#clip0_3_2415)">
<path d="M6.25488 0.00271931C2.80288 0.00271931 0.00488281 2.80072 0.00488281 6.25272C0.00488281 9.01472 1.79888 11.3587 4.27988 12.1907C4.22988 11.7147 4.18588 10.9647 4.33588 10.4647L5.08588 7.28372C5.08588 7.28372 4.88588 6.87772 4.88588 6.28372C4.88588 5.34672 5.40488 4.64672 6.04188 4.64672C6.59288 4.64672 6.86088 5.05872 6.86088 5.55272C6.86088 6.12172 6.47388 6.97172 6.27388 7.77772C6.11788 8.44072 6.61788 8.97772 7.26788 8.97772C8.46088 8.97772 9.37988 7.71472 9.37988 5.89672C9.37988 4.29672 8.26788 3.19672 6.27388 3.19672C4.02988 3.19672 2.71088 4.83372 2.71088 6.48372C2.71088 7.06472 2.94188 7.68972 3.24288 8.03972C3.30488 8.10872 3.31088 8.17772 3.29188 8.25272L3.11788 9.06572C3.09288 9.15872 3.02388 9.18372 2.92988 9.13972C2.07388 8.74672 1.56788 7.51472 1.56788 6.45872C1.56788 4.15872 3.24288 2.05272 6.48588 2.05272C9.06788 2.05272 11.0489 3.86572 11.0489 5.87172C11.0489 8.65272 9.41088 10.8897 7.09288 10.8897C6.43588 10.8897 5.82388 10.5527 5.62988 10.1397L5.21088 11.7967C5.06788 12.4717 4.62388 13.3467 4.36088 13.8217C4.96788 13.9837 5.60488 14.0657 6.25488 14.0657C9.70688 14.0657 12.5049 11.2667 12.5049 7.81472C12.9979 5.90972 12.5649 3.88272 11.3349 2.34472C10.1049 0.807719 8.22288 -0.0602807 6.25488 0.00271931Z" fill="#AFAFAF"/>
</g>
<defs>
<clipPath id="clip0_3_2415">
<rect width="12.7" height="13.75" fill="white"/>
</clipPath>
</defs>
</svg>
