<svg width="12" height="12" viewBox="0 0 12 12" fill="none" xmlns="http://www.w3.org/2000/svg">
<path d="M10.144 3.28H11.504V11.552H10.144V3.28ZM11.504 1.792H10.144V0.128H11.504V1.792ZM5.888 4.48H2.752V11.552H1.392V4.48H0V3.28H1.392V2.048C1.392 1.376 1.586 0.867 1.976 0.52C2.365 0.174 2.933 0 3.68 0C3.808 0 3.954 0.011 4.12 0.032C4.285 0.054 4.432 0.086 4.56 0.128V1.312C4.442 1.27 4.314 1.24 4.176 1.224C4.037 1.208 3.909 1.2 3.792 1.2C3.461 1.2 3.205 1.264 3.024 1.392C2.842 1.52 2.752 1.766 2.752 2.128V3.28H5.888V2.048C5.888 1.376 6.082 0.867 6.472 0.52C6.861 0.174 7.429 0 8.176 0C8.304 0 8.45 0.011 8.616 0.032C8.781 0.054 8.928 0.086 9.056 0.128V1.312C8.938 1.27 8.81 1.24 8.672 1.224C8.533 1.208 8.405 1.2 8.288 1.2C7.957 1.2 7.701 1.264 7.52 1.392C7.338 1.52 7.248 1.766 7.248 2.128V3.28H8.848V4.48H7.248V11.552H5.888V4.48Z" fill="#F2F2F2"/>
</svg>
