<svg width="15" height="15" viewBox="0 0 15 15" fill="none" xmlns="http://www.w3.org/2000/svg">
<path d="M7.5 1.351C9.503 1.351 9.74 1.359 10.531 1.395C11.262 1.428 11.659 1.55 11.923 1.653C12.273 1.789 12.523 1.951 12.786 2.214C13.048 2.476 13.211 2.726 13.347 3.076C13.449 3.341 13.572 3.738 13.605 4.469C13.641 5.26 13.649 5.497 13.649 7.5C13.649 9.502 13.641 9.739 13.605 10.53C13.572 11.261 13.449 11.659 13.347 11.923C13.211 12.273 13.048 12.523 12.786 12.785C12.523 13.048 12.273 13.21 11.923 13.346C11.659 13.449 11.262 13.571 10.531 13.604C9.74 13.641 9.503 13.648 7.5 13.648C5.497 13.648 5.26 13.641 4.469 13.604C3.738 13.571 3.341 13.449 3.077 13.346C2.727 13.21 2.477 13.048 2.214 12.785C1.952 12.523 1.789 12.273 1.653 11.923C1.551 11.659 1.428 11.261 1.395 10.53C1.359 9.739 1.351 9.502 1.351 7.5C1.351 5.497 1.359 5.26 1.395 4.469C1.428 3.738 1.551 3.341 1.653 3.076C1.789 2.726 1.952 2.476 2.214 2.214C2.477 1.951 2.727 1.789 3.077 1.653C3.341 1.55 3.738 1.428 4.469 1.395C5.26 1.359 5.497 1.351 7.5 1.351ZM7.5 0C5.463 0 5.208 0.008 4.408 0.045C3.609 0.081 3.064 0.208 2.587 0.393C2.094 0.585 1.676 0.841 1.259 1.258C0.842 1.675 0.585 2.094 0.394 2.587C0.208 3.064 0.082 3.609 0.045 4.407C0.009 5.207 0 5.463 0 7.5C0 9.536 0.009 9.792 0.045 10.592C0.082 11.39 0.208 11.935 0.394 12.412C0.585 12.906 0.842 13.324 1.259 13.741C1.676 14.158 2.094 14.414 2.587 14.606C3.064 14.791 3.609 14.918 4.408 14.954C5.208 14.991 5.463 15 7.5 15C9.537 15 9.792 14.991 10.592 14.954C11.391 14.918 11.936 14.791 12.413 14.606C12.906 14.414 13.324 14.158 13.741 13.741C14.158 13.324 14.415 12.906 14.606 12.412C14.792 11.935 14.918 11.39 14.955 10.592C14.991 9.792 15 9.536 15 7.5C15 5.463 14.991 5.207 14.955 4.407C14.918 3.609 14.792 3.064 14.606 2.587C14.415 2.094 14.158 1.675 13.741 1.258C13.324 0.841 12.906 0.585 12.413 0.393C11.936 0.208 11.391 0.081 10.592 0.045C9.792 0.008 9.537 0 7.5 0ZM7.5 3.648C5.373 3.648 3.649 5.373 3.649 7.5C3.649 9.627 5.373 11.351 7.5 11.351C9.627 11.351 11.351 9.627 11.351 7.5C11.351 5.373 9.627 3.648 7.5 3.648ZM7.5 10C6.119 10 5 8.88 5 7.5C5 6.119 6.119 5 7.5 5C8.881 5 10 6.119 10 7.5C10 8.88 8.881 10 7.5 10ZM12.404 3.496C12.404 3.993 12.001 4.396 11.504 4.396C11.006 4.396 10.604 3.993 10.604 3.496C10.604 2.999 11.006 2.596 11.504 2.596C12.001 2.596 12.404 2.999 12.404 3.496Z" fill="#AFAFAF"/>
</svg>
