<svg width="109" height="34" viewBox="0 0 109 34" fill="none" xmlns="http://www.w3.org/2000/svg">
<mask id="mask0_3_2268" style="mask-type:luminance" maskUnits="userSpaceOnUse" x="0" y="0" width="109" height="34">
<path d="M16.963 0C7.651 0 0.091 7.52 0 16.832V17.17C0.091 26.48 7.651 34 16.963 34H91.537C100.905 34 108.5 26.389 108.5 17.001C108.5 7.612 100.905 0 91.537 0H16.963Z" fill="white"/>
</mask>
<g mask="url(#mask0_3_2268)">
<path d="M16.6722 21.5V11.609H18.7634V19.7758H23.0037V21.5H16.6722ZM27.7307 21.6449C26.9676 21.6449 26.3108 21.4903 25.7602 21.1812C25.2129 20.8689 24.7911 20.4278 24.4949 19.8579C24.1987 19.2848 24.0506 18.6071 24.0506 17.8247C24.0506 17.0616 24.1987 16.3919 24.4949 15.8156C24.7911 15.2393 25.208 14.7901 25.7457 14.4681C26.2866 14.1462 26.9209 13.9852 27.6486 13.9852C28.138 13.9852 28.5936 14.0641 29.0154 14.2218C29.4404 14.3764 29.8106 14.6098 30.1262 14.9221C30.4449 15.2344 30.6928 15.6272 30.8699 16.1005C31.047 16.5706 31.1355 17.1212 31.1355 17.7522V18.3173H24.8716V17.0423H29.1989C29.1989 16.7461 29.1345 16.4837 29.0057 16.2551C28.8769 16.0265 28.6982 15.8478 28.4696 15.719C28.2442 15.587 27.9818 15.521 27.6824 15.521C27.3701 15.521 27.0932 15.5934 26.8517 15.7383C26.6135 15.88 26.4267 16.0716 26.2915 16.313C26.1563 16.5513 26.087 16.8169 26.0838 17.1099V18.3221C26.0838 18.6892 26.1514 19.0063 26.2866 19.2736C26.4251 19.5408 26.6199 19.7469 26.871 19.8918C27.1222 20.0366 27.42 20.1091 27.7645 20.1091C27.9931 20.1091 28.2024 20.0769 28.3923 20.0125C28.5823 19.9481 28.7449 19.8515 28.8801 19.7227C29.0154 19.5939 29.1184 19.4362 29.1892 19.2494L31.0921 19.375C30.9955 19.8322 30.7975 20.2314 30.498 20.5727C30.2018 20.9108 29.8187 21.1748 29.3486 21.3648C28.8817 21.5515 28.3424 21.6449 27.7307 21.6449ZM34.5935 21.6401C34.1202 21.6401 33.6984 21.558 33.3282 21.3937C32.9579 21.2263 32.6649 20.98 32.4492 20.6548C32.2367 20.3264 32.1304 19.9175 32.1304 19.4281C32.1304 19.016 32.2061 18.6699 32.3574 18.3898C32.5088 18.1096 32.7148 17.8843 32.9756 17.7136C33.2364 17.543 33.5326 17.4142 33.8643 17.3272C34.1991 17.2403 34.5501 17.1791 34.9171 17.1437C35.3485 17.0986 35.6963 17.0568 35.9603 17.0182C36.2243 16.9763 36.4159 16.9151 36.535 16.8346C36.6541 16.7541 36.7137 16.635 36.7137 16.4772V16.4483C36.7137 16.1424 36.6171 15.9057 36.4239 15.7383C36.234 15.5709 35.9635 15.4872 35.6126 15.4872C35.2423 15.4872 34.9477 15.5693 34.7288 15.7335C34.5098 15.8945 34.3649 16.0973 34.2941 16.342L32.3912 16.1875C32.4878 15.7367 32.6778 15.3471 32.9611 15.0187C33.2445 14.6871 33.6099 14.4327 34.0574 14.2556C34.5082 14.0753 35.0298 13.9852 35.6222 13.9852C36.0343 13.9852 36.4288 14.0335 36.8055 14.1301C37.1854 14.2267 37.5219 14.3764 37.8149 14.5792C38.1111 14.7821 38.3445 15.0429 38.5151 15.3616C38.6858 15.6771 38.7711 16.0555 38.7711 16.4966V21.5H36.82V20.4713H36.762C36.6429 20.7031 36.4835 20.9076 36.2839 21.0847C36.0843 21.2585 35.8444 21.3954 35.5643 21.4952C35.2842 21.5918 34.9606 21.6401 34.5935 21.6401ZM35.1827 20.2202C35.4854 20.2202 35.7526 20.1606 35.9844 20.0415C36.2163 19.9191 36.3982 19.7549 36.5302 19.5489C36.6622 19.3428 36.7282 19.1094 36.7282 18.8486V18.0613C36.6638 18.1032 36.5753 18.1418 36.4626 18.1772C36.3531 18.2094 36.2291 18.24 36.0907 18.269C35.9522 18.2948 35.8138 18.3189 35.6754 18.3415C35.5369 18.3608 35.4113 18.3785 35.2986 18.3946C35.0572 18.43 34.8463 18.4863 34.666 18.5636C34.4857 18.6409 34.3456 18.7455 34.2458 18.8775C34.146 19.0063 34.0961 19.1673 34.0961 19.3605C34.0961 19.6406 34.1975 19.8547 34.4003 20.0028C34.6064 20.1477 34.8672 20.2202 35.1827 20.2202ZM40.3673 21.5V14.0818H42.3619V15.3761H42.4392C42.5744 14.9157 42.8014 14.5679 43.1201 14.3329C43.4389 14.0946 43.8059 13.9755 44.2213 13.9755C44.3243 13.9755 44.4354 13.982 44.5545 13.9948C44.6737 14.0077 44.7783 14.0254 44.8685 14.048V15.8735C44.7719 15.8446 44.6382 15.8188 44.4676 15.7963C44.297 15.7737 44.1408 15.7625 43.9991 15.7625C43.6965 15.7625 43.426 15.8285 43.1878 15.9605C42.9527 16.0893 42.766 16.2696 42.6275 16.5014C42.4923 16.7332 42.4247 17.0004 42.4247 17.3031V21.5H40.3673ZM47.9896 17.2113V21.5H45.9322V14.0818H47.893V15.3906H47.9799C48.1441 14.9591 48.4194 14.6178 48.8058 14.3667C49.1921 14.1124 49.6606 13.9852 50.2112 13.9852C50.7263 13.9852 51.1755 14.0979 51.5586 14.3232C51.9418 14.5486 52.2396 14.8706 52.4521 15.2892C52.6646 15.7045 52.7709 16.2003 52.7709 16.7767V21.5H50.7135V17.1437C50.7167 16.6897 50.6008 16.3356 50.3657 16.0812C50.1307 15.8236 49.8071 15.6948 49.395 15.6948C49.1181 15.6948 48.8734 15.7544 48.6609 15.8735C48.4516 15.9927 48.2874 16.1665 48.1683 16.3951C48.0524 16.6205 47.9928 16.8926 47.9896 17.2113ZM57.5401 21.5V14.0818H59.5009V15.3906H59.5878C59.7423 14.9559 59.9999 14.613 60.3605 14.3619C60.7211 14.1107 61.1526 13.9852 61.6549 13.9852C62.1636 13.9852 62.5966 14.1124 62.954 14.3667C63.3114 14.6178 63.5497 14.9591 63.6688 15.3906H63.7461C63.8974 14.9656 64.1711 14.6259 64.5671 14.3715C64.9663 14.114 65.438 13.9852 65.9822 13.9852C66.6744 13.9852 67.2362 14.2057 67.6677 14.6468C68.1023 15.0847 68.3197 15.7061 68.3197 16.511V21.5H66.2671V16.9167C66.2671 16.5046 66.1576 16.1955 65.9387 15.9895C65.7198 15.7834 65.4461 15.6804 65.1177 15.6804C64.7442 15.6804 64.4528 15.7995 64.2435 16.0377C64.0342 16.2728 63.9296 16.5835 63.9296 16.9699V21.5H61.935V16.8733C61.935 16.5094 61.8303 16.2197 61.6211 16.0039C61.415 15.7882 61.1429 15.6804 60.8049 15.6804C60.5763 15.6804 60.3702 15.7383 60.1867 15.8542C60.0064 15.9669 59.8631 16.1263 59.7568 16.3324C59.6506 16.5352 59.5975 16.7735 59.5975 17.0471V21.5H57.5401ZM73.2966 21.6449C72.5464 21.6449 71.8976 21.4855 71.3502 21.1668C70.8061 20.8448 70.3859 20.3972 70.0897 19.8241C69.7935 19.2478 69.6454 18.5797 69.6454 17.8199C69.6454 17.0536 69.7935 16.3839 70.0897 15.8108C70.3859 15.2344 70.8061 14.7869 71.3502 14.4681C71.8976 14.1462 72.5464 13.9852 73.2966 13.9852C74.0468 13.9852 74.6939 14.1462 75.2381 14.4681C75.7854 14.7869 76.2072 15.2344 76.5034 15.8108C76.7996 16.3839 76.9477 17.0536 76.9477 17.8199C76.9477 18.5797 76.7996 19.2478 76.5034 19.8241C76.2072 20.3972 75.7854 20.8448 75.2381 21.1668C74.6939 21.4855 74.0468 21.6449 73.2966 21.6449ZM73.3062 20.0511C73.6475 20.0511 73.9325 19.9545 74.1611 19.7614C74.3897 19.5649 74.5619 19.2977 74.6778 18.9596C74.797 18.6216 74.8565 18.2368 74.8565 17.8054C74.8565 17.3739 74.797 16.9892 74.6778 16.6511C74.5619 16.313 74.3897 16.0458 74.1611 15.8494C73.9325 15.653 73.6475 15.5548 73.3062 15.5548C72.9617 15.5548 72.6719 15.653 72.4369 15.8494C72.2051 16.0458 72.0296 16.313 71.9105 16.6511C71.7946 16.9892 71.7366 17.3739 71.7366 17.8054C71.7366 18.2368 71.7946 18.6216 71.9105 18.9596C72.0296 19.2977 72.2051 19.5649 72.4369 19.7614C72.6719 19.9545 72.9617 20.0511 73.3062 20.0511ZM78.2855 21.5V14.0818H80.2801V15.3761H80.3574C80.4926 14.9157 80.7196 14.5679 81.0384 14.3329C81.3571 14.0946 81.7242 13.9755 82.1395 13.9755C82.2426 13.9755 82.3536 13.982 82.4728 13.9948C82.5919 14.0077 82.6965 14.0254 82.7867 14.048V15.8735C82.6901 15.8446 82.5565 15.8188 82.3858 15.7963C82.2152 15.7737 82.059 15.7625 81.9174 15.7625C81.6147 15.7625 81.3443 15.8285 81.106 15.9605C80.871 16.0893 80.6842 16.2696 80.5458 16.5014C80.4105 16.7332 80.3429 17.0004 80.3429 17.3031V21.5H78.2855ZM86.8858 21.6449C86.1227 21.6449 85.4659 21.4903 84.9153 21.1812C84.368 20.8689 83.9462 20.4278 83.65 19.8579C83.3538 19.2848 83.2056 18.6071 83.2056 17.8247C83.2056 17.0616 83.3538 16.3919 83.65 15.8156C83.9462 15.2393 84.3631 14.7901 84.9008 14.4681C85.4417 14.1462 86.076 13.9852 86.8037 13.9852C87.2931 13.9852 87.7487 14.0641 88.1705 14.2218C88.5955 14.3764 88.9657 14.6098 89.2813 14.9221C89.6 15.2344 89.8479 15.6272 90.025 16.1005C90.2021 16.5706 90.2906 17.1212 90.2906 17.7522V18.3173H84.0267V17.0423H88.354C88.354 16.7461 88.2896 16.4837 88.1608 16.2551C88.032 16.0265 87.8533 15.8478 87.6247 15.719C87.3993 15.587 87.1369 15.521 86.8375 15.521C86.5252 15.521 86.2483 15.5934 86.0068 15.7383C85.7685 15.88 85.5818 16.0716 85.4466 16.313C85.3113 16.5513 85.2421 16.8169 85.2389 17.1099V18.3221C85.2389 18.6892 85.3065 19.0063 85.4417 19.2736C85.5802 19.5408 85.775 19.7469 86.0261 19.8918C86.2773 20.0366 86.5751 20.1091 86.9196 20.1091C87.1482 20.1091 87.3575 20.0769 87.5474 20.0125C87.7374 19.9481 87.9 19.8515 88.0352 19.7227C88.1705 19.5939 88.2735 19.4362 88.3443 19.2494L90.2472 19.375C90.1506 19.8322 89.9526 20.2314 89.6531 20.5727C89.3569 20.9108 88.9738 21.1748 88.5037 21.3648C88.0368 21.5515 87.4975 21.6449 86.8858 21.6449Z" fill="#F2F2F2"/>
</g>
</svg>
