<svg width="109" height="34" viewBox="0 0 109 34" fill="none" xmlns="http://www.w3.org/2000/svg">
<mask id="mask0_3_2165" style="mask-type:luminance" maskUnits="userSpaceOnUse" x="0" y="0" width="109" height="34">
<path d="M17.042 0C7.63 0 0 7.611 0 16.999C0 26.332 7.539 33.908 16.873 33.999H92.127C101.461 33.908 109 26.332 109 16.999C109 7.611 101.37 0 91.958 0H17.042Z" fill="white"/>
</mask>
<g mask="url(#mask0_3_2165)">
<path d="M17.0154 21.4995V11.6085H19.1066V19.7754H23.347V21.4995H17.0154ZM28.074 21.6444C27.3109 21.6444 26.6541 21.4899 26.1035 21.1808C25.5561 20.8684 25.1344 20.4273 24.8381 19.8575C24.5419 19.2843 24.3938 18.6066 24.3938 17.8242C24.3938 17.0611 24.5419 16.3914 24.8381 15.8151C25.1344 15.2388 25.5513 14.7896 26.089 14.4676C26.6299 14.1457 27.2642 13.9847 27.9919 13.9847C28.4812 13.9847 28.9368 14.0636 29.3586 14.2213C29.7836 14.3759 30.1539 14.6093 30.4694 14.9216C30.7882 15.2339 31.0361 15.6267 31.2132 16.1C31.3903 16.5701 31.4788 17.1207 31.4788 17.7518V18.3168H25.2148V17.0418H29.5421C29.5421 16.7456 29.4778 16.4832 29.349 16.2546C29.2202 16.026 29.0415 15.8473 28.8129 15.7185C28.5875 15.5865 28.3251 15.5205 28.0257 15.5205C27.7133 15.5205 27.4365 15.5929 27.195 15.7378C26.9567 15.8795 26.77 16.0711 26.6347 16.3125C26.4995 16.5508 26.4303 16.8164 26.4271 17.1094V18.3216C26.4271 18.6887 26.4947 19.0058 26.6299 19.2731C26.7684 19.5403 26.9632 19.7464 27.2143 19.8913C27.4654 20.0361 27.7633 20.1086 28.1078 20.1086C28.3364 20.1086 28.5456 20.0764 28.7356 20.012C28.9256 19.9476 29.0882 19.851 29.2234 19.7222C29.3586 19.5934 29.4617 19.4357 29.5325 19.2489L31.4353 19.3745C31.3388 19.8317 31.1407 20.2309 30.8413 20.5722C30.5451 20.9103 30.1619 21.1743 29.6919 21.3643C29.225 21.551 28.6857 21.6444 28.074 21.6444ZM34.9368 21.6396C34.4635 21.6396 34.0417 21.5575 33.6714 21.3933C33.3012 21.2258 33.0082 20.9795 32.7925 20.6543C32.58 20.3259 32.4737 19.917 32.4737 19.4276C32.4737 19.0155 32.5494 18.6694 32.7007 18.3893C32.852 18.1091 33.0581 17.8838 33.3189 17.7131C33.5797 17.5425 33.8759 17.4137 34.2075 17.3268C34.5424 17.2398 34.8933 17.1786 35.2604 17.1432C35.6918 17.0982 36.0395 17.0563 36.3036 17.0177C36.5676 16.9758 36.7591 16.9146 36.8783 16.8341C36.9974 16.7536 37.057 16.6345 37.057 16.4767V16.4478C37.057 16.1419 36.9604 15.9052 36.7672 15.7378C36.5772 15.5704 36.3068 15.4867 35.9558 15.4867C35.5856 15.4867 35.291 15.5688 35.072 15.733C34.8531 15.894 34.7082 16.0968 34.6374 16.3415L32.7345 16.187C32.8311 15.7362 33.0211 15.3466 33.3044 15.0182C33.5877 14.6866 33.9532 14.4322 34.4007 14.2551C34.8515 14.0748 35.3731 13.9847 35.9655 13.9847C36.3776 13.9847 36.772 14.033 37.1487 14.1296C37.5287 14.2262 37.8651 14.3759 38.1581 14.5787C38.4543 14.7816 38.6878 15.0424 38.8584 15.3611C39.029 15.6766 39.1144 16.055 39.1144 16.4961V21.4995H37.1632V20.4708H37.1053C36.9861 20.7026 36.8268 20.9071 36.6271 21.0842C36.4275 21.258 36.1876 21.3949 35.9075 21.4947C35.6274 21.5913 35.3038 21.6396 34.9368 21.6396ZM35.526 20.2197C35.8286 20.2197 36.0959 20.1601 36.3277 20.041C36.5595 19.9186 36.7414 19.7544 36.8734 19.5484C37.0055 19.3423 37.0715 19.1089 37.0715 18.8481V18.0609C37.0071 18.1027 36.9185 18.1413 36.8058 18.1768C36.6964 18.209 36.5724 18.2395 36.434 18.2685C36.2955 18.2943 36.1571 18.3184 36.0186 18.341C35.8802 18.3603 35.7546 18.378 35.6419 18.3941C35.4004 18.4295 35.1895 18.4859 35.0092 18.5631C34.8289 18.6404 34.6889 18.745 34.5891 18.8771C34.4892 19.0058 34.4393 19.1668 34.4393 19.36C34.4393 19.6401 34.5408 19.8542 34.7436 20.0023C34.9497 20.1472 35.2105 20.2197 35.526 20.2197ZM40.7105 21.4995V14.0813H42.7052V15.3756H42.7824C42.9177 14.9152 43.1447 14.5675 43.4634 14.3324C43.7822 14.0942 44.1492 13.975 44.5646 13.975C44.6676 13.975 44.7787 13.9815 44.8978 13.9943C45.0169 14.0072 45.1216 14.0249 45.2117 14.0475V15.8731C45.1151 15.8441 44.9815 15.8183 44.8109 15.7958C44.6402 15.7732 44.4841 15.762 44.3424 15.762C44.0397 15.762 43.7693 15.828 43.531 15.96C43.296 16.0888 43.1092 16.2691 42.9708 16.5009C42.8356 16.7327 42.7679 17 42.7679 17.3026V21.4995H40.7105ZM48.3328 17.2108V21.4995H46.2754V14.0813H48.2362V15.3901H48.3232C48.4874 14.9587 48.7627 14.6174 49.149 14.3662C49.5354 14.1119 50.0039 13.9847 50.5544 13.9847C51.0696 13.9847 51.5187 14.0974 51.9019 14.3228C52.285 14.5481 52.5829 14.8701 52.7954 15.2887C53.0079 15.704 53.1141 16.1999 53.1141 16.7762V21.4995H51.0567V17.1432C51.0599 16.6893 50.944 16.3351 50.709 16.0807C50.4739 15.8231 50.1504 15.6944 49.7382 15.6944C49.4613 15.6944 49.2166 15.7539 49.0041 15.8731C48.7949 15.9922 48.6307 16.166 48.5115 16.3946C48.3956 16.62 48.336 16.8921 48.3328 17.2108ZM57.8833 21.4995V14.0813H59.8441V15.3901H59.9311C60.0856 14.9554 60.3432 14.6125 60.7038 14.3614C61.0644 14.1103 61.4958 13.9847 61.9981 13.9847C62.5068 13.9847 62.9399 14.1119 63.2973 14.3662C63.6547 14.6174 63.8929 14.9587 64.0121 15.3901H64.0893C64.2407 14.9651 64.5143 14.6254 64.9104 14.3711C65.3096 14.1135 65.7813 13.9847 66.3254 13.9847C67.0177 13.9847 67.5795 14.2052 68.0109 14.6463C68.4456 15.0842 68.6629 15.7056 68.6629 16.5106V21.4995H66.6104V16.9162C66.6104 16.5041 66.5009 16.195 66.282 15.989C66.063 15.7829 65.7893 15.6799 65.4609 15.6799C65.0874 15.6799 64.7961 15.799 64.5868 16.0373C64.3775 16.2723 64.2729 16.583 64.2729 16.9694V21.4995H62.2782V16.8728C62.2782 16.5089 62.1736 16.2192 61.9643 16.0035C61.7583 15.7877 61.4862 15.6799 61.1481 15.6799C60.9195 15.6799 60.7135 15.7378 60.5299 15.8537C60.3496 15.9664 60.2063 16.1258 60.1001 16.3319C59.9938 16.5347 59.9407 16.773 59.9407 17.0466V21.4995H57.8833ZM73.6398 21.6444C72.8896 21.6444 72.2409 21.485 71.6935 21.1663C71.1494 20.8443 70.7292 20.3968 70.433 19.8236C70.1368 19.2473 69.9887 18.5792 69.9887 17.8194C69.9887 17.0531 70.1368 16.3834 70.433 15.8103C70.7292 15.2339 71.1494 14.7864 71.6935 14.4676C72.2409 14.1457 72.8896 13.9847 73.6398 13.9847C74.39 13.9847 75.0372 14.1457 75.5813 14.4676C76.1287 14.7864 76.5504 15.2339 76.8467 15.8103C77.1429 16.3834 77.291 17.0531 77.291 17.8194C77.291 18.5792 77.1429 19.2473 76.8467 19.8236C76.5504 20.3968 76.1287 20.8443 75.5813 21.1663C75.0372 21.485 74.39 21.6444 73.6398 21.6444ZM73.6495 20.0506C73.9908 20.0506 74.2757 19.954 74.5043 19.7609C74.7329 19.5645 74.9052 19.2972 75.0211 18.9592C75.1402 18.6211 75.1998 18.2363 75.1998 17.8049C75.1998 17.3734 75.1402 16.9887 75.0211 16.6506C74.9052 16.3125 74.7329 16.0453 74.5043 15.8489C74.2757 15.6525 73.9908 15.5543 73.6495 15.5543C73.305 15.5543 73.0152 15.6525 72.7802 15.8489C72.5483 16.0453 72.3729 16.3125 72.2537 16.6506C72.1378 16.9887 72.0799 17.3734 72.0799 17.8049C72.0799 18.2363 72.1378 18.6211 72.2537 18.9592C72.3729 19.2972 72.5483 19.5645 72.7802 19.7609C73.0152 19.954 73.305 20.0506 73.6495 20.0506ZM78.6288 21.4995V14.0813H80.6234V15.3756H80.7007C80.8359 14.9152 81.0629 14.5675 81.3816 14.3324C81.7004 14.0942 82.0674 13.975 82.4828 13.975C82.5858 13.975 82.6969 13.9815 82.816 13.9943C82.9352 14.0072 83.0398 14.0249 83.1299 14.0475V15.8731C83.0334 15.8441 82.8997 15.8183 82.7291 15.7958C82.5584 15.7732 82.4023 15.762 82.2606 15.762C81.958 15.762 81.6875 15.828 81.4493 15.96C81.2142 16.0888 81.0275 16.2691 80.889 16.5009C80.7538 16.7327 80.6862 17 80.6862 17.3026V21.4995H78.6288ZM87.229 21.6444C86.466 21.6444 85.8092 21.4899 85.2586 21.1808C84.7112 20.8684 84.2894 20.4273 83.9932 19.8575C83.697 19.2843 83.5489 18.6066 83.5489 17.8242C83.5489 17.0611 83.697 16.3914 83.9932 15.8151C84.2894 15.2388 84.7064 14.7896 85.2441 14.4676C85.785 14.1457 86.4193 13.9847 87.1469 13.9847C87.6363 13.9847 88.0919 14.0636 88.5137 14.2213C88.9387 14.3759 89.309 14.6093 89.6245 14.9216C89.9433 15.2339 90.1912 15.6267 90.3683 16.1C90.5454 16.5701 90.6339 17.1207 90.6339 17.7518V18.3168H84.3699V17.0418H88.6972C88.6972 16.7456 88.6328 16.4832 88.5041 16.2546C88.3753 16.026 88.1966 15.8473 87.968 15.7185C87.7426 15.5865 87.4802 15.5205 87.1808 15.5205C86.8684 15.5205 86.5915 15.5929 86.3501 15.7378C86.1118 15.8795 85.9251 16.0711 85.7898 16.3125C85.6546 16.5508 85.5854 16.8164 85.5822 17.1094V18.3216C85.5822 18.6887 85.6498 19.0058 85.785 19.2731C85.9235 19.5403 86.1182 19.7464 86.3694 19.8913C86.6205 20.0361 86.9183 20.1086 87.2629 20.1086C87.4915 20.1086 87.7007 20.0764 87.8907 20.012C88.0807 19.9476 88.2433 19.851 88.3785 19.7222C88.5137 19.5934 88.6167 19.4357 88.6876 19.2489L90.5904 19.3745C90.4938 19.8317 90.2958 20.2309 89.9964 20.5722C89.7002 20.9103 89.317 21.1743 88.847 21.3643C88.3801 21.551 87.8408 21.6444 87.229 21.6444Z" fill="#F2F2F2"/>
</g>
</svg>
