<svg width="13" height="14" viewBox="0 0 13 14" fill="none" xmlns="http://www.w3.org/2000/svg">
<g clip-path="url(#clip0_3_654)">
<path d="M6.25488 0.005649C2.80288 0.005649 0.00488281 2.80365 0.00488281 6.25565C0.00488281 9.01765 1.79888 11.3616 4.27988 12.1936C4.22988 11.7176 4.18588 10.9676 4.33588 10.4676L5.08588 7.28665C5.08588 7.28665 4.88588 6.88065 4.88588 6.28665C4.88588 5.34965 5.40488 4.64965 6.04188 4.64965C6.59288 4.64965 6.86088 5.06165 6.86088 5.55565C6.86088 6.12465 6.47388 6.97465 6.27388 7.78065C6.11788 8.44365 6.61788 8.98065 7.26788 8.98065C8.46088 8.98065 9.37988 7.71765 9.37988 5.89965C9.37988 4.29965 8.26788 3.19965 6.27388 3.19965C4.02988 3.19965 2.71088 4.83665 2.71088 6.48665C2.71088 7.06765 2.94188 7.69265 3.24288 8.04365C3.30488 8.11165 3.31088 8.18065 3.29188 8.25565L3.11788 9.06865C3.09288 9.16165 3.02388 9.18665 2.92988 9.14265C2.07388 8.74965 1.56788 7.51765 1.56788 6.46165C1.56788 4.16165 3.24288 2.05565 6.48588 2.05565C9.06788 2.05565 11.0489 3.86865 11.0489 5.87465C11.0489 8.65565 9.41088 10.8926 7.09288 10.8926C6.43588 10.8926 5.82388 10.5556 5.62988 10.1426L5.21088 11.7996C5.06788 12.4746 4.62388 13.3496 4.36088 13.8246C4.96788 13.9866 5.60488 14.0686 6.25488 14.0686C9.70688 14.0686 12.5049 11.2696 12.5049 7.81765C12.9979 5.91265 12.5649 3.88565 11.3349 2.34765C10.1049 0.810649 8.22288 -0.057351 6.25488 0.005649Z" fill="#AFAFAF"/>
</g>
<defs>
<clipPath id="clip0_3_654">
<rect width="12.7" height="13.76" fill="white"/>
</clipPath>
</defs>
</svg>
