<svg width="544" height="13" viewBox="0 0 544 13" fill="none" xmlns="http://www.w3.org/2000/svg">
<path d="M0 11.7373H544V12.7373H0V11.7373Z" fill="#E5E5E5"/>
<g opacity="0.498001">
<path d="M540.841 0.15375C541.046 0.35875 541.046 0.69075 540.841 0.89575L534.159 7.57875C533.954 7.78375 533.622 7.78375 533.417 7.57875C533.212 7.37375 533.212 7.04075 533.417 6.83575L540.099 0.15375C540.304 -0.05125 540.636 -0.05125 540.841 0.15375ZM540.841 3.86575C541.046 4.07075 541.046 4.40375 540.841 4.60875L537.871 7.57875C537.666 7.78375 537.334 7.78375 537.129 7.57875C536.924 7.37375 536.924 7.04075 537.129 6.83575L540.099 3.86575C540.304 3.66075 540.636 3.66075 540.841 3.86575Z" fill="black"/>
</g>
</svg>
