<svg width="188" height="36" viewBox="0 0 188 36" fill="none" xmlns="http://www.w3.org/2000/svg">
<mask id="mask0_3_2295" style="mask-type:luminance" maskUnits="userSpaceOnUse" x="0" y="0" width="188" height="37">
<path d="M18.023 0C8.068 0 0 8.059 0 17.999C0 27.942 8.068 36.001 18.023 36.001H169.475C179.429 36.001 187.499 27.942 187.499 17.999C187.499 8.059 179.429 0 169.475 0H18.023Z" fill="white"/>
</mask>
<g mask="url(#mask0_3_2295)">
<path d="M25.5571 16.0925H23.4484C23.4099 15.8197 23.3312 15.5774 23.2125 15.3655C23.0937 15.1505 22.9413 14.9675 22.7551 14.8167C22.569 14.6658 22.3539 14.5503 22.11 14.47C21.8693 14.3898 21.6077 14.3497 21.3252 14.3497C20.8149 14.3497 20.3704 14.4765 19.9916 14.73C19.6129 14.9804 19.3192 15.3463 19.1106 15.8277C18.902 16.3059 18.7977 16.8869 18.7977 17.5705C18.7977 18.2734 18.902 18.864 19.1106 19.3422C19.3224 19.8205 19.6177 20.1815 19.9965 20.4255C20.3752 20.6694 20.8133 20.7914 21.3108 20.7914C21.59 20.7914 21.8484 20.7545 22.0859 20.6806C22.3266 20.6068 22.5401 20.4993 22.7262 20.3581C22.9124 20.2136 23.0664 20.0387 23.1884 19.8333C23.3136 19.6279 23.4002 19.3936 23.4484 19.1304L25.5571 19.14C25.5025 19.5926 25.3661 20.0291 25.1479 20.4495C24.9328 20.8668 24.6424 21.2407 24.2765 21.5713C23.9138 21.8987 23.4805 22.1587 22.9766 22.3512C22.4759 22.5406 21.9094 22.6353 21.2771 22.6353C20.3977 22.6353 19.6113 22.4363 18.918 22.0383C18.228 21.6403 17.6823 21.0642 17.2811 20.3099C16.8831 19.5557 16.6841 18.6425 16.6841 17.5705C16.6841 16.4953 16.8863 15.5806 17.2908 14.8263C17.6952 14.072 18.244 13.4975 18.9373 13.1027C19.6306 12.7048 20.4105 12.5058 21.2771 12.5058C21.8484 12.5058 22.378 12.586 22.8658 12.7465C23.3569 12.907 23.7918 13.1413 24.1706 13.4494C24.5493 13.7543 24.8574 14.1282 25.0949 14.5711C25.3356 15.0141 25.4897 15.5212 25.5571 16.0925ZM30.3547 22.6449C29.6068 22.6449 28.9601 22.486 28.4145 22.1683C27.872 21.8473 27.4532 21.4012 27.1579 20.8299C26.8626 20.2554 26.715 19.5894 26.715 18.8319C26.715 18.068 26.8626 17.4004 27.1579 16.8291C27.4532 16.2546 27.872 15.8084 28.4145 15.4907C28.9601 15.1697 29.6068 15.0093 30.3547 15.0093C31.1025 15.0093 31.7476 15.1697 32.2901 15.4907C32.8357 15.8084 33.2562 16.2546 33.5514 16.8291C33.8467 17.4004 33.9944 18.068 33.9944 18.8319C33.9944 19.5894 33.8467 20.2554 33.5514 20.8299C33.2562 21.4012 32.8357 21.8473 32.2901 22.1683C31.7476 22.486 31.1025 22.6449 30.3547 22.6449ZM30.3643 21.0562C30.7045 21.0562 30.9886 20.9599 31.2165 20.7673C31.4443 20.5715 31.6161 20.3051 31.7316 19.9681C31.8504 19.6311 31.9097 19.2475 31.9097 18.8175C31.9097 18.3874 31.8504 18.0038 31.7316 17.6668C31.6161 17.3298 31.4443 17.0634 31.2165 16.8676C30.9886 16.6718 30.7045 16.5739 30.3643 16.5739C30.0209 16.5739 29.732 16.6718 29.4977 16.8676C29.2666 17.0634 29.0917 17.3298 28.9729 17.6668C28.8574 18.0038 28.7996 18.3874 28.7996 18.8175C28.7996 19.2475 28.8574 19.6311 28.9729 19.9681C29.0917 20.3051 29.2666 20.5715 29.4977 20.7673C29.732 20.9599 30.0209 21.0562 30.3643 21.0562ZM35.328 22.5005V15.1055H37.3163V16.3958H37.3934C37.5282 15.9368 37.7544 15.5902 38.0722 15.3559C38.3899 15.1184 38.7558 14.9996 39.1699 14.9996C39.2726 14.9996 39.3833 15.006 39.5021 15.0189C39.6208 15.0317 39.7251 15.0494 39.815 15.0718V16.8917C39.7187 16.8628 39.5855 16.8371 39.4154 16.8147C39.2453 16.7922 39.0896 16.781 38.9484 16.781C38.6467 16.781 38.3771 16.8468 38.1396 16.9784C37.9053 17.1067 37.7191 17.2865 37.5811 17.5176C37.4463 17.7487 37.3789 18.0151 37.3789 18.3168V22.5005H35.328ZM40.8754 25.2736V15.1055H42.8974V16.3477H42.9889C43.0788 16.1487 43.2088 15.9465 43.3789 15.741C43.5522 15.5324 43.7769 15.3591 44.0529 15.2211C44.3321 15.0799 44.6788 15.0093 45.0928 15.0093C45.632 15.0093 46.1295 15.1505 46.5853 15.4329C47.041 15.7122 47.4053 16.1342 47.6782 16.6991C47.951 17.2608 48.0874 17.9653 48.0874 18.8126C48.0874 19.6375 47.9542 20.334 47.6878 20.9021C47.4246 21.467 47.0651 21.8955 46.6094 22.1876C46.1568 22.4764 45.6497 22.6208 45.088 22.6208C44.69 22.6208 44.3514 22.5551 44.0722 22.4235C43.7961 22.2919 43.5698 22.1266 43.3933 21.9276C43.2168 21.7254 43.082 21.5216 42.9889 21.3161H42.9263V25.2736H40.8754ZM42.883 18.803C42.883 19.2427 42.944 19.6263 43.0659 19.9537C43.1879 20.281 43.3644 20.5362 43.5955 20.7192C43.8266 20.8989 44.1075 20.9888 44.438 20.9888C44.7718 20.9888 45.0543 20.8973 45.2854 20.7143C45.5165 20.5282 45.6914 20.2714 45.8102 19.944C45.9321 19.6134 45.9931 19.2331 45.9931 18.803C45.9931 18.3761 45.9337 18.0006 45.815 17.6764C45.6962 17.3523 45.5213 17.0987 45.2902 16.9158C45.0591 16.7328 44.7751 16.6413 44.438 16.6413C44.1042 16.6413 43.8218 16.7296 43.5907 16.9061C43.3628 17.0827 43.1879 17.333 43.0659 17.6572C42.944 17.9814 42.883 18.3633 42.883 18.803ZM52.7959 22.6449C52.048 22.6449 51.4013 22.486 50.8557 22.1683C50.3132 21.8473 49.8944 21.4012 49.5991 20.8299C49.3038 20.2554 49.1562 19.5894 49.1562 18.8319C49.1562 18.068 49.3038 17.4004 49.5991 16.8291C49.8944 16.2546 50.3132 15.8084 50.8557 15.4907C51.4013 15.1697 52.048 15.0093 52.7959 15.0093C53.5437 15.0093 54.1889 15.1697 54.7313 15.4907C55.2769 15.8084 55.6974 16.2546 55.9927 16.8291C56.2879 17.4004 56.4356 18.068 56.4356 18.8319C56.4356 19.5894 56.2879 20.2554 55.9927 20.8299C55.6974 21.4012 55.2769 21.8473 54.7313 22.1683C54.1889 22.486 53.5437 22.6449 52.7959 22.6449ZM52.8055 21.0562C53.1457 21.0562 53.4298 20.9599 53.6577 20.7673C53.8855 20.5715 54.0573 20.3051 54.1728 19.9681C54.2916 19.6311 54.3509 19.2475 54.3509 18.8175C54.3509 18.3874 54.2916 18.0038 54.1728 17.6668C54.0573 17.3298 53.8855 17.0634 53.6577 16.8676C53.4298 16.6718 53.1457 16.5739 52.8055 16.5739C52.4621 16.5739 52.1732 16.6718 51.9389 16.8676C51.7078 17.0634 51.5329 17.3298 51.4141 17.6668C51.2986 18.0038 51.2408 18.3874 51.2408 18.8175C51.2408 19.2475 51.2986 19.6311 51.4141 19.9681C51.5329 20.3051 51.7078 20.5715 51.9389 20.7673C52.1732 20.9599 52.4621 21.0562 52.8055 21.0562ZM57.7692 22.5005V15.1055H59.7575V16.3958H59.8346C59.9694 15.9368 60.1956 15.5902 60.5134 15.3559C60.8311 15.1184 61.197 14.9996 61.6111 14.9996C61.7138 14.9996 61.8245 15.006 61.9433 15.0189C62.062 15.0317 62.1663 15.0494 62.2562 15.0718V16.8917C62.1599 16.8628 62.0267 16.8371 61.8566 16.8147C61.6865 16.7922 61.5308 16.781 61.3896 16.781C61.0879 16.781 60.8183 16.8468 60.5808 16.9784C60.3465 17.1067 60.1603 17.2865 60.0223 17.5176C59.8875 17.7487 59.8201 18.0151 59.8201 18.3168V22.5005H57.7692ZM65.2135 22.6401C64.7417 22.6401 64.3212 22.5583 63.9521 22.3946C63.583 22.2277 63.2909 21.9821 63.0759 21.658C62.864 21.3306 62.7581 20.923 62.7581 20.4351C62.7581 20.0243 62.8335 19.6792 62.9844 19.4C63.1352 19.1208 63.3407 18.8961 63.6006 18.726C63.8606 18.5559 64.1559 18.4275 64.4865 18.3408C64.8203 18.2542 65.1701 18.1932 65.536 18.1579C65.9661 18.1129 66.3128 18.0712 66.5759 18.0327C66.8391 17.991 67.0301 17.93 67.1489 17.8498C67.2676 17.7695 67.327 17.6508 67.327 17.4935V17.4646C67.327 17.1597 67.2307 16.9238 67.0381 16.7569C66.8488 16.59 66.5792 16.5065 66.2293 16.5065C65.8602 16.5065 65.5665 16.5884 65.3483 16.7521C65.13 16.9126 64.9856 17.1148 64.915 17.3587L63.0181 17.2046C63.1144 16.7553 63.3037 16.3669 63.5862 16.0395C63.8686 15.7089 64.2329 15.4554 64.6791 15.2789C65.1284 15.0991 65.6484 15.0093 66.2389 15.0093C66.6498 15.0093 67.0429 15.0574 67.4185 15.1537C67.7972 15.25 68.1326 15.3992 68.4247 15.6014C68.72 15.8036 68.9527 16.0636 69.1228 16.3814C69.2929 16.6959 69.3779 17.073 69.3779 17.5128V22.5005H67.4329V21.475H67.3751C67.2564 21.7061 67.0975 21.9099 66.8985 22.0864C66.6995 22.2598 66.4604 22.3962 66.1812 22.4957C65.9019 22.592 65.5794 22.6401 65.2135 22.6401ZM65.8008 21.2247C66.1025 21.2247 66.3689 21.1653 66.6 21.0465C66.8311 20.9246 67.0125 20.7609 67.144 20.5555C67.2756 20.35 67.3414 20.1174 67.3414 19.8574V19.0726C67.2772 19.1143 67.189 19.1529 67.0766 19.1882C66.9675 19.2203 66.8439 19.2508 66.7059 19.2796C66.5679 19.3053 66.4299 19.3294 66.2919 19.3519C66.1539 19.3711 66.0287 19.3888 65.9164 19.4048C65.6757 19.4401 65.4654 19.4963 65.2857 19.5733C65.1059 19.6504 64.9663 19.7547 64.8668 19.8863C64.7673 20.0146 64.7176 20.1751 64.7176 20.3677C64.7176 20.6469 64.8187 20.8604 65.0209 21.008C65.2263 21.1525 65.4863 21.2247 65.8008 21.2247ZM74.9025 15.1055V16.6462H70.4491V15.1055H74.9025ZM71.4602 13.3338H73.5111V20.2281C73.5111 20.4175 73.54 20.5651 73.5978 20.671C73.6555 20.7737 73.7358 20.8459 73.8385 20.8877C73.9444 20.9294 74.0664 20.9502 74.2044 20.9502C74.3007 20.9502 74.397 20.9422 74.4933 20.9262C74.5895 20.9069 74.6634 20.8925 74.7147 20.8828L75.0373 22.409C74.9346 22.4411 74.7901 22.478 74.604 22.5197C74.4178 22.5647 74.1916 22.592 73.9252 22.6016C73.4309 22.6208 72.9976 22.5551 72.6253 22.4042C72.2562 22.2533 71.9689 22.019 71.7635 21.7013C71.5581 21.3835 71.457 20.9823 71.4602 20.4977V13.3338ZM79.5291 22.6449C78.7685 22.6449 78.1137 22.4909 77.5649 22.1827C77.0192 21.8714 76.5988 21.4317 76.3035 20.8636C76.0082 20.2923 75.8605 19.6167 75.8605 18.8367C75.8605 18.076 76.0082 17.4084 76.3035 16.8339C76.5988 16.2594 77.0144 15.8117 77.5504 15.4907C78.0896 15.1697 78.7219 15.0093 79.4473 15.0093C79.9352 15.0093 80.3893 15.0879 80.8098 15.2452C81.2334 15.3992 81.6025 15.6319 81.9171 15.9433C82.2348 16.2546 82.482 16.6462 82.6585 17.118C82.835 17.5866 82.9233 18.1354 82.9233 18.7645V19.3278H76.679V18.0568H80.9927C80.9927 17.7615 80.9285 17.4999 80.8001 17.272C80.6718 17.0441 80.4936 16.866 80.2657 16.7376C80.0411 16.606 79.7795 16.5402 79.481 16.5402C79.1697 16.5402 78.8936 16.6125 78.6529 16.7569C78.4154 16.8981 78.2292 17.0891 78.0944 17.3298C77.9596 17.5673 77.8906 17.8321 77.8874 18.1242V19.3326C77.8874 19.6985 77.9548 20.0146 78.0896 20.281C78.2276 20.5474 78.4218 20.7529 78.6722 20.8973C78.9225 21.0417 79.2194 21.1139 79.5628 21.1139C79.7907 21.1139 79.9993 21.0818 80.1887 21.0176C80.3781 20.9535 80.5402 20.8572 80.675 20.7288C80.8098 20.6004 80.9125 20.4431 80.9831 20.257L82.88 20.3821C82.7837 20.8379 82.5863 21.2359 82.2878 21.5761C81.9925 21.9131 81.6106 22.1763 81.142 22.3657C80.6766 22.5518 80.139 22.6449 79.5291 22.6449ZM87.3995 22.5005V15.1055H89.3542V16.4103H89.4408C89.5949 15.977 89.8516 15.6351 90.2111 15.3848C90.5706 15.1344 91.0007 15.0093 91.5014 15.0093C92.0085 15.0093 92.4402 15.136 92.7965 15.3896C93.1527 15.6399 93.3902 15.9802 93.509 16.4103H93.586C93.7369 15.9866 94.0097 15.648 94.4045 15.3944C94.8025 15.1376 95.2727 15.0093 95.8151 15.0093C96.5052 15.0093 97.0653 15.2291 97.4953 15.6688C97.9286 16.1053 98.1453 16.7248 98.1453 17.5272V22.5005H96.0992V17.9316C96.0992 17.5208 95.99 17.2127 95.7718 17.0072C95.5535 16.8018 95.2807 16.6991 94.9533 16.6991C94.581 16.6991 94.2905 16.8179 94.0819 17.0554C93.8733 17.2897 93.769 17.5994 93.769 17.9846V22.5005H91.7806V17.8883C91.7806 17.5256 91.6763 17.2367 91.4677 17.0217C91.2623 16.8066 90.9911 16.6991 90.6541 16.6991C90.4262 16.6991 90.2208 16.7569 90.0378 16.8724C89.8581 16.9848 89.7152 17.1436 89.6093 17.3491C89.5034 17.5513 89.4504 17.7888 89.4504 18.0616V22.5005H87.3995ZM103.135 22.6449C102.375 22.6449 101.72 22.4909 101.171 22.1827C100.626 21.8714 100.205 21.4317 99.9098 20.8636C99.6145 20.2923 99.4668 19.6167 99.4668 18.8367C99.4668 18.076 99.6145 17.4084 99.9098 16.8339C100.205 16.2594 100.621 15.8117 101.157 15.4907C101.696 15.1697 102.328 15.0093 103.054 15.0093C103.541 15.0093 103.996 15.0879 104.416 15.2452C104.84 15.3992 105.209 15.6319 105.523 15.9433C105.841 16.2546 106.088 16.6462 106.265 17.118C106.441 17.5866 106.53 18.1354 106.53 18.7645V19.3278H100.285V18.0568H104.599C104.599 17.7615 104.535 17.4999 104.406 17.272C104.278 17.0441 104.1 16.866 103.872 16.7376C103.647 16.606 103.386 16.5402 103.087 16.5402C102.776 16.5402 102.5 16.6125 102.259 16.7569C102.022 16.8981 101.836 17.0891 101.701 17.3298C101.566 17.5673 101.497 17.8321 101.494 18.1242V19.3326C101.494 19.6985 101.561 20.0146 101.696 20.281C101.834 20.5474 102.028 20.7529 102.278 20.8973C102.529 21.0417 102.826 21.1139 103.169 21.1139C103.397 21.1139 103.606 21.0818 103.795 21.0176C103.984 20.9535 104.146 20.8572 104.281 20.7288C104.416 20.6004 104.519 20.4431 104.589 20.257L106.486 20.3821C106.39 20.8379 106.193 21.2359 105.894 21.5761C105.599 21.9131 105.217 22.1763 104.748 22.3657C104.283 22.5518 103.745 22.6449 103.135 22.6449ZM107.868 22.5005V15.1055H109.823V16.4103H109.909C110.063 15.977 110.32 15.6351 110.68 15.3848C111.039 15.1344 111.469 15.0093 111.97 15.0093C112.477 15.0093 112.909 15.136 113.265 15.3896C113.621 15.6399 113.859 15.9802 113.978 16.4103H114.055C114.205 15.9866 114.478 15.648 114.873 15.3944C115.271 15.1376 115.741 15.0093 116.284 15.0093C116.974 15.0093 117.534 15.2291 117.964 15.6688C118.397 16.1053 118.614 16.7248 118.614 17.5272V22.5005H116.568V17.9316C116.568 17.5208 116.459 17.2127 116.24 17.0072C116.022 16.8018 115.749 16.6991 115.422 16.6991C115.05 16.6991 114.759 16.8179 114.55 17.0554C114.342 17.2897 114.237 17.5994 114.237 17.9846V22.5005H112.249V17.8883C112.249 17.5256 112.145 17.2367 111.936 17.0217C111.731 16.8066 111.46 16.6991 111.123 16.6991C110.895 16.6991 110.689 16.7569 110.506 16.8724C110.327 16.9848 110.184 17.1436 110.078 17.3491C109.972 17.5513 109.919 17.7888 109.919 18.0616V22.5005H107.868ZM120.272 22.5005V12.6406H122.323V16.3477H122.386C122.476 16.1487 122.606 15.9465 122.776 15.741C122.949 15.5324 123.174 15.3591 123.45 15.2211C123.729 15.0799 124.076 15.0093 124.49 15.0093C125.029 15.0093 125.526 15.1505 125.982 15.4329C126.438 15.7122 126.802 16.1342 127.075 16.6991C127.348 17.2608 127.484 17.9653 127.484 18.8126C127.484 19.6375 127.351 20.334 127.085 20.9021C126.822 21.467 126.462 21.8955 126.006 22.1876C125.554 22.4764 125.047 22.6208 124.485 22.6208C124.087 22.6208 123.748 22.5551 123.469 22.4235C123.193 22.2919 122.967 22.1266 122.79 21.9276C122.614 21.7254 122.479 21.5216 122.386 21.3161H122.294V22.5005H120.272ZM122.28 18.803C122.28 19.2427 122.341 19.6263 122.463 19.9537C122.585 20.281 122.761 20.5362 122.992 20.7192C123.224 20.8989 123.504 20.9888 123.835 20.9888C124.169 20.9888 124.451 20.8973 124.682 20.7143C124.913 20.5282 125.088 20.2714 125.207 19.944C125.329 19.6134 125.39 19.2331 125.39 18.803C125.39 18.3761 125.331 18.0006 125.212 17.6764C125.093 17.3523 124.918 17.0987 124.687 16.9158C124.456 16.7328 124.172 16.6413 123.835 16.6413C123.501 16.6413 123.219 16.7296 122.988 16.9061C122.76 17.0827 122.585 17.333 122.463 17.6572C122.341 17.9814 122.28 18.3633 122.28 18.803ZM132.223 22.6449C131.462 22.6449 130.807 22.4909 130.259 22.1827C129.713 21.8714 129.293 21.4317 128.997 20.8636C128.702 20.2923 128.554 19.6167 128.554 18.8367C128.554 18.076 128.702 17.4084 128.997 16.8339C129.293 16.2594 129.708 15.8117 130.244 15.4907C130.783 15.1697 131.416 15.0093 132.141 15.0093C132.629 15.0093 133.083 15.0879 133.504 15.2452C133.927 15.3992 134.296 15.6319 134.611 15.9433C134.929 16.2546 135.176 16.6462 135.352 17.118C135.529 17.5866 135.617 18.1354 135.617 18.7645V19.3278H129.373V18.0568H133.687C133.687 17.7615 133.622 17.4999 133.494 17.272C133.366 17.0441 133.187 16.866 132.96 16.7376C132.735 16.606 132.473 16.5402 132.175 16.5402C131.863 16.5402 131.587 16.6125 131.347 16.7569C131.109 16.8981 130.923 17.0891 130.788 17.3298C130.653 17.5673 130.584 17.8321 130.581 18.1242V19.3326C130.581 19.6985 130.649 20.0146 130.783 20.281C130.921 20.5474 131.116 20.7529 131.366 20.8973C131.616 21.0417 131.913 21.1139 132.257 21.1139C132.485 21.1139 132.693 21.0818 132.883 21.0176C133.072 20.9535 133.234 20.8572 133.369 20.7288C133.504 20.6004 133.606 20.4431 133.677 20.257L135.574 20.3821C135.477 20.8379 135.28 21.2359 134.982 21.5761C134.686 21.9131 134.304 22.1763 133.836 22.3657C133.37 22.5518 132.833 22.6449 132.223 22.6449ZM136.956 22.5005V15.1055H138.944V16.3958H139.021C139.156 15.9368 139.382 15.5902 139.7 15.3559C140.017 15.1184 140.383 14.9996 140.797 14.9996C140.9 14.9996 141.011 15.006 141.13 15.0189C141.248 15.0317 141.353 15.0494 141.443 15.0718V16.8917C141.346 16.8628 141.213 16.8371 141.043 16.8147C140.873 16.7922 140.717 16.781 140.576 16.781C140.274 16.781 140.005 16.8468 139.767 16.9784C139.533 17.1067 139.347 17.2865 139.209 17.5176C139.074 17.7487 139.006 18.0151 139.006 18.3168V22.5005H136.956ZM148.656 17.2143L146.778 17.3298C146.746 17.1693 146.677 17.0249 146.571 16.8965C146.465 16.7649 146.326 16.6606 146.152 16.5836C145.982 16.5033 145.778 16.4632 145.541 16.4632C145.223 16.4632 144.955 16.5306 144.737 16.6654C144.519 16.797 144.409 16.9735 144.409 17.195C144.409 17.3715 144.48 17.5208 144.621 17.6427C144.762 17.7647 145.005 17.8626 145.348 17.9364L146.687 18.206C147.406 18.3537 147.942 18.5912 148.295 18.9186C148.648 19.2459 148.824 19.676 148.824 20.2088C148.824 20.6935 148.681 21.1188 148.396 21.4846C148.113 21.8505 147.725 22.1362 147.231 22.3416C146.74 22.5438 146.173 22.6449 145.531 22.6449C144.552 22.6449 143.772 22.4411 143.191 22.0335C142.614 21.6227 142.275 21.0642 142.176 20.3581L144.193 20.2522C144.254 20.5506 144.401 20.7785 144.636 20.9358C144.87 21.0899 145.17 21.1669 145.536 21.1669C145.895 21.1669 146.184 21.0979 146.403 20.9599C146.624 20.8187 146.736 20.6373 146.74 20.4158C146.736 20.2297 146.658 20.0772 146.504 19.9585C146.35 19.8365 146.112 19.7434 145.791 19.6792L144.511 19.4241C143.788 19.2796 143.251 19.0293 142.898 18.673C142.548 18.3168 142.373 17.8626 142.373 17.3105C142.373 16.8355 142.501 16.4263 142.758 16.0829C143.018 15.7394 143.382 15.4746 143.851 15.2885C144.323 15.1023 144.875 15.0093 145.507 15.0093C146.441 15.0093 147.176 15.2066 147.712 15.6014C148.251 15.9962 148.566 16.5338 148.656 17.2143ZM152.167 18.2253V22.5005H150.116V12.6406H152.109V16.4103H152.196C152.362 15.9737 152.632 15.6319 153.004 15.3848C153.377 15.1344 153.844 15.0093 154.405 15.0093C154.919 15.0093 155.367 15.1216 155.749 15.3463C156.134 15.5677 156.432 15.8871 156.644 16.3043C156.859 16.7184 156.965 17.2143 156.962 17.792V22.5005H154.911V18.1579C154.914 17.7021 154.799 17.3475 154.564 17.0939C154.333 16.8403 154.009 16.7136 153.592 16.7136C153.312 16.7136 153.065 16.7729 152.85 16.8917C152.638 17.0104 152.472 17.1838 152.35 17.4116C152.231 17.6363 152.17 17.9075 152.167 18.2253ZM158.576 22.5005V15.1055H160.627V22.5005H158.576ZM159.606 14.1523C159.301 14.1523 159.04 14.0512 158.821 13.849C158.606 13.6436 158.499 13.398 158.499 13.1124C158.499 12.8299 158.606 12.5876 158.821 12.3854C159.04 12.18 159.301 12.0773 159.606 12.0773C159.911 12.0773 160.171 12.18 160.386 12.3854C160.604 12.5876 160.713 12.8299 160.713 13.1124C160.713 13.398 160.604 13.6436 160.386 13.849C160.171 14.0512 159.911 14.1523 159.606 14.1523ZM162.27 25.2736V15.1055H164.292V16.3477H164.383C164.473 16.1487 164.603 15.9465 164.773 15.741C164.947 15.5324 165.171 15.3591 165.447 15.2211C165.726 15.0799 166.073 15.0093 166.487 15.0093C167.026 15.0093 167.524 15.1505 167.98 15.4329C168.435 15.7122 168.8 16.1342 169.072 16.6991C169.345 17.2608 169.482 17.9653 169.482 18.8126C169.482 19.6375 169.349 20.334 169.082 20.9021C168.819 21.467 168.459 21.8955 168.004 22.1876C167.551 22.4764 167.044 22.6208 166.482 22.6208C166.084 22.6208 165.746 22.5551 165.466 22.4235C165.19 22.2919 164.964 22.1266 164.788 21.9276C164.611 21.7254 164.476 21.5216 164.383 21.3161H164.321V25.2736H162.27ZM164.277 18.803C164.277 19.2427 164.338 19.6263 164.46 19.9537C164.582 20.281 164.759 20.5362 164.99 20.7192C165.221 20.8989 165.502 20.9888 165.832 20.9888C166.166 20.9888 166.449 20.8973 166.68 20.7143C166.911 20.5282 167.086 20.2714 167.204 19.944C167.326 19.6134 167.387 19.2331 167.387 18.803C167.387 18.3761 167.328 18.0006 167.209 17.6764C167.091 17.3523 166.916 17.0987 166.685 16.9158C166.453 16.7328 166.169 16.6413 165.832 16.6413C165.499 16.6413 165.216 16.7296 164.985 16.9061C164.757 17.0827 164.582 17.333 164.46 17.6572C164.338 17.9814 164.277 18.3633 164.277 18.803Z" fill="#F2F2F2"/>
</g>
</svg>
