<svg width="139" height="36" viewBox="0 0 139 36" fill="none" xmlns="http://www.w3.org/2000/svg">
<g clip-path="url(#clip0_3_2429)">
<path fill-rule="evenodd" clip-rule="evenodd" d="M144.5 18.0034C144.5 27.9444 136.439 36.0034 126.494 36.0034H18.006C8.061 36.0034 0 27.9444 0 18.0034C0 8.06242 8.061 0.00341797 18.006 0.00341797H126.494C136.439 0.00341797 144.5 8.06242 144.5 18.0034ZM143.5 18.0034C143.5 27.3924 135.886 35.0034 126.494 35.0034H18.006C8.614 35.0034 1 27.3924 1 18.0034C1 8.61442 8.614 1.00342 18.006 1.00342H126.494C135.886 1.00342 143.5 8.61442 143.5 18.0034Z" fill="white"/>
</g>
<defs>
<clipPath id="clip0_3_2429">
<rect width="138.5" height="36" fill="white"/>
</clipPath>
</defs>
</svg>
