<svg width="109" height="34" viewBox="0 0 109 34" fill="none" xmlns="http://www.w3.org/2000/svg">
<mask id="mask0_3_2241" style="mask-type:luminance" maskUnits="userSpaceOnUse" x="0" y="0" width="109" height="34">
<path d="M17.042 0C7.63 0 0 7.612 0 17.001C0 26.389 7.63 34 17.042 34H91.958C101.37 34 109 26.389 109 17.001C109 7.612 101.37 0 91.958 0H17.042Z" fill="white"/>
</mask>
<g mask="url(#mask0_3_2241)">
<path d="M17.0154 21.5V11.609H19.1066V19.7758H23.347V21.5H17.0154ZM28.074 21.6449C27.3109 21.6449 26.6541 21.4903 26.1035 21.1812C25.5561 20.8689 25.1344 20.4278 24.8381 19.8579C24.5419 19.2848 24.3938 18.6071 24.3938 17.8247C24.3938 17.0616 24.5419 16.3919 24.8381 15.8156C25.1344 15.2393 25.5513 14.7901 26.089 14.4681C26.6299 14.1462 27.2642 13.9852 27.9919 13.9852C28.4812 13.9852 28.9368 14.0641 29.3586 14.2218C29.7836 14.3764 30.1539 14.6098 30.4694 14.9221C30.7882 15.2344 31.0361 15.6272 31.2132 16.1005C31.3903 16.5706 31.4788 17.1212 31.4788 17.7522V18.3173H25.2148V17.0423H29.5421C29.5421 16.7461 29.4778 16.4837 29.349 16.2551C29.2202 16.0265 29.0415 15.8478 28.8129 15.719C28.5875 15.587 28.3251 15.521 28.0257 15.521C27.7133 15.521 27.4365 15.5934 27.195 15.7383C26.9567 15.88 26.77 16.0716 26.6347 16.313C26.4995 16.5513 26.4303 16.8169 26.4271 17.1099V18.3221C26.4271 18.6892 26.4947 19.0063 26.6299 19.2736C26.7684 19.5408 26.9632 19.7469 27.2143 19.8918C27.4654 20.0366 27.7633 20.1091 28.1078 20.1091C28.3364 20.1091 28.5456 20.0769 28.7356 20.0125C28.9256 19.9481 29.0882 19.8515 29.2234 19.7227C29.3586 19.5939 29.4617 19.4362 29.5325 19.2494L31.4353 19.375C31.3388 19.8322 31.1407 20.2314 30.8413 20.5727C30.5451 20.9108 30.1619 21.1748 29.6919 21.3648C29.225 21.5515 28.6857 21.6449 28.074 21.6449ZM34.9368 21.6401C34.4635 21.6401 34.0417 21.558 33.6714 21.3937C33.3012 21.2263 33.0082 20.98 32.7925 20.6548C32.58 20.3264 32.4737 19.9175 32.4737 19.4281C32.4737 19.016 32.5494 18.6699 32.7007 18.3898C32.852 18.1096 33.0581 17.8843 33.3189 17.7136C33.5797 17.543 33.8759 17.4142 34.2075 17.3272C34.5424 17.2403 34.8933 17.1791 35.2604 17.1437C35.6918 17.0986 36.0395 17.0568 36.3036 17.0182C36.5676 16.9763 36.7591 16.9151 36.8783 16.8346C36.9974 16.7541 37.057 16.635 37.057 16.4772V16.4483C37.057 16.1424 36.9604 15.9057 36.7672 15.7383C36.5772 15.5709 36.3068 15.4872 35.9558 15.4872C35.5856 15.4872 35.291 15.5693 35.072 15.7335C34.8531 15.8945 34.7082 16.0973 34.6374 16.342L32.7345 16.1875C32.8311 15.7367 33.0211 15.3471 33.3044 15.0187C33.5877 14.6871 33.9532 14.4327 34.4007 14.2556C34.8515 14.0753 35.3731 13.9852 35.9655 13.9852C36.3776 13.9852 36.772 14.0335 37.1487 14.1301C37.5287 14.2267 37.8651 14.3764 38.1581 14.5792C38.4543 14.7821 38.6878 15.0429 38.8584 15.3616C39.029 15.6771 39.1144 16.0555 39.1144 16.4966V21.5H37.1632V20.4713H37.1053C36.9861 20.7031 36.8268 20.9076 36.6271 21.0847C36.4275 21.2585 36.1876 21.3954 35.9075 21.4952C35.6274 21.5918 35.3038 21.6401 34.9368 21.6401ZM35.526 20.2202C35.8286 20.2202 36.0959 20.1606 36.3277 20.0415C36.5595 19.9191 36.7414 19.7549 36.8734 19.5489C37.0055 19.3428 37.0715 19.1094 37.0715 18.8486V18.0613C37.0071 18.1032 36.9185 18.1418 36.8058 18.1772C36.6964 18.2094 36.5724 18.24 36.434 18.269C36.2955 18.2948 36.1571 18.3189 36.0186 18.3415C35.8802 18.3608 35.7546 18.3785 35.6419 18.3946C35.4004 18.43 35.1895 18.4863 35.0092 18.5636C34.8289 18.6409 34.6889 18.7455 34.5891 18.8775C34.4892 19.0063 34.4393 19.1673 34.4393 19.3605C34.4393 19.6406 34.5408 19.8547 34.7436 20.0028C34.9497 20.1477 35.2105 20.2202 35.526 20.2202ZM40.7105 21.5V14.0818H42.7052V15.3761H42.7824C42.9177 14.9157 43.1447 14.5679 43.4634 14.3329C43.7822 14.0946 44.1492 13.9755 44.5646 13.9755C44.6676 13.9755 44.7787 13.982 44.8978 13.9948C45.0169 14.0077 45.1216 14.0254 45.2117 14.048V15.8735C45.1151 15.8446 44.9815 15.8188 44.8109 15.7963C44.6402 15.7737 44.4841 15.7625 44.3424 15.7625C44.0397 15.7625 43.7693 15.8285 43.531 15.9605C43.296 16.0893 43.1092 16.2696 42.9708 16.5014C42.8356 16.7332 42.7679 17.0004 42.7679 17.3031V21.5H40.7105ZM48.3328 17.2113V21.5H46.2754V14.0818H48.2362V15.3906H48.3232C48.4874 14.9591 48.7627 14.6178 49.149 14.3667C49.5354 14.1124 50.0039 13.9852 50.5544 13.9852C51.0696 13.9852 51.5187 14.0979 51.9019 14.3232C52.285 14.5486 52.5829 14.8706 52.7954 15.2892C53.0079 15.7045 53.1141 16.2003 53.1141 16.7767V21.5H51.0567V17.1437C51.0599 16.6897 50.944 16.3356 50.709 16.0812C50.4739 15.8236 50.1504 15.6948 49.7382 15.6948C49.4613 15.6948 49.2166 15.7544 49.0041 15.8735C48.7949 15.9927 48.6307 16.1665 48.5115 16.3951C48.3956 16.6205 48.336 16.8926 48.3328 17.2113ZM57.8833 21.5V14.0818H59.8441V15.3906H59.9311C60.0856 14.9559 60.3432 14.613 60.7038 14.3619C61.0644 14.1107 61.4958 13.9852 61.9981 13.9852C62.5068 13.9852 62.9399 14.1124 63.2973 14.3667C63.6547 14.6178 63.8929 14.9591 64.0121 15.3906H64.0893C64.2407 14.9656 64.5143 14.6259 64.9104 14.3715C65.3096 14.114 65.7813 13.9852 66.3254 13.9852C67.0177 13.9852 67.5795 14.2057 68.0109 14.6468C68.4456 15.0847 68.6629 15.7061 68.6629 16.511V21.5H66.6104V16.9167C66.6104 16.5046 66.5009 16.1955 66.282 15.9895C66.063 15.7834 65.7893 15.6804 65.4609 15.6804C65.0874 15.6804 64.7961 15.7995 64.5868 16.0377C64.3775 16.2728 64.2729 16.5835 64.2729 16.9699V21.5H62.2782V16.8733C62.2782 16.5094 62.1736 16.2197 61.9643 16.0039C61.7583 15.7882 61.4862 15.6804 61.1481 15.6804C60.9195 15.6804 60.7135 15.7383 60.5299 15.8542C60.3496 15.9669 60.2063 16.1263 60.1001 16.3324C59.9938 16.5352 59.9407 16.7735 59.9407 17.0471V21.5H57.8833ZM73.6398 21.6449C72.8896 21.6449 72.2409 21.4855 71.6935 21.1668C71.1494 20.8448 70.7292 20.3972 70.433 19.8241C70.1368 19.2478 69.9887 18.5797 69.9887 17.8199C69.9887 17.0536 70.1368 16.3839 70.433 15.8108C70.7292 15.2344 71.1494 14.7869 71.6935 14.4681C72.2409 14.1462 72.8896 13.9852 73.6398 13.9852C74.39 13.9852 75.0372 14.1462 75.5813 14.4681C76.1287 14.7869 76.5504 15.2344 76.8467 15.8108C77.1429 16.3839 77.291 17.0536 77.291 17.8199C77.291 18.5797 77.1429 19.2478 76.8467 19.8241C76.5504 20.3972 76.1287 20.8448 75.5813 21.1668C75.0372 21.4855 74.39 21.6449 73.6398 21.6449ZM73.6495 20.0511C73.9908 20.0511 74.2757 19.9545 74.5043 19.7614C74.7329 19.5649 74.9052 19.2977 75.0211 18.9596C75.1402 18.6216 75.1998 18.2368 75.1998 17.8054C75.1998 17.3739 75.1402 16.9892 75.0211 16.6511C74.9052 16.313 74.7329 16.0458 74.5043 15.8494C74.2757 15.653 73.9908 15.5548 73.6495 15.5548C73.305 15.5548 73.0152 15.653 72.7802 15.8494C72.5483 16.0458 72.3729 16.313 72.2537 16.6511C72.1378 16.9892 72.0799 17.3739 72.0799 17.8054C72.0799 18.2368 72.1378 18.6216 72.2537 18.9596C72.3729 19.2977 72.5483 19.5649 72.7802 19.7614C73.0152 19.9545 73.305 20.0511 73.6495 20.0511ZM78.6288 21.5V14.0818H80.6234V15.3761H80.7007C80.8359 14.9157 81.0629 14.5679 81.3816 14.3329C81.7004 14.0946 82.0674 13.9755 82.4828 13.9755C82.5858 13.9755 82.6969 13.982 82.816 13.9948C82.9352 14.0077 83.0398 14.0254 83.1299 14.048V15.8735C83.0334 15.8446 82.8997 15.8188 82.7291 15.7963C82.5584 15.7737 82.4023 15.7625 82.2606 15.7625C81.958 15.7625 81.6875 15.8285 81.4493 15.9605C81.2142 16.0893 81.0275 16.2696 80.889 16.5014C80.7538 16.7332 80.6862 17.0004 80.6862 17.3031V21.5H78.6288ZM87.229 21.6449C86.466 21.6449 85.8092 21.4903 85.2586 21.1812C84.7112 20.8689 84.2894 20.4278 83.9932 19.8579C83.697 19.2848 83.5489 18.6071 83.5489 17.8247C83.5489 17.0616 83.697 16.3919 83.9932 15.8156C84.2894 15.2393 84.7064 14.7901 85.2441 14.4681C85.785 14.1462 86.4193 13.9852 87.1469 13.9852C87.6363 13.9852 88.0919 14.0641 88.5137 14.2218C88.9387 14.3764 89.309 14.6098 89.6245 14.9221C89.9433 15.2344 90.1912 15.6272 90.3683 16.1005C90.5454 16.5706 90.6339 17.1212 90.6339 17.7522V18.3173H84.3699V17.0423H88.6972C88.6972 16.7461 88.6328 16.4837 88.5041 16.2551C88.3753 16.0265 88.1966 15.8478 87.968 15.719C87.7426 15.587 87.4802 15.521 87.1808 15.521C86.8684 15.521 86.5915 15.5934 86.3501 15.7383C86.1118 15.88 85.9251 16.0716 85.7898 16.313C85.6546 16.5513 85.5854 16.8169 85.5822 17.1099V18.3221C85.5822 18.6892 85.6498 19.0063 85.785 19.2736C85.9235 19.5408 86.1182 19.7469 86.3694 19.8918C86.6205 20.0366 86.9183 20.1091 87.2629 20.1091C87.4915 20.1091 87.7007 20.0769 87.8907 20.0125C88.0807 19.9481 88.2433 19.8515 88.3785 19.7227C88.5137 19.5939 88.6167 19.4362 88.6876 19.2494L90.5904 19.375C90.4938 19.8322 90.2958 20.2314 89.9964 20.5727C89.7002 20.9108 89.317 21.1748 88.847 21.3648C88.3801 21.5515 87.8408 21.6449 87.229 21.6449Z" fill="#F2F2F2"/>
</g>
</svg>
