<svg width="237" height="45" viewBox="0 0 237 45" fill="none" xmlns="http://www.w3.org/2000/svg">
<path d="M234.166 14.2908H234.5L235.584 15.9438L236.668 14.2908H236.993V17.0728H236.677V14.8508L235.602 16.4578H235.557L234.482 14.8508V17.0728H234.166V14.2908ZM232.305 14.5978H231.393V14.2908H233.534V14.5978H232.622V17.0728H232.305V14.5978Z" fill="#F5F5F3"/>
<path d="M221.099 21.8887C223.709 21.8887 225.649 20.5507 225.649 18.3197V18.2747C225.649 16.1557 224.021 14.8617 221.166 14.8617H215.835V21.8887H221.099ZM214.675 13.7917H221.233C223.174 13.7917 224.668 14.3717 225.627 15.3307C226.363 16.0667 226.81 17.0927 226.81 18.2307V18.2747C226.81 20.8847 224.846 22.3797 222.237 22.7367L227.389 29.4057H225.917L220.943 22.9377H215.835V29.4057H214.675V13.7917Z" fill="#F5F5F3"/>
<path d="M197.053 13.7913H208.162V14.8623H198.213V20.9963H207.158V22.0673H198.213V28.3353H208.273V29.4063H197.053V13.7913Z" fill="#F5F5F3"/>
<path d="M184.361 14.8621H178.918V13.7911H190.964V14.8621H185.521V29.4061H184.361V14.8621Z" fill="#F5F5F3"/>
<path d="M167.878 21.8887C170.488 21.8887 172.429 20.5507 172.429 18.3197V18.2747C172.429 16.1557 170.8 14.8617 167.945 14.8617H162.614V21.8887H167.878ZM161.454 13.7917H168.012C169.953 13.7917 171.447 14.3717 172.406 15.3307C173.142 16.0667 173.588 17.0927 173.588 18.2307V18.2747C173.588 20.8847 171.625 22.3797 169.016 22.7367L174.168 29.4057H172.696L167.722 22.9377H162.614V29.4057H161.454V13.7917Z" fill="#F5F5F3"/>
<path d="M151.729 23.9854L147.625 14.9514L143.498 23.9854H151.729ZM147.089 13.6794H148.205L155.476 29.4064H154.205L152.22 25.0344H143.007L141.022 29.4064H139.817L147.089 13.6794Z" fill="#F5F5F3"/>
<path d="M121.325 21.6433V21.5983C121.325 17.1823 124.626 13.5243 129.132 13.5243C131.898 13.5243 133.594 14.5273 135.2 16.0223L134.374 16.8703C133.014 15.5533 131.452 14.5723 129.11 14.5723C125.363 14.5723 122.53 17.6283 122.53 21.5543V21.5983C122.53 25.5243 125.407 28.6253 129.132 28.6253C131.385 28.6253 132.924 27.7773 134.508 26.1943L135.289 26.9523C133.616 28.5583 131.854 29.6743 129.088 29.6743C124.604 29.6743 121.325 26.1273 121.325 21.6433Z" fill="#F5F5F3"/>
<path d="M107.593 23.0599H110.721V21.8109H107.593V23.0599Z" fill="#B8A46A"/>
<path d="M107.578 23.0619H106.329V26.1899H107.578V23.0619Z" fill="#B8A46A"/>
<path d="M107.578 18.6819H106.329V21.8097H107.578V18.6819Z" fill="#B8A46A"/>
<path d="M103.199 23.0599H106.327V21.8109H103.199V23.0599Z" fill="#B8A46A"/>
<path d="M62.6473 40.208C65.7003 38.964 68.4393 37.331 71.1163 35.244L66.3233 33.542C64.3243 32.833 62.3893 32.241 60.3243 31.73C55.7203 30.622 47.1673 30.409 44.1503 34.722C43.0793 36.253 43.2223 38.168 44.5133 39.516C48.4723 43.646 57.8013 42.267 62.6473 40.208ZM79.8323 25.379C82.2643 23.347 84.4123 21.069 86.3183 18.54C86.7713 17.938 87.9433 16.325 87.2723 15.759C86.6713 15.251 85.0793 16.229 84.4423 16.658C81.9483 18.336 79.7183 20.294 77.7863 22.596C77.0133 23.518 75.2403 25.936 75.8983 27.089C76.4263 28.013 79.2603 25.856 79.8323 25.379ZM93.8053 31.198V31.899C93.3493 32.756 92.7473 33.487 91.8903 34.099C86.2593 38.117 79.5803 37.721 73.1353 35.851C67.9233 39.716 61.7113 42.318 55.2023 42.809C54.9643 42.791 54.6863 42.82 54.5813 42.915H51.9833C49.1763 42.612 45.8073 42.085 43.7093 39.818C42.3053 38.301 42.1673 36.116 43.3373 34.408C44.7663 32.323 47.4133 31.24 49.8553 30.767C55.1563 29.741 59.8473 30.668 64.9003 32.364L71.8043 34.682C74.9983 32.079 77.8123 29.181 80.4033 25.899C79.3273 26.57 78.3943 27.363 77.2373 27.847C75.8753 28.416 74.2813 27.839 73.8483 26.422C73.5433 25.422 73.8683 24.469 74.2573 23.532C72.6123 24.97 70.4233 26.974 68.3633 27.765C67.4953 28.098 66.3963 28.004 65.7263 27.343C64.3643 25.997 66.5963 23.162 67.5773 22.169L71.3263 18.379C71.8823 17.816 73.7733 16.094 73.1723 15.417C72.6243 14.8 70.7063 15.827 70.0663 16.251C67.0363 18.256 63.2573 22.05 60.8143 24.803C60.0303 25.687 59.5823 26.744 58.9143 27.745L56.2143 27.737C56.6853 26.714 57.1573 26.025 57.7043 25.102C56.1693 26.192 54.2553 27.969 52.3743 27.949C51.2753 27.937 50.4563 27.156 50.4263 26.075C50.3373 22.964 56.2493 17.28 58.4463 15.043L61.1493 15.084C59.7383 16.545 50.8563 25.444 52.5863 26.948C53.9463 28.132 60.5953 21.472 61.7043 20.263L66.5483 14.987L69.2593 15.022C68.1003 16.195 67.0693 17.199 66.0503 18.427C67.8153 17.067 70.7963 14.349 73.1023 14.537C73.7603 14.59 74.3683 14.913 74.6313 15.336C75.5633 16.833 73.8383 19.001 72.7273 20.146L68.8323 24.159C68.3633 24.642 66.8553 26.302 67.3663 26.913C68.7143 28.521 76.2033 20.664 77.3623 19.466C78.9293 17.846 80.7003 16.554 82.6993 15.556C83.9213 14.946 86.9093 13.842 87.8343 15.096C88.1553 15.531 88.2033 16.036 88.2803 16.644L89.7153 15.093L92.0903 15.138C88.2323 20.012 84.3473 24.643 80.1863 29.185C78.1893 31.364 76.1913 33.368 73.8883 35.312C79.0053 36.782 85.0023 37.393 89.6963 34.536C91.6173 33.064 90.8663 32.545 91.5443 31.025C91.7833 30.488 92.3013 30.246 92.8653 30.318C93.2813 30.371 93.5853 30.772 93.8053 31.198Z" fill="#F5F5F3"/>
<path d="M63.9039 11.4766C63.9229 12.3626 63.3389 12.9896 62.5649 13.0016C61.8179 13.0126 61.2899 12.3356 61.2799 11.5396C61.2709 10.7736 61.7409 10.1026 62.4439 10.0526C63.2299 9.99658 63.8849 10.5746 63.9039 11.4766Z" fill="#F5F5F3"/>
<path d="M60.5002 34.563C59.8922 33.258 57.2023 33.056 55.8843 33.131C51.4963 33.38 47.2692 34.831 43.5783 37.373C44.4363 38.816 45.8203 39.791 47.4533 40.234C54.9333 42.267 61.7242 37.189 60.5002 34.563ZM41.1952 16.579C41.1332 15.31 40.2622 14.694 39.1792 14.711C38.5062 14.685 37.7192 14.867 37.3882 15.503C37.1592 15.943 37.6092 16.365 38.0352 16.508C39.0392 16.844 40.1342 16.775 41.1952 16.579ZM64.2282 2.209C64.4262 1.905 64.5953 1.584 64.5312 1.336C64.4812 1.136 64.1472 0.931 63.8872 0.794C60.5452 0.418 57.0483 1.759 54.1413 3.31C56.9093 3.346 61.8422 3.48 64.2282 2.209ZM63.3353 0C63.9692 0.116 64.7892 0.308 65.1602 0.855C65.6482 1.576 65.1752 2.465 64.4672 2.859C63.4752 3.41 62.3423 3.656 61.1763 3.776C58.3722 4.067 55.6642 4.094 52.7902 4.071C50.5642 5.375 48.4523 6.72 46.3913 8.314L39.0942 13.953C40.7593 14.043 41.8662 14.855 42.2772 16.421C46.7872 15.462 52.1423 12.8 56.3182 10.646L65.3522 5.985C68.1062 4.564 70.8232 3.32 73.7132 2.218C76.1373 1.294 79.6963 0.265 82.2552 0.719L82.2422 1.436C80.3702 1.187 78.6532 1.508 76.8692 2.137C74.3152 3.038 71.9352 4.157 69.5293 5.432L60.4452 10.248C55.1462 13.057 48.4792 16.273 42.5042 17.197C42.6442 18.671 42.6742 20.052 42.5632 21.51L42.0923 27.709C41.9093 30.106 41.9022 34.243 43.0562 36.451C46.6132 33.854 50.7472 32.263 55.1452 32.006C56.7542 31.912 58.2902 32.054 59.6842 32.694C61.2352 33.405 61.7842 35.036 61.0002 36.538C58.1882 41.923 46.9142 43.498 43.0042 37.882C40.7122 39.626 38.9782 42.015 38.3812 44.81C38.2352 44.927 37.6952 44.876 37.7292 44.674C38.2422 41.633 40.0013 39.006 42.4043 37.038C40.6063 33.946 40.1692 28.691 40.5422 25.224L41.1672 19.415C41.2422 18.717 41.2803 18.027 41.2863 17.341C39.8193 17.457 37.0922 17.723 36.5832 15.882L28.9422 21.672C26.6092 23.44 24.2253 24.95 21.6852 26.405C19.5142 27.65 17.3572 28.692 14.9932 29.501C11.3542 30.745 6.73425 31.368 3.32725 29.272C0.808249 27.723 -0.525751 24.792 0.194249 21.926C0.525249 20.61 1.56725 19.612 2.87825 19.524C3.71125 19.469 4.43225 19.917 4.60625 20.623C4.77225 21.295 4.50325 22.091 3.80225 22.42L1.87425 23.326C1.15525 23.664 0.881249 24.414 1.11625 25.165C1.61025 26.735 2.75625 27.976 4.28025 28.699C6.82825 29.906 9.69825 29.917 12.3622 28.977C14.4452 28.242 16.3122 27.288 18.2072 26.139C21.3002 24.263 24.1733 22.235 27.0842 20.066L39.0583 11.141C42.5332 8.551 46.0443 6.299 49.9012 4.041L42.7702 3.827C38.3442 3.695 34.0452 3.62 29.6283 3.785C22.9482 4.034 11.2092 5.199 6.77925 10.756C4.47925 13.641 5.24125 17.758 8.46125 19.568C9.52525 20.166 10.6622 20.541 11.9132 20.682C21.7652 21.797 29.6022 15.343 33.4312 6.77C33.6032 6.689 33.9072 6.679 34.1402 6.732C31.2972 15.318 24.7132 21.487 15.4082 22.051C13.4962 22.167 11.6962 22.139 9.89025 21.486C8.03425 20.816 6.47225 19.621 5.53825 17.898C4.07325 15.195 4.50325 12.081 6.57425 9.825C11.2582 4.723 21.7143 3.479 28.3123 3.147C30.1483 3.054 31.8922 2.953 33.7422 2.983L43.0293 3.137L51.3042 3.353C54.9132 1.538 57.9603 0.427 61.8493 0H63.3353Z" fill="#F5F5F3"/>
</svg>
