<svg width="13" height="14" viewBox="0 0 13 14" fill="none" xmlns="http://www.w3.org/2000/svg">
<g clip-path="url(#clip0_3_342)">
<path d="M6.25488 0.00516071C2.80288 0.00516071 0.00488281 2.80316 0.00488281 6.25516C0.00488281 9.01716 1.79888 11.3612 4.27988 12.1932C4.22988 11.7172 4.18588 10.9672 4.33588 10.4672L5.08588 7.28616C5.08588 7.28616 4.88588 6.88016 4.88588 6.28616C4.88588 5.34916 5.40488 4.64916 6.04188 4.64916C6.59288 4.64916 6.86088 5.06116 6.86088 5.55516C6.86088 6.12416 6.47388 6.97416 6.27388 7.78016C6.11788 8.44316 6.61788 8.98016 7.26788 8.98016C8.46088 8.98016 9.37988 7.71716 9.37988 5.89916C9.37988 4.29916 8.26788 3.19916 6.27388 3.19916C4.02988 3.19916 2.71088 4.83616 2.71088 6.48616C2.71088 7.06716 2.94188 7.69216 3.24288 8.04316C3.30488 8.11116 3.31088 8.18016 3.29188 8.25516L3.11788 9.06816C3.09288 9.16116 3.02388 9.18616 2.92988 9.14216C2.07388 8.74916 1.56788 7.51716 1.56788 6.46116C1.56788 4.16116 3.24288 2.05516 6.48588 2.05516C9.06788 2.05516 11.0489 3.86816 11.0489 5.87416C11.0489 8.65516 9.41088 10.8922 7.09288 10.8922C6.43588 10.8922 5.82388 10.5552 5.62988 10.1422L5.21088 11.7992C5.06788 12.4742 4.62388 13.3492 4.36088 13.8242C4.96788 13.9862 5.60488 14.0682 6.25488 14.0682C9.70688 14.0682 12.5049 11.2692 12.5049 7.81716C12.9979 5.91216 12.5649 3.88516 11.3349 2.34716C10.1049 0.810161 8.22288 -0.0578393 6.25488 0.00516071Z" fill="#AFAFAF"/>
</g>
<defs>
<clipPath id="clip0_3_342">
<rect width="12.7" height="13.76" fill="white"/>
</clipPath>
</defs>
</svg>
