<svg width="8" height="8" viewBox="0 0 8 8" fill="none" xmlns="http://www.w3.org/2000/svg">
<g opacity="0.498001">
<path d="M7.57775 0.15375C7.78275 0.35875 7.78275 0.69075 7.57775 0.89575L0.89575 7.57875C0.69075 7.78375 0.35875 7.78375 0.15375 7.57875C-0.05125 7.37375 -0.05125 7.04075 0.15375 6.83575L6.83575 0.15375C7.04075 -0.05125 7.37275 -0.05125 7.57775 0.15375ZM7.57775 3.86575C7.78275 4.07075 7.78275 4.40375 7.57775 4.60875L4.60775 7.57875C4.40275 7.78375 4.07075 7.78375 3.86575 7.57875C3.66075 7.37375 3.66075 7.04075 3.86575 6.83575L6.83575 3.86575C7.04075 3.66075 7.37275 3.66075 7.57775 3.86575Z" fill="black"/>
</g>
</svg>
