<svg width="24" height="24" viewBox="0 0 24 24" fill="none" xmlns="http://www.w3.org/2000/svg">
<path fill-rule="evenodd" clip-rule="evenodd" d="M24 12C24 18.627 18.627 24 12 24C5.373 24 0 18.627 0 12C0 5.373 5.373 0 12 0C18.627 0 24 5.373 24 12ZM23 12C23 18.075 18.075 23 12 23C5.925 23 1 18.075 1 12C1 5.925 5.925 1 12 1C18.075 1 23 5.925 23 12Z" fill="#666666"/>
<path fill-rule="evenodd" clip-rule="evenodd" d="M12 16.375C11.827 16.375 11.688 16.235 11.688 16.063V8.69202L9.721 10.659C9.599 10.781 9.401 10.781 9.279 10.659C9.157 10.537 9.157 10.338 9.279 10.216L11.779 7.71602C11.837 7.65702 11.917 7.62402 12 7.62402C12.083 7.62402 12.163 7.65702 12.221 7.71602L14.721 10.216C14.843 10.338 14.843 10.536 14.721 10.659C14.599 10.781 14.401 10.781 14.279 10.659L12.312 8.69202V16.063C12.312 16.235 12.173 16.375 12 16.375Z" fill="#AFAFAF"/>
</svg>
