<svg width="109" height="34" viewBox="0 0 109 34" fill="none" xmlns="http://www.w3.org/2000/svg">
<mask id="mask0_3_2109" style="mask-type:luminance" maskUnits="userSpaceOnUse" x="0" y="0" width="109" height="34">
<path d="M16.963 0C7.595 0 0 7.611 0 16.999C0 26.389 7.595 34 16.963 34H91.537C100.905 34 108.5 26.389 108.5 16.999C108.5 7.611 100.905 0 91.537 0H16.963Z" fill="white"/>
</mask>
<g mask="url(#mask0_3_2109)">
<path d="M16.6722 21.5005V11.6095H18.7634V19.7763H23.0037V21.5005H16.6722ZM27.7307 21.6454C26.9676 21.6454 26.3108 21.4908 25.7602 21.1817C25.2129 20.8694 24.7911 20.4283 24.4949 19.8584C24.1987 19.2853 24.0506 18.6076 24.0506 17.8252C24.0506 17.0621 24.1987 16.3924 24.4949 15.8161C24.7911 15.2397 25.208 14.7906 25.7457 14.4686C26.2866 14.1466 26.9209 13.9857 27.6486 13.9857C28.138 13.9857 28.5936 14.0645 29.0154 14.2223C29.4404 14.3769 29.8106 14.6103 30.1262 14.9226C30.4449 15.2349 30.6928 15.6277 30.8699 16.101C31.047 16.5711 31.1355 17.1217 31.1355 17.7527V18.3178H24.8716V17.0428H29.1989C29.1989 16.7466 29.1345 16.4842 29.0057 16.2556C28.8769 16.027 28.6982 15.8483 28.4696 15.7195C28.2442 15.5875 27.9818 15.5215 27.6824 15.5215C27.3701 15.5215 27.0932 15.5939 26.8517 15.7388C26.6135 15.8805 26.4267 16.072 26.2915 16.3135C26.1563 16.5518 26.087 16.8174 26.0838 17.1104V18.3226C26.0838 18.6897 26.1514 19.0068 26.2866 19.2741C26.4251 19.5413 26.6199 19.7474 26.871 19.8922C27.1222 20.0371 27.42 20.1096 27.7645 20.1096C27.9931 20.1096 28.2024 20.0774 28.3923 20.013C28.5823 19.9486 28.7449 19.852 28.8801 19.7232C29.0154 19.5944 29.1184 19.4366 29.1892 19.2499L31.0921 19.3755C30.9955 19.8327 30.7975 20.2319 30.498 20.5732C30.2018 20.9113 29.8187 21.1753 29.3486 21.3653C28.8817 21.552 28.3424 21.6454 27.7307 21.6454ZM34.5935 21.6405C34.1202 21.6405 33.6984 21.5584 33.3282 21.3942C32.9579 21.2268 32.6649 20.9805 32.4492 20.6553C32.2367 20.3269 32.1304 19.918 32.1304 19.4286C32.1304 19.0165 32.2061 18.6704 32.3574 18.3902C32.5088 18.1101 32.7148 17.8847 32.9756 17.7141C33.2364 17.5435 33.5326 17.4147 33.8643 17.3277C34.1991 17.2408 34.5501 17.1796 34.9171 17.1442C35.3485 17.0991 35.6963 17.0573 35.9603 17.0186C36.2243 16.9768 36.4159 16.9156 36.535 16.8351C36.6541 16.7546 36.7137 16.6355 36.7137 16.4777V16.4487C36.7137 16.1429 36.6171 15.9062 36.4239 15.7388C36.234 15.5714 35.9635 15.4877 35.6126 15.4877C35.2423 15.4877 34.9477 15.5698 34.7288 15.734C34.5098 15.895 34.3649 16.0978 34.2941 16.3425L32.3912 16.188C32.4878 15.7372 32.6778 15.3476 32.9611 15.0192C33.2445 14.6876 33.6099 14.4332 34.0574 14.2561C34.5082 14.0758 35.0298 13.9857 35.6222 13.9857C36.0343 13.9857 36.4288 14.034 36.8055 14.1306C37.1854 14.2271 37.5219 14.3769 37.8149 14.5797C38.1111 14.7825 38.3445 15.0433 38.5151 15.3621C38.6858 15.6776 38.7711 16.0559 38.7711 16.497V21.5005H36.82V20.4718H36.762C36.6429 20.7036 36.4835 20.9081 36.2839 21.0851C36.0843 21.259 35.8444 21.3958 35.5643 21.4957C35.2842 21.5923 34.9606 21.6405 34.5935 21.6405ZM35.1827 20.2206C35.4854 20.2206 35.7526 20.1611 35.9844 20.042C36.2163 19.9196 36.3982 19.7554 36.5302 19.5493C36.6622 19.3433 36.7282 19.1098 36.7282 18.849V18.0618C36.6638 18.1037 36.5753 18.1423 36.4626 18.1777C36.3531 18.2099 36.2291 18.2405 36.0907 18.2695C35.9522 18.2953 35.8138 18.3194 35.6754 18.3419C35.5369 18.3613 35.4113 18.379 35.2986 18.3951C35.0572 18.4305 34.8463 18.4868 34.666 18.5641C34.4857 18.6414 34.3456 18.746 34.2458 18.878C34.146 19.0068 34.0961 19.1678 34.0961 19.361C34.0961 19.6411 34.1975 19.8552 34.4003 20.0033C34.6064 20.1482 34.8672 20.2206 35.1827 20.2206ZM40.3673 21.5005V14.0823H42.3619V15.3766H42.4392C42.5744 14.9162 42.8014 14.5684 43.1201 14.3334C43.4389 14.0951 43.8059 13.976 44.2213 13.976C44.3243 13.976 44.4354 13.9824 44.5545 13.9953C44.6737 14.0082 44.7783 14.0259 44.8685 14.0484V15.874C44.7719 15.8451 44.6382 15.8193 44.4676 15.7968C44.297 15.7742 44.1408 15.7629 43.9991 15.7629C43.6965 15.7629 43.426 15.829 43.1878 15.961C42.9527 16.0898 42.766 16.2701 42.6275 16.5019C42.4923 16.7337 42.4247 17.0009 42.4247 17.3036V21.5005H40.3673ZM47.9896 17.2118V21.5005H45.9322V14.0823H47.893V15.3911H47.9799C48.1441 14.9596 48.4194 14.6183 48.8058 14.3672C49.1921 14.1128 49.6606 13.9857 50.2112 13.9857C50.7263 13.9857 51.1755 14.0984 51.5586 14.3237C51.9418 14.5491 52.2396 14.8711 52.4521 15.2896C52.6646 15.705 52.7709 16.2008 52.7709 16.7772V21.5005H50.7135V17.1442C50.7167 16.6902 50.6008 16.3361 50.3657 16.0817C50.1307 15.8241 49.8071 15.6953 49.395 15.6953C49.1181 15.6953 48.8734 15.7549 48.6609 15.874C48.4516 15.9932 48.2874 16.167 48.1683 16.3956C48.0524 16.621 47.9928 16.8931 47.9896 17.2118ZM57.5401 21.5005V14.0823H59.5009V15.3911H59.5878C59.7423 14.9564 59.9999 14.6135 60.3605 14.3624C60.7211 14.1112 61.1526 13.9857 61.6549 13.9857C62.1636 13.9857 62.5966 14.1128 62.954 14.3672C63.3114 14.6183 63.5497 14.9596 63.6688 15.3911H63.7461C63.8974 14.9661 64.1711 14.6264 64.5671 14.372C64.9663 14.1145 65.438 13.9857 65.9822 13.9857C66.6744 13.9857 67.2362 14.2062 67.6677 14.6473C68.1023 15.0852 68.3197 15.7066 68.3197 16.5115V21.5005H66.2671V16.9172C66.2671 16.5051 66.1576 16.196 65.9387 15.9899C65.7198 15.7839 65.4461 15.6808 65.1177 15.6808C64.7442 15.6808 64.4528 15.8 64.2435 16.0382C64.0342 16.2733 63.9296 16.584 63.9296 16.9703V21.5005H61.935V16.8738C61.935 16.5099 61.8303 16.2201 61.6211 16.0044C61.415 15.7887 61.1429 15.6808 60.8049 15.6808C60.5763 15.6808 60.3702 15.7388 60.1867 15.8547C60.0064 15.9674 59.8631 16.1268 59.7568 16.3328C59.6506 16.5357 59.5975 16.7739 59.5975 17.0476V21.5005H57.5401ZM73.2966 21.6454C72.5464 21.6454 71.8976 21.486 71.3502 21.1672C70.8061 20.8453 70.3859 20.3977 70.0897 19.8246C69.7935 19.2483 69.6454 18.5802 69.6454 17.8203C69.6454 17.0541 69.7935 16.3844 70.0897 15.8112C70.3859 15.2349 70.8061 14.7874 71.3502 14.4686C71.8976 14.1466 72.5464 13.9857 73.2966 13.9857C74.0468 13.9857 74.6939 14.1466 75.2381 14.4686C75.7854 14.7874 76.2072 15.2349 76.5034 15.8112C76.7996 16.3844 76.9477 17.0541 76.9477 17.8203C76.9477 18.5802 76.7996 19.2483 76.5034 19.8246C76.2072 20.3977 75.7854 20.8453 75.2381 21.1672C74.6939 21.486 74.0468 21.6454 73.2966 21.6454ZM73.3062 20.0516C73.6475 20.0516 73.9325 19.955 74.1611 19.7618C74.3897 19.5654 74.5619 19.2982 74.6778 18.9601C74.797 18.6221 74.8565 18.2373 74.8565 17.8059C74.8565 17.3744 74.797 16.9897 74.6778 16.6516C74.5619 16.3135 74.3897 16.0463 74.1611 15.8499C73.9325 15.6535 73.6475 15.5553 73.3062 15.5553C72.9617 15.5553 72.6719 15.6535 72.4369 15.8499C72.2051 16.0463 72.0296 16.3135 71.9105 16.6516C71.7946 16.9897 71.7366 17.3744 71.7366 17.8059C71.7366 18.2373 71.7946 18.6221 71.9105 18.9601C72.0296 19.2982 72.2051 19.5654 72.4369 19.7618C72.6719 19.955 72.9617 20.0516 73.3062 20.0516ZM78.2855 21.5005V14.0823H80.2801V15.3766H80.3574C80.4926 14.9162 80.7196 14.5684 81.0384 14.3334C81.3571 14.0951 81.7242 13.976 82.1395 13.976C82.2426 13.976 82.3536 13.9824 82.4728 13.9953C82.5919 14.0082 82.6965 14.0259 82.7867 14.0484V15.874C82.6901 15.8451 82.5565 15.8193 82.3858 15.7968C82.2152 15.7742 82.059 15.7629 81.9174 15.7629C81.6147 15.7629 81.3443 15.829 81.106 15.961C80.871 16.0898 80.6842 16.2701 80.5458 16.5019C80.4105 16.7337 80.3429 17.0009 80.3429 17.3036V21.5005H78.2855ZM86.8858 21.6454C86.1227 21.6454 85.4659 21.4908 84.9153 21.1817C84.368 20.8694 83.9462 20.4283 83.65 19.8584C83.3538 19.2853 83.2056 18.6076 83.2056 17.8252C83.2056 17.0621 83.3538 16.3924 83.65 15.8161C83.9462 15.2397 84.3631 14.7906 84.9008 14.4686C85.4417 14.1466 86.076 13.9857 86.8037 13.9857C87.2931 13.9857 87.7487 14.0645 88.1705 14.2223C88.5955 14.3769 88.9657 14.6103 89.2813 14.9226C89.6 15.2349 89.8479 15.6277 90.025 16.101C90.2021 16.5711 90.2906 17.1217 90.2906 17.7527V18.3178H84.0267V17.0428H88.354C88.354 16.7466 88.2896 16.4842 88.1608 16.2556C88.032 16.027 87.8533 15.8483 87.6247 15.7195C87.3993 15.5875 87.1369 15.5215 86.8375 15.5215C86.5252 15.5215 86.2483 15.5939 86.0068 15.7388C85.7685 15.8805 85.5818 16.072 85.4466 16.3135C85.3113 16.5518 85.2421 16.8174 85.2389 17.1104V18.3226C85.2389 18.6897 85.3065 19.0068 85.4417 19.2741C85.5802 19.5413 85.775 19.7474 86.0261 19.8922C86.2773 20.0371 86.5751 20.1096 86.9196 20.1096C87.1482 20.1096 87.3575 20.0774 87.5474 20.013C87.7374 19.9486 87.9 19.852 88.0352 19.7232C88.1705 19.5944 88.2735 19.4366 88.3443 19.2499L90.2472 19.3755C90.1506 19.8327 89.9526 20.2319 89.6531 20.5732C89.3569 20.9113 88.9738 21.1753 88.5037 21.3653C88.0368 21.552 87.4975 21.6454 86.8858 21.6454Z" fill="#F2F2F2"/>
</g>
</svg>
