<svg width="109" height="34" viewBox="0 0 109 34" fill="none" xmlns="http://www.w3.org/2000/svg">
<mask id="mask0_3_2087" style="mask-type:luminance" maskUnits="userSpaceOnUse" x="0" y="0" width="109" height="34">
<path d="M17.041 0C7.63 0 0 7.611 0 16.999C0 26.389 7.63 34 17.041 34H91.958C101.369 34 109 26.389 109 16.999C109 7.611 101.369 0 91.958 0H17.041Z" fill="white"/>
</mask>
<g mask="url(#mask0_3_2087)">
<path d="M17.0154 21.5005V11.6095H19.1066V19.7763H23.347V21.5005H17.0154ZM28.074 21.6454C27.3109 21.6454 26.6541 21.4908 26.1035 21.1817C25.5561 20.8694 25.1344 20.4283 24.8381 19.8584C24.5419 19.2853 24.3938 18.6076 24.3938 17.8252C24.3938 17.0621 24.5419 16.3924 24.8381 15.8161C25.1344 15.2397 25.5513 14.7906 26.089 14.4686C26.6299 14.1466 27.2642 13.9857 27.9919 13.9857C28.4812 13.9857 28.9368 14.0645 29.3586 14.2223C29.7836 14.3769 30.1539 14.6103 30.4694 14.9226C30.7882 15.2349 31.0361 15.6277 31.2132 16.101C31.3903 16.5711 31.4788 17.1217 31.4788 17.7527V18.3178H25.2148V17.0428H29.5421C29.5421 16.7466 29.4778 16.4842 29.349 16.2556C29.2202 16.027 29.0415 15.8483 28.8129 15.7195C28.5875 15.5875 28.3251 15.5215 28.0257 15.5215C27.7133 15.5215 27.4365 15.5939 27.195 15.7388C26.9567 15.8805 26.77 16.072 26.6347 16.3135C26.4995 16.5518 26.4303 16.8174 26.4271 17.1104V18.3226C26.4271 18.6897 26.4947 19.0068 26.6299 19.2741C26.7684 19.5413 26.9632 19.7474 27.2143 19.8922C27.4654 20.0371 27.7633 20.1096 28.1078 20.1096C28.3364 20.1096 28.5456 20.0774 28.7356 20.013C28.9256 19.9486 29.0882 19.852 29.2234 19.7232C29.3586 19.5944 29.4617 19.4366 29.5325 19.2499L31.4353 19.3755C31.3388 19.8327 31.1407 20.2319 30.8413 20.5732C30.5451 20.9113 30.1619 21.1753 29.6919 21.3653C29.225 21.552 28.6857 21.6454 28.074 21.6454ZM34.9368 21.6405C34.4635 21.6405 34.0417 21.5584 33.6714 21.3942C33.3012 21.2268 33.0082 20.9805 32.7925 20.6553C32.58 20.3269 32.4737 19.918 32.4737 19.4286C32.4737 19.0165 32.5494 18.6704 32.7007 18.3902C32.852 18.1101 33.0581 17.8847 33.3189 17.7141C33.5797 17.5435 33.8759 17.4147 34.2075 17.3277C34.5424 17.2408 34.8933 17.1796 35.2604 17.1442C35.6918 17.0991 36.0395 17.0573 36.3036 17.0186C36.5676 16.9768 36.7591 16.9156 36.8783 16.8351C36.9974 16.7546 37.057 16.6355 37.057 16.4777V16.4487C37.057 16.1429 36.9604 15.9062 36.7672 15.7388C36.5772 15.5714 36.3068 15.4877 35.9558 15.4877C35.5856 15.4877 35.291 15.5698 35.072 15.734C34.8531 15.895 34.7082 16.0978 34.6374 16.3425L32.7345 16.188C32.8311 15.7372 33.0211 15.3476 33.3044 15.0192C33.5877 14.6876 33.9532 14.4332 34.4007 14.2561C34.8515 14.0758 35.3731 13.9857 35.9655 13.9857C36.3776 13.9857 36.772 14.034 37.1487 14.1306C37.5287 14.2271 37.8651 14.3769 38.1581 14.5797C38.4543 14.7825 38.6878 15.0433 38.8584 15.3621C39.029 15.6776 39.1144 16.0559 39.1144 16.497V21.5005H37.1632V20.4718H37.1053C36.9861 20.7036 36.8268 20.9081 36.6271 21.0851C36.4275 21.259 36.1876 21.3958 35.9075 21.4957C35.6274 21.5923 35.3038 21.6405 34.9368 21.6405ZM35.526 20.2206C35.8286 20.2206 36.0959 20.1611 36.3277 20.042C36.5595 19.9196 36.7414 19.7554 36.8734 19.5493C37.0055 19.3433 37.0715 19.1098 37.0715 18.849V18.0618C37.0071 18.1037 36.9185 18.1423 36.8058 18.1777C36.6964 18.2099 36.5724 18.2405 36.434 18.2695C36.2955 18.2953 36.1571 18.3194 36.0186 18.3419C35.8802 18.3613 35.7546 18.379 35.6419 18.3951C35.4004 18.4305 35.1895 18.4868 35.0092 18.5641C34.8289 18.6414 34.6889 18.746 34.5891 18.878C34.4892 19.0068 34.4393 19.1678 34.4393 19.361C34.4393 19.6411 34.5408 19.8552 34.7436 20.0033C34.9497 20.1482 35.2105 20.2206 35.526 20.2206ZM40.7105 21.5005V14.0823H42.7052V15.3766H42.7824C42.9177 14.9162 43.1447 14.5684 43.4634 14.3334C43.7822 14.0951 44.1492 13.976 44.5646 13.976C44.6676 13.976 44.7787 13.9824 44.8978 13.9953C45.0169 14.0082 45.1216 14.0259 45.2117 14.0484V15.874C45.1151 15.8451 44.9815 15.8193 44.8109 15.7968C44.6402 15.7742 44.4841 15.7629 44.3424 15.7629C44.0397 15.7629 43.7693 15.829 43.531 15.961C43.296 16.0898 43.1092 16.2701 42.9708 16.5019C42.8356 16.7337 42.7679 17.0009 42.7679 17.3036V21.5005H40.7105ZM48.3328 17.2118V21.5005H46.2754V14.0823H48.2362V15.3911H48.3232C48.4874 14.9596 48.7627 14.6183 49.149 14.3672C49.5354 14.1128 50.0039 13.9857 50.5544 13.9857C51.0696 13.9857 51.5187 14.0984 51.9019 14.3237C52.285 14.5491 52.5829 14.8711 52.7954 15.2896C53.0079 15.705 53.1141 16.2008 53.1141 16.7772V21.5005H51.0567V17.1442C51.0599 16.6902 50.944 16.3361 50.709 16.0817C50.4739 15.8241 50.1504 15.6953 49.7382 15.6953C49.4613 15.6953 49.2166 15.7549 49.0041 15.874C48.7949 15.9932 48.6307 16.167 48.5115 16.3956C48.3956 16.621 48.336 16.8931 48.3328 17.2118ZM57.8833 21.5005V14.0823H59.8441V15.3911H59.9311C60.0856 14.9564 60.3432 14.6135 60.7038 14.3624C61.0644 14.1112 61.4958 13.9857 61.9981 13.9857C62.5068 13.9857 62.9399 14.1128 63.2973 14.3672C63.6547 14.6183 63.8929 14.9596 64.0121 15.3911H64.0893C64.2407 14.9661 64.5143 14.6264 64.9104 14.372C65.3096 14.1145 65.7813 13.9857 66.3254 13.9857C67.0177 13.9857 67.5795 14.2062 68.0109 14.6473C68.4456 15.0852 68.6629 15.7066 68.6629 16.5115V21.5005H66.6104V16.9172C66.6104 16.5051 66.5009 16.196 66.282 15.9899C66.063 15.7839 65.7893 15.6808 65.4609 15.6808C65.0874 15.6808 64.7961 15.8 64.5868 16.0382C64.3775 16.2733 64.2729 16.584 64.2729 16.9703V21.5005H62.2782V16.8738C62.2782 16.5099 62.1736 16.2201 61.9643 16.0044C61.7583 15.7887 61.4862 15.6808 61.1481 15.6808C60.9195 15.6808 60.7135 15.7388 60.5299 15.8547C60.3496 15.9674 60.2063 16.1268 60.1001 16.3328C59.9938 16.5357 59.9407 16.7739 59.9407 17.0476V21.5005H57.8833ZM73.6398 21.6454C72.8896 21.6454 72.2409 21.486 71.6935 21.1672C71.1494 20.8453 70.7292 20.3977 70.433 19.8246C70.1368 19.2483 69.9887 18.5802 69.9887 17.8203C69.9887 17.0541 70.1368 16.3844 70.433 15.8112C70.7292 15.2349 71.1494 14.7874 71.6935 14.4686C72.2409 14.1466 72.8896 13.9857 73.6398 13.9857C74.39 13.9857 75.0372 14.1466 75.5813 14.4686C76.1287 14.7874 76.5504 15.2349 76.8467 15.8112C77.1429 16.3844 77.291 17.0541 77.291 17.8203C77.291 18.5802 77.1429 19.2483 76.8467 19.8246C76.5504 20.3977 76.1287 20.8453 75.5813 21.1672C75.0372 21.486 74.39 21.6454 73.6398 21.6454ZM73.6495 20.0516C73.9908 20.0516 74.2757 19.955 74.5043 19.7618C74.7329 19.5654 74.9052 19.2982 75.0211 18.9601C75.1402 18.6221 75.1998 18.2373 75.1998 17.8059C75.1998 17.3744 75.1402 16.9897 75.0211 16.6516C74.9052 16.3135 74.7329 16.0463 74.5043 15.8499C74.2757 15.6535 73.9908 15.5553 73.6495 15.5553C73.305 15.5553 73.0152 15.6535 72.7802 15.8499C72.5483 16.0463 72.3729 16.3135 72.2537 16.6516C72.1378 16.9897 72.0799 17.3744 72.0799 17.8059C72.0799 18.2373 72.1378 18.6221 72.2537 18.9601C72.3729 19.2982 72.5483 19.5654 72.7802 19.7618C73.0152 19.955 73.305 20.0516 73.6495 20.0516ZM78.6288 21.5005V14.0823H80.6234V15.3766H80.7007C80.8359 14.9162 81.0629 14.5684 81.3816 14.3334C81.7004 14.0951 82.0674 13.976 82.4828 13.976C82.5858 13.976 82.6969 13.9824 82.816 13.9953C82.9352 14.0082 83.0398 14.0259 83.1299 14.0484V15.874C83.0334 15.8451 82.8997 15.8193 82.7291 15.7968C82.5584 15.7742 82.4023 15.7629 82.2606 15.7629C81.958 15.7629 81.6875 15.829 81.4493 15.961C81.2142 16.0898 81.0275 16.2701 80.889 16.5019C80.7538 16.7337 80.6862 17.0009 80.6862 17.3036V21.5005H78.6288ZM87.229 21.6454C86.466 21.6454 85.8092 21.4908 85.2586 21.1817C84.7112 20.8694 84.2894 20.4283 83.9932 19.8584C83.697 19.2853 83.5489 18.6076 83.5489 17.8252C83.5489 17.0621 83.697 16.3924 83.9932 15.8161C84.2894 15.2397 84.7064 14.7906 85.2441 14.4686C85.785 14.1466 86.4193 13.9857 87.1469 13.9857C87.6363 13.9857 88.0919 14.0645 88.5137 14.2223C88.9387 14.3769 89.309 14.6103 89.6245 14.9226C89.9433 15.2349 90.1912 15.6277 90.3683 16.101C90.5454 16.5711 90.6339 17.1217 90.6339 17.7527V18.3178H84.3699V17.0428H88.6972C88.6972 16.7466 88.6328 16.4842 88.5041 16.2556C88.3753 16.027 88.1966 15.8483 87.968 15.7195C87.7426 15.5875 87.4802 15.5215 87.1808 15.5215C86.8684 15.5215 86.5915 15.5939 86.3501 15.7388C86.1118 15.8805 85.9251 16.072 85.7898 16.3135C85.6546 16.5518 85.5854 16.8174 85.5822 17.1104V18.3226C85.5822 18.6897 85.6498 19.0068 85.785 19.2741C85.9235 19.5413 86.1182 19.7474 86.3694 19.8922C86.6205 20.0371 86.9183 20.1096 87.2629 20.1096C87.4915 20.1096 87.7007 20.0774 87.8907 20.013C88.0807 19.9486 88.2433 19.852 88.3785 19.7232C88.5137 19.5944 88.6167 19.4366 88.6876 19.2499L90.5904 19.3755C90.4938 19.8327 90.2958 20.2319 89.9964 20.5732C89.7002 20.9113 89.317 21.1753 88.847 21.3653C88.3801 21.552 87.8408 21.6454 87.229 21.6454Z" fill="#F2F2F2"/>
</g>
</svg>
