<svg width="120" height="40" viewBox="0 0 120 40" fill="none" xmlns="http://www.w3.org/2000/svg">
<path d="M110.135 0H9.535C9.168 0 8.806 0 8.44 0.002C8.134 0.004 7.83 0.01 7.521 0.015C6.85 0.023 6.18 0.082 5.517 0.191C4.856 0.304 4.215 0.515 3.616 0.818C3.019 1.124 2.473 1.522 1.998 1.997C1.521 2.471 1.123 3.018 0.82 3.618C0.516 4.217 0.305 4.859 0.195 5.521C0.083 6.183 0.023 6.853 0.015 7.523C0.006 7.83 0.005 8.138 0 8.444V31.559C0.005 31.869 0.006 32.17 0.015 32.48C0.023 33.151 0.083 33.821 0.195 34.482C0.305 35.145 0.515 35.788 0.82 36.387C1.123 36.985 1.52 37.53 1.998 38.001C2.471 38.478 3.017 38.876 3.616 39.18C4.215 39.484 4.856 39.697 5.517 39.81C6.18 39.919 6.85 39.978 7.521 39.987C7.83 39.994 8.134 39.998 8.44 39.998C8.806 40 9.168 40 9.535 40H110.135C110.494 40 110.86 40 111.219 39.998C111.524 39.998 111.836 39.994 112.141 39.987C112.811 39.979 113.48 39.92 114.141 39.811C114.805 39.696 115.448 39.483 116.049 39.18C116.648 38.876 117.194 38.478 117.666 38.001C118.142 37.528 118.541 36.983 118.848 36.387C119.15 35.787 119.359 35.145 119.467 34.482C119.579 33.821 119.641 33.151 119.653 32.481C119.656 32.17 119.656 31.869 119.656 31.559C119.664 31.195 119.664 30.834 119.664 30.465V9.536C119.664 9.17 119.664 8.807 119.656 8.444C119.656 8.138 119.656 7.83 119.653 7.523C119.641 6.852 119.579 6.183 119.467 5.521C119.358 4.859 119.15 4.218 118.848 3.618C118.231 2.415 117.252 1.436 116.049 0.818C115.448 0.516 114.805 0.304 114.141 0.191C113.48 0.081 112.811 0.022 112.141 0.015C111.836 0.01 111.524 0.004 111.219 0.002C110.86 0 110.494 0 110.135 0Z" fill="#A6A6A6"/>
<path d="M8.44505 39.125C8.14005 39.125 7.84305 39.121 7.54105 39.114C6.91405 39.106 6.29005 39.052 5.67205 38.951C5.09505 38.852 4.53705 38.667 4.01505 38.403C3.49805 38.142 3.02605 37.798 2.61805 37.387C2.20405 36.98 1.85905 36.508 1.59705 35.99C1.33305 35.469 1.15005 34.91 1.05405 34.333C0.951047 33.713 0.896047 33.086 0.888047 32.458C0.881047 32.247 0.873047 31.545 0.873047 31.545V8.444C0.873047 8.444 0.882047 7.753 0.888047 7.55C0.896047 6.922 0.951047 6.297 1.05305 5.678C1.14905 5.099 1.33205 4.539 1.59705 4.016C1.85805 3.498 2.20005 3.026 2.61205 2.618C3.02305 2.206 3.49605 1.861 4.01405 1.595C4.53505 1.332 5.09205 1.149 5.66805 1.051C6.28805 0.95 6.91505 0.895 7.54305 0.887L8.44605 0.875H111.214L112.127 0.888C112.75 0.895 113.371 0.949 113.986 1.05C114.567 1.149 115.13 1.334 115.656 1.598C116.694 2.133 117.539 2.979 118.071 4.018C118.332 4.538 118.512 5.094 118.607 5.667C118.71 6.291 118.769 6.922 118.78 7.554C118.783 7.837 118.783 8.142 118.783 8.444C118.791 8.819 118.791 9.176 118.791 9.536V30.465C118.791 30.828 118.791 31.183 118.783 31.54C118.783 31.865 118.783 32.163 118.779 32.47C118.768 33.091 118.711 33.71 118.609 34.323C118.515 34.904 118.333 35.468 118.069 35.993C117.805 36.506 117.462 36.973 117.053 37.379C116.644 37.793 116.172 38.138 115.654 38.401C115.128 38.667 114.566 38.853 113.986 38.951C113.367 39.052 112.743 39.107 112.116 39.114C111.823 39.121 111.517 39.125 111.219 39.125L110.135 39.127L8.44505 39.125Z" fill="black"/>
<path d="M109.385 27.8371C109.135 29.4801 107.534 30.6081 105.486 30.6081C102.853 30.6081 101.218 28.8441 101.218 26.0131C101.218 23.1731 102.861 21.3311 105.408 21.3311C107.913 21.3311 109.489 23.0521 109.489 25.7971V26.4341H103.094V26.5461C103.034 27.2201 103.267 27.8871 103.733 28.3781C104.199 28.8681 104.853 29.1351 105.529 29.1101C106.431 29.1951 107.282 28.6771 107.62 27.8371H109.385ZM103.103 25.1351H107.629C107.663 24.5291 107.442 23.9371 107.021 23.5011C106.599 23.0641 106.015 22.8241 105.408 22.8371C104.797 22.8331 104.21 23.0741 103.777 23.5051C103.344 23.9371 103.101 24.5241 103.103 25.1351Z" fill="white"/>
<path d="M96.1865 21.4423H97.9585V22.9833H98.0015C98.2495 21.9913 99.1585 21.3093 100.18 21.3483C100.394 21.3473 100.608 21.3703 100.817 21.4173V23.1553C100.547 23.0733 100.264 23.0353 99.9815 23.0433C99.4355 23.0213 98.9065 23.2393 98.5345 23.6393C98.1615 24.0393 97.9825 24.5833 98.0445 25.1263V30.4963H96.1865V21.4423Z" fill="white"/>
<path d="M86.0654 25.9701C86.0654 23.1211 87.7434 21.3311 90.3594 21.3311C92.9844 21.3311 94.6544 23.1211 94.6544 25.9701C94.6544 28.8261 92.9934 30.6081 90.3594 30.6081C87.7264 30.6081 86.0654 28.8261 86.0654 25.9701ZM92.7604 25.9701C92.7604 24.0161 91.8654 22.8621 90.3594 22.8621C88.8534 22.8621 87.9584 24.0241 87.9584 25.9701C87.9584 27.9321 88.8534 29.0761 90.3594 29.0761C91.8654 29.0761 92.7604 27.9321 92.7604 25.9701Z" fill="white"/>
<path d="M83.3466 19.2998V21.4418H85.0686V22.9138H83.3466V27.9048C83.3466 28.6808 83.6916 29.0418 84.4486 29.0418C84.6526 29.0378 84.8566 29.0238 85.0596 28.9988V30.4618C84.7196 30.5248 84.3736 30.5538 84.0276 30.5478C82.1946 30.5478 81.4796 29.8588 81.4796 28.1028V22.9138H80.1626V21.4418H81.4796V19.2998H83.3466Z" fill="white"/>
<path d="M71.7106 27.0361C71.8486 28.2681 73.0446 29.0761 74.6796 29.0761C76.2456 29.0761 77.3726 28.2681 77.3726 27.1571C77.3726 26.1931 76.6926 25.6161 75.0836 25.2211L73.4746 24.8331C71.1936 24.2821 70.1356 23.2161 70.1356 21.4851C70.1356 19.3431 72.0026 17.8711 74.6536 17.8711C77.2776 17.8711 79.0766 19.3431 79.1376 21.4851H77.2616C77.1486 20.2461 76.1246 19.4981 74.6276 19.4981C73.1306 19.4981 72.1066 20.2551 72.1066 21.3561C72.1066 22.2341 72.7606 22.7511 74.3606 23.1461L75.7296 23.4821C78.2766 24.0851 79.3356 25.1081 79.3356 26.9251C79.3356 29.2481 77.4846 30.7031 74.5416 30.7031C71.7876 30.7031 69.9286 29.2821 69.8086 27.0361H71.7106Z" fill="white"/>
<path d="M65.1247 25.9703C65.1247 28.7833 63.6187 30.5913 61.3467 30.5913C60.1717 30.6523 59.0657 30.0373 58.4977 29.0073H58.4547V33.4913H56.5967V21.4423H58.3947V22.9483H58.4297C59.0217 21.9243 60.1297 21.3103 61.3117 21.3483C63.6097 21.3483 65.1247 23.1643 65.1247 25.9703ZM63.2147 25.9703C63.2147 24.1373 62.2677 22.9323 60.8217 22.9323C59.4017 22.9323 58.4467 24.1623 58.4467 25.9703C58.4467 27.7943 59.4017 29.0163 60.8217 29.0163C62.2677 29.0163 63.2147 27.8193 63.2147 25.9703Z" fill="white"/>
<path d="M55.1598 25.9703C55.1598 28.7833 53.6538 30.5913 51.3818 30.5913C50.2068 30.6523 49.1008 30.0373 48.5328 29.0073H48.4898V33.4913H46.6318V21.4423H48.4308V22.9483H48.4648C49.0568 21.9243 50.1648 21.3103 51.3468 21.3483C53.6448 21.3483 55.1598 23.1643 55.1598 25.9703ZM53.2498 25.9703C53.2498 24.1373 52.3028 22.9323 50.8568 22.9323C49.4368 22.9323 48.4818 24.1623 48.4818 25.9703C48.4818 27.7943 49.4368 29.0163 50.8568 29.0163C52.3028 29.0163 53.2498 27.8193 53.2498 25.9703Z" fill="white"/>
<path d="M42.3027 27.1401H37.5697L36.4327 30.4961H34.4277L38.9107 18.0781H40.9937L45.4777 30.4961H43.4387L42.3027 27.1401ZM38.0597 25.5911H41.8117L39.9617 20.1441H39.9097L38.0597 25.5911Z" fill="white"/>
<path d="M104.762 13.4825C104.513 14.3315 103.691 14.8805 102.811 14.7855C102.21 14.8015 101.633 14.5525 101.233 14.1045C100.832 13.6565 100.649 13.0555 100.731 12.4605C100.651 11.8645 100.834 11.2625 101.232 10.8105C101.63 10.3595 102.205 10.1035 102.807 10.1085C104.06 10.1085 104.816 10.9645 104.816 12.3785V12.6885H101.636V12.7385C101.608 13.0725 101.722 13.4025 101.95 13.6485C102.179 13.8945 102.5 14.0325 102.835 14.0285C103.27 14.0805 103.693 13.8645 103.907 13.4825H104.762ZM101.636 12.0315H103.91C103.933 11.7255 103.826 11.4245 103.614 11.2025C103.403 10.9805 103.108 10.8575 102.802 10.8645C102.492 10.8605 102.193 10.9825 101.973 11.2025C101.754 11.4215 101.632 11.7205 101.636 12.0315Z" fill="white"/>
<path d="M95.7051 8.43652H96.5861V10.9175H96.6561C96.8981 10.3865 97.4471 10.0645 98.0291 10.1115C98.4711 10.0875 98.8991 10.2615 99.1991 10.5855C99.4991 10.9105 99.6391 11.3525 99.5801 11.7905V14.6975H98.6901V12.0095C98.6901 11.2905 98.3551 10.9255 97.7271 10.9255C97.4181 10.9005 97.1141 11.0125 96.8951 11.2325C96.6761 11.4525 96.5661 11.7585 96.5941 12.0675V14.6975H95.7051V8.43652Z" fill="white"/>
<path d="M93.5152 9.07422V10.2152H94.4912V10.9642H93.5152V13.2792C93.5152 13.7512 93.7092 13.9582 94.1522 13.9582C94.2652 13.9572 94.3782 13.9502 94.4912 13.9372V14.6772C94.3312 14.7062 94.1692 14.7212 94.0072 14.7232C93.0192 14.7232 92.6252 14.3752 92.6252 13.5072V10.9642H91.9102V10.2152H92.6252V9.07422H93.5152Z" fill="white"/>
<path d="M84.6699 10.195H85.5249V10.91H85.5919C85.8229 10.383 86.3619 10.061 86.9359 10.108C87.3799 10.075 87.8139 10.245 88.1179 10.571C88.4209 10.896 88.5589 11.342 88.4939 11.783V14.698H87.6059V12.006C87.6059 11.282 87.2909 10.922 86.6339 10.922C86.3329 10.908 86.0409 11.026 85.8339 11.246C85.6269 11.465 85.5269 11.764 85.5589 12.063V14.698H84.6699V10.195Z" fill="white"/>
<path d="M79.2304 12.4444C79.1534 11.6374 79.5404 10.8564 80.2294 10.4294C80.9184 10.0014 81.7894 10.0014 82.4784 10.4294C83.1674 10.8564 83.5544 11.6374 83.4774 12.4444C83.5564 13.2524 83.1694 14.0354 82.4804 14.4634C81.7904 14.8924 80.9174 14.8924 80.2274 14.4634C79.5384 14.0354 79.1514 13.2524 79.2304 12.4444ZM82.5634 12.4444C82.5634 11.4684 82.1254 10.8974 81.3554 10.8974C80.5834 10.8974 80.1484 11.4684 80.1484 12.4444C80.1484 13.4284 80.5834 13.9954 81.3554 13.9954C82.1254 13.9954 82.5634 13.4244 82.5634 12.4444Z" fill="white"/>
<path d="M71.3486 12.4435C71.3486 11.0205 72.0806 10.1195 73.2176 10.1195C73.7926 10.0935 74.3306 10.4005 74.5986 10.9095H74.6646V8.43652H75.5536V14.6975H74.7026V13.9855H74.6316C74.3436 14.4905 73.7986 14.7925 73.2176 14.7715C72.0726 14.7715 71.3486 13.8705 71.3486 12.4435ZM72.2666 12.4435C72.2666 13.3985 72.7166 13.9735 73.4696 13.9735C74.2186 13.9735 74.6816 13.3905 74.6816 12.4475C74.6816 11.5095 74.2136 10.9175 73.4696 10.9175C72.7216 10.9175 72.2666 11.4965 72.2666 12.4435Z" fill="white"/>
<path d="M66.4014 13.4244C66.4014 12.6144 67.0054 12.1464 68.0764 12.0804L69.2964 12.0104V11.6214C69.2964 11.1464 68.9814 10.8774 68.3744 10.8774C67.8784 10.8774 67.5344 11.0594 67.4354 11.3774H66.5754C66.6664 10.6044 67.3934 10.1084 68.4154 10.1084C69.5444 10.1084 70.1804 10.6704 70.1804 11.6214V14.6984H69.3254V14.0654H69.2554C68.9644 14.5274 68.4474 14.7974 67.9024 14.7724C67.5204 14.8124 67.1384 14.6884 66.8524 14.4314C66.5664 14.1744 66.4024 13.8094 66.4014 13.4244ZM69.2964 13.0404V12.6634L68.1964 12.7334C67.5764 12.7754 67.2944 12.9864 67.2944 13.3834C67.2944 13.7884 67.6464 14.0244 68.1304 14.0244C68.4164 14.0534 68.7014 13.9644 68.9214 13.7794C69.1414 13.5934 69.2764 13.3274 69.2964 13.0404Z" fill="white"/>
<path d="M61.2182 12.4444C61.1412 11.6374 61.5282 10.8564 62.2172 10.4294C62.9062 10.0014 63.7782 10.0014 64.4672 10.4294C65.1562 10.8564 65.5432 11.6374 65.4652 12.4444C65.5442 13.2524 65.1572 14.0354 64.4682 14.4634C63.7782 14.8924 62.9052 14.8924 62.2162 14.4634C61.5262 14.0354 61.1392 13.2524 61.2182 12.4444ZM64.5512 12.4444C64.5512 11.4684 64.1132 10.8974 63.3432 10.8974C62.5702 10.8974 62.1362 11.4684 62.1362 12.4444C62.1362 13.4284 62.5702 13.9954 63.3432 13.9954C64.1132 13.9954 64.5512 13.4244 64.5512 12.4444Z" fill="white"/>
<path d="M59.0942 8.43652H59.9832V14.6975H59.0942V8.43652Z" fill="white"/>
<path d="M53.854 10.195H54.709V10.91H54.776C55.007 10.383 55.546 10.061 56.12 10.108C56.563 10.075 56.998 10.245 57.302 10.571C57.605 10.896 57.743 11.342 57.678 11.783V14.698H56.79V12.006C56.79 11.282 56.475 10.922 55.818 10.922C55.517 10.908 55.225 11.026 55.018 11.246C54.811 11.465 54.711 11.764 54.743 12.063V14.698H53.854V10.195Z" fill="white"/>
<path d="M51.5733 14.6973H50.6513L49.7203 11.3803H49.6503L48.7233 14.6973H47.8103L46.5693 10.1943H47.4703L48.2773 13.6303H48.3433L49.2693 10.1943H50.1223L51.0483 13.6303H51.1183L51.9213 10.1943H52.8093L51.5733 14.6973Z" fill="white"/>
<path d="M41.681 12.4444C41.604 11.6374 41.991 10.8564 42.68 10.4294C43.369 10.0014 44.24 10.0014 44.929 10.4294C45.618 10.8564 46.005 11.6374 45.928 12.4444C46.007 13.2524 45.62 14.0354 44.931 14.4634C44.241 14.8924 43.368 14.8924 42.679 14.4634C41.989 14.0354 41.602 13.2524 41.681 12.4444ZM45.014 12.4444C45.014 11.4684 44.576 10.8974 43.806 10.8974C43.034 10.8974 42.599 11.4684 42.599 12.4444C42.599 13.4284 43.034 13.9954 43.806 13.9954C44.576 13.9954 45.014 13.4244 45.014 12.4444Z" fill="white"/>
<path d="M37.8264 8.73048C38.6154 8.67348 39.3884 8.97448 39.9324 9.54848C40.4754 10.1225 40.7334 10.9105 40.6344 11.6955C40.6344 13.6015 39.6034 14.6975 37.8264 14.6975H35.6714V8.73048H37.8264ZM36.5974 13.8535H37.7224C38.2864 13.8875 38.8354 13.6655 39.2174 13.2485C39.5994 12.8325 39.7734 12.2665 39.6904 11.7075C39.7674 11.1515 39.5904 10.5895 39.2094 10.1765C38.8294 9.76348 38.2834 9.54248 37.7224 9.57348H36.5974V13.8535Z" fill="white"/>
<path d="M24.769 20.3015C24.791 18.6045 25.68 17.0375 27.126 16.1495C26.21 14.8415 24.731 14.0415 23.134 13.9915C21.455 13.8155 19.827 14.9965 18.971 14.9965C18.099 14.9965 16.782 14.0085 15.363 14.0385C13.496 14.0985 11.798 15.1345 10.89 16.7655C8.95599 20.1145 10.399 25.0355 12.251 27.7425C13.178 29.0675 14.261 30.5475 15.679 30.4955C17.066 30.4375 17.584 29.6105 19.258 29.6105C20.917 29.6105 21.403 30.4955 22.849 30.4625C24.338 30.4375 25.275 29.1305 26.17 27.7925C26.836 26.8485 27.348 25.8045 27.688 24.7005C25.92 23.9525 24.771 22.2205 24.769 20.3015Z" fill="white"/>
<path d="M22.0373 12.2107C22.8493 11.2367 23.2483 9.98473 23.1523 8.71973C21.9123 8.84973 20.7663 9.44273 19.9443 10.3797C19.1323 11.3037 18.7203 12.5127 18.8003 13.7407C20.0573 13.7537 21.2503 13.1897 22.0373 12.2107Z" fill="white"/>
</svg>
