<svg width="12" height="12" viewBox="0 0 12 12" fill="none" xmlns="http://www.w3.org/2000/svg">
<path d="M10.144 3.28H11.504V11.552H10.144V3.28ZM11.504 1.792H10.144V0.128H11.504V1.792ZM5.888 4.48H2.752V11.552H1.392V4.48H0V3.28H1.392V2.048C1.392 1.376 1.587 0.867 1.976 0.52C2.366 0.174 2.934 0 3.68 0C3.808 0 3.955 0.011 4.12 0.032C4.286 0.054 4.432 0.086 4.56 0.128V1.312C4.443 1.27 4.315 1.24 4.176 1.224C4.038 1.208 3.91 1.2 3.792 1.2C3.462 1.2 3.206 1.264 3.024 1.392C2.843 1.52 2.752 1.766 2.752 2.128V3.28H5.888V2.048C5.888 1.376 6.083 0.867 6.472 0.52C6.862 0.174 7.43 0 8.176 0C8.304 0 8.451 0.011 8.616 0.032C8.782 0.054 8.928 0.086 9.056 0.128V1.312C8.939 1.27 8.811 1.24 8.672 1.224C8.534 1.208 8.406 1.2 8.288 1.2C7.958 1.2 7.702 1.264 7.52 1.392C7.339 1.52 7.248 1.766 7.248 2.128V3.28H8.848V4.48H7.248V11.552H5.888V4.48Z" fill="#191919"/>
</svg>
