<svg width="667" height="12" viewBox="0 0 667 12" fill="none" xmlns="http://www.w3.org/2000/svg">
<path d="M666.691 5.76025C666.691 6.00625 666.597 6.25125 666.41 6.43925L661.61 11.2393C661.235 11.6143 660.628 11.6143 660.253 11.2393C659.878 10.8643 659.878 10.2572 660.253 9.88225L664.374 5.76025L660.253 1.63925C659.878 1.26425 659.878 0.65625 660.253 0.28125C660.628 -0.09375 661.235 -0.09375 661.61 0.28125L666.41 5.08125C666.597 5.26925 666.691 5.51425 666.691 5.76025Z" fill="#575757"/>
<path d="M0 5.76074C0 5.51474 0.094 5.26974 0.281 5.08174L5.081 0.281738C5.456 -0.0932617 6.063 -0.0932617 6.438 0.281738C6.813 0.656738 6.813 1.26374 6.438 1.63874L2.317 5.76074L6.438 9.88174C6.813 10.2567 6.813 10.8647 6.438 11.2397C6.063 11.6147 5.456 11.6147 5.081 11.2397L0.281 6.43974C0.094 6.25174 0 6.00674 0 5.76074Z" fill="#575757"/>
</svg>
